<svg xmlns:xlink="http://www.w3.org/1999/xlink" height="1597" xmlns:ev="http://www.w3.org/2001/xml-events" width="1133" xmlns="http://www.w3.org/2000/svg" viewBox="0 0 1133 1597"><defs/><g transform="translate(5.5,5.5)" id="page1"><rect y="0" height="1587" fill="#ffffff" width="1123" x="0"/><g transform="translate(351.000000,78.000000)" id="shape1"><path fill="#ffffff" d="M310.0,59.0L310.0,11.0C310.0,4.9,305.1,.0,299.0,.0L11.0,.0C4.9,.0,.0,4.9,.0,11.0L.0,59.0C.0,65.1,4.9,70.0,11.0,70.0L299.0,70.0C305.1,70.0,310.0,65.1,310.0,59.0z" stroke="#323232" stroke-width="3" fill-rule="nonzero"/><text xml:space="preserve" style="fill:#191919;font-family:Arial;font-size:12.00pt"><tspan y="31.0" x="16.8">Scalar replacement of array references</tspan><tspan y="50.0" x="69.7">Data Cache optimations</tspan></text></g><g transform="translate(351.000000,192.500000)" id="shape2"><path fill="#ffffff" d="M310.0,193.5L310.0,11.0C310.0,4.9,305.1,.0,299.0,.0L11.0,.0C4.9,.0,.0,4.9,.0,11.0L.0,193.5C.0,199.6,4.9,204.5,11.0,204.5L299.0,204.5C305.1,204.5,310.0,199.6,310.0,193.5z" stroke="#323232" stroke-width="3" fill-rule="nonzero"/><text xml:space="preserve" style="fill:#191919;font-family:Arial;font-size:12.00pt"><tspan y="41.3" x="78.1">Procedure Integration</tspan><tspan y="60.3" x="10.6">Tail call optimation including tail-recusion </tspan><tspan y="79.3" x="116.8">elimination</tspan><tspan y="98.3" x="35.0">Scalar replacement of aggregates</tspan><tspan y="117.3" x="12.4">Sparse conditional constant propegation</tspan><tspan y="136.3" x="24.4">Interprocedural constant propegation</tspan><tspan y="155.3" x="25.7">procedure spesialization and cloning</tspan><tspan y="174.3" x="12.4">Sparse conditional constant propegation</tspan></text></g><g transform="translate(506.000000,148.000000)" id="shape3"><path fill="none" d="M.0,.0L.0,33.6" stroke="#303030" stroke-width="3"/><path fill="#303030" d="M5.2,33.6L.0,44.0L-5.2,33.6L5.2,33.6" stroke-linecap="round" stroke-width="1" stroke="#303030"/></g><g transform="translate(351.000000,441.500000)" id="shape4"><path fill="#ffffff" d="M310.0,95.5L310.0,11.0C310.0,4.9,305.1,.0,299.0,.0L11.0,.0C4.9,.0,.0,4.9,.0,11.0L.0,95.5C.0,101.6,4.9,106.5,11.0,106.5L299.0,106.5C305.1,106.5,310.0,101.6,310.0,95.5z" stroke="#323232" stroke-width="3" fill-rule="nonzero"/><text xml:space="preserve" style="fill:#191919;font-family:Arial;font-size:12.00pt"><tspan y="30.3" x="70.6">Global value numbering</tspan><tspan y="49.3" x="33.2">Local and global copy propegation</tspan><tspan y="68.3" x="7.9">Sparse conditional constraint propegation</tspan><tspan y="87.3" x="75.9">Dead code elimination</tspan></text></g><g transform="translate(506.000000,398.000000)" id="shape5"><path fill="none" d="M.0,.0L.0,32.6" stroke="#303030" stroke-width="3"/><path fill="#303030" d="M5.2,32.6L.0,43.0L-5.2,32.6L5.2,32.6" stroke-linecap="round" stroke-width="1" stroke="#303030"/></g><g transform="translate(213.000000,629.000000)" id="shape6"><path fill="#ffffff" d="M236.0,59.0L236.0,11.0C236.0,4.9,231.1,.0,225.0,.0L11.0,.0C4.9,.0,.0,4.9,.0,11.0L.0,59.0C.0,65.1,4.9,70.0,11.0,70.0L225.0,70.0C231.1,70.0,236.0,65.1,236.0,59.0z" stroke="#323232" stroke-width="3" fill-rule="nonzero"/><text xml:space="preserve" style="fill:#191919;font-family:Arial;font-size:12.00pt"><tspan y="21.5" x="6.0">Local and global subexpression </tspan><tspan y="40.5" x="79.8">elimination</tspan><tspan y="59.5" x="22.0">Loop invariant code motion</tspan></text></g><path fill="#ffffff" transform="translate(724.000000,441.500000)" d="M272.0,95.5L272.0,11.0C272.0,4.9,267.1,.0,261.0,.0L11.0,.0C4.9,.0,.0,4.9,.0,11.0L.0,95.5C.0,101.6,4.9,106.5,11.0,106.5L261.0,106.5C267.1,106.5,272.0,101.6,272.0,95.5z" stroke="#323232" stroke-width="3" fill-rule="nonzero" id="shape7"/><g transform="translate(563.000000,629.000000)" id="shape8"><path fill="#ffffff" d="M236.0,59.0L236.0,11.0C236.0,4.9,231.1,.0,225.0,.0L11.0,.0C4.9,.0,.0,4.9,.0,11.0L.0,59.0C.0,65.1,4.9,70.0,11.0,70.0L225.0,70.0C231.1,70.0,236.0,65.1,236.0,59.0z" stroke="#323232" stroke-width="3" fill-rule="nonzero"/><text xml:space="preserve" style="fill:#191919;font-family:Arial;font-size:12.00pt"><tspan y="40.5" x="10.9">Partial redundancy elimination</tspan></text></g><g transform="translate(351.000000,761.000000)" id="shape9"><path fill="#ffffff" d="M331.0,154.0L331.0,11.0C331.0,4.9,326.1,.0,320.0,.0L11.0,.0C4.9,.0,.0,4.9,.0,11.0L.0,154.0C.0,160.1,4.9,165.0,11.0,165.0L320.0,165.0C326.1,165.0,331.0,160.1,331.0,154.0z" stroke="#323232" stroke-width="3" fill-rule="nonzero"/><text xml:space="preserve" style="fill:#191919;font-family:Arial;font-size:12.00pt"><tspan y="31.0" x="86.4">Dead code elimination</tspan><tspan y="50.0" x="116.6">Code hoisting</tspan><tspan y="69.0" x="36.2">Induction-variable strength reduction</tspan><tspan y="88.0" x="51.3">Linear-function test replacement</tspan><tspan y="107.0" x="74.0">Induction varable removal</tspan><tspan y="126.0" x="14.4">Unneccesairy bounds checking elimination</tspan><tspan y="145.0" x="81.5">control-flow optimations</tspan></text></g><g transform="translate(351.000000,988.000000)" id="shape10"><path fill="#ffffff" d="M331.0,343.0L331.0,11.0C331.0,4.9,326.1,.0,320.0,.0L11.0,.0C4.9,.0,.0,4.9,.0,11.0L.0,343.0C.0,349.1,4.9,354.0,11.0,354.0L320.0,354.0C326.1,354.0,331.0,349.1,331.0,343.0z" stroke="#323232" stroke-width="3" fill-rule="nonzero"/><text xml:space="preserve" style="fill:#191919;font-family:Arial;font-size:12.00pt"><tspan y="30.5" x="105.5">In line expansion</tspan><tspan y="49.5" x="84.2">Leaf routine optimation</tspan><tspan y="68.5" x="104.2">Schrink wrapping</tspan><tspan y="87.5" x="110.0">Machine idioms</tspan><tspan y="106.5" x="122.4">Tail merging</tspan><tspan y="125.5" x="23.8">Branch optimation and coditional moves</tspan><tspan y="144.5" x="86.4">Dead code elimination</tspan><tspan y="163.5" x="29.6">Software pipelining with loop unrolling, </tspan><tspan y="182.5" x="18.0">register expansion, register renaming and </tspan><tspan y="201.5" x="94.0">hirarchical reduction</tspan><tspan y="220.5" x="50.8">Basic-block branch scheduling 1</tspan><tspan y="239.5" x="36.2">Register allocation by graph coloring</tspan><tspan y="258.5" x="35.3">Basic-block and branch scheduling 2</tspan><tspan y="277.5" x="44.2">Intraprocedural I-cache optimation</tspan><tspan y="296.5" x="86.9">Instruction prefetching</tspan><tspan y="315.5" x="106.8">Data prefetching</tspan><tspan y="334.5" x="103.3">Branch prediction</tspan></text></g><g transform="translate(351.000000,1404.000000)" id="shape11"><path fill="#ffffff" d="M325.0,59.0L325.0,11.0C325.0,4.9,320.1,.0,314.0,.0L11.0,.0C4.9,.0,.0,4.9,.0,11.0L.0,59.0C.0,65.1,4.9,70.0,11.0,70.0L314.0,70.0C320.1,70.0,325.0,65.1,325.0,59.0z" stroke="#323232" stroke-width="3" fill-rule="nonzero"/><text xml:space="preserve" style="fill:#191919;font-family:Arial;font-size:12.00pt"><tspan y="21.5" x="39.9">Intraprocedural registyer allocation</tspan><tspan y="40.5" x="44.7">Aggregation og global references</tspan><tspan y="59.5" x="41.2">Interprocedural I-cache optimation</tspan></text></g><g transform="translate(724.000000,441.500000)" id="shape12"><path fill="#ffffff" d="M102.0,106.5L102.0,.0L.0,.0L.0,106.5L102.0,106.5z" stroke="#323232" stroke-width="3" fill-rule="nonzero"/><text xml:space="preserve" style="fill:#191919;font-family:Arial;font-size:12.00pt"><tspan y="49.5" x="19.0">Constant </tspan><tspan y="68.5" x="24.8">Folding</tspan></text></g><g transform="translate(826.000000,441.500000)" id="shape13"><path fill="#ffffff" d="M170.0,106.5L170.0,.0L.0,.0L.0,106.5L170.0,106.5z" stroke="#323232" stroke-width="3" fill-rule="nonzero"/><text xml:space="preserve" style="fill:#191919;font-family:Arial;font-size:12.00pt"><tspan y="40.0" x="51.7">Algebraic </tspan><tspan y="59.0" x="35.3">simplifications </tspan><tspan y="78.0" x="4.1">including reassosiation</tspan></text></g><g transform="translate(661.000000,494.000000)" id="shape14"><path fill="none" d="M.0,.0L52.6,.0" stroke="#303030" stroke-width="3" stroke-dasharray="11,5"/><path fill="#303030" d="M52.6,-5.2L63.0,.0L52.6,5.2L52.6,-5.2" stroke-linecap="round" stroke-width="1" stroke="#303030"/></g><g transform="translate(661.000000,294.000000)" id="shape15"><path fill="none" d="M.0,.0L210.0,.0L210.0,136.6" stroke="#303030" stroke-width="3" stroke-dasharray="11,5"/><path fill="#303030" d="M215.2,136.6L210.0,147.0L204.8,136.6L215.2,136.6" stroke-linecap="round" stroke-width="1" stroke="#303030"/></g><g transform="translate(395.200000,629.000000)" id="shape16"><path fill="none" d="M.0,.0L.0,-27.0L15.8,-27.0L15.8,-29.0L236.5,-29.0C236.5,-32.3,239.2,-35.0,242.5,-35.0C245.8,-35.0,248.5,-32.3,248.5,-29.0L339.1,-29.0L339.1,-70.6" stroke="#303030" stroke-width="3" stroke-dasharray="11,5"/><path fill="#303030" d="M333.9,-70.6L339.1,-81.0L344.3,-70.6L333.9,-70.6" stroke-linecap="round" stroke-width="1" stroke="#303030"/></g><g transform="translate(766.172000,629.000000)" id="shape17"><path fill="none" d="M.0,.0L.0,-70.6" stroke="#303030" stroke-width="3" stroke-dasharray="11,5"/><path fill="#303030" d="M-5.2,-70.6L.0,-81.0L5.2,-70.6L-5.2,-70.6" stroke-linecap="round" stroke-width="1" stroke="#303030"/></g><g transform="translate(331.000000,699.000000)" id="shape18"><path fill="none" d="M.0,.0L81.8,56.1" stroke="#303030" stroke-width="3"/><path fill="#303030" d="M84.7,51.8L90.3,62.0L78.8,60.4L84.7,51.8" stroke-linecap="round" stroke-width="1" stroke="#303030"/></g><g transform="translate(681.000000,699.000000)" id="shape19"><path fill="none" d="M.0,.0L-93.8,56.6" stroke="#303030" stroke-width="3"/><path fill="#303030" d="M-91.1,61.1L-102.7,62.0L-96.5,52.2L-91.1,61.1" stroke-linecap="round" stroke-width="1" stroke="#303030"/></g><g transform="translate(450.128000,548.000000)" id="shape20"><path fill="none" d="M.0,.0L-110.5,75.2" stroke="#303030" stroke-width="3"/><path fill="#303030" d="M-107.6,79.5L-119.1,81.0L-113.5,70.9L-107.6,79.5" stroke-linecap="round" stroke-width="1" stroke="#303030"/></g><g transform="translate(560.144000,548.000000)" id="shape21"><path fill="none" d="M.0,.0L112.2,75.2" stroke="#303030" stroke-width="3"/><path fill="#303030" d="M115.1,70.9L120.9,81.0L109.3,79.5L115.1,70.9" stroke-linecap="round" stroke-width="1" stroke="#303030"/></g><g transform="translate(682.000000,843.000000)" id="shape22"><path fill="none" d="M.0,.0L189.0,.0L189.0,-283.6" stroke="#303030" stroke-width="3" stroke-dasharray="11,5"/><path fill="#303030" d="M183.8,-283.6L189.0,-294.0L194.2,-283.6L183.8,-283.6" stroke-linecap="round" stroke-width="1" stroke="#303030"/></g><g transform="translate(516.000000,926.000000)" id="shape23"><path fill="none" d="M.0,.0L.0,51.6" stroke="#303030" stroke-width="3"/><path fill="#303030" d="M5.2,51.6L.0,62.0L-5.2,51.6L5.2,51.6" stroke-linecap="round" stroke-width="1" stroke="#303030"/></g><g transform="translate(682.000000,1165.000000)" id="shape24"><path fill="none" d="M.0,.0L229.0,.0L229.0,-605.6" stroke="#303030" stroke-width="3" stroke-dasharray="11,5"/><path fill="#303030" d="M223.8,-605.6L229.0,-616.0L234.2,-605.6L223.8,-605.6" stroke-linecap="round" stroke-width="1" stroke="#303030"/></g><g transform="translate(516.500000,1342.000000)" id="shape25"><path fill="none" d="M.0,.0L-3.0,.0L-3.0,51.6" stroke="#303030" stroke-width="3"/><path fill="#303030" d="M2.2,51.6L-3.0,62.0L-8.2,51.6L2.2,51.6" stroke-linecap="round" stroke-width="1" stroke="#303030"/></g><g transform="translate(246.000000,94.000000)" id="shape26"><text xml:space="preserve" style="fill:#191919;font-family:Arial;font-size:12.00pt"><tspan y="20.0" x="13.2">A</tspan></text></g><g transform="translate(250.000000,265.000000)" id="shape27"><text xml:space="preserve" style="fill:#191919;font-family:Arial;font-size:12.00pt"><tspan y="24.0" x="9.2">B</tspan></text></g><g transform="translate(237.000000,467.750000)" id="shape28"><text xml:space="preserve" style="fill:#191919;font-family:Arial;font-size:12.00pt"><tspan y="32.5" x="10.8">C1</tspan></text></g><g transform="translate(239.500000,586.000000)" id="shape29"><text xml:space="preserve" style="fill:#191919;font-family:Arial;font-size:12.00pt"><tspan y="22.0" x="8.3">C2</tspan></text></g><path fill="none" transform="translate(170.000000,491.000000)" d="M.0,.0L-19.0,.0L-19.0,416.0" stroke="#303030" stroke-width="3" id="shape30"/><g transform="translate(104.000000,661.000000)" id="shape31"><text xml:space="preserve" style="fill:#191919;font-family:Arial;font-size:12.00pt"><tspan y="24.5" x="8.2">C</tspan></text></g><path fill="none" transform="translate(151.000000,907.000000)" d="M.0,.0L19.0,.0" stroke="#303030" stroke-width="3" id="shape32"/><g transform="translate(794.000000,600.000000)" id="shape33"><text xml:space="preserve" style="fill:#191919;font-family:Arial;font-size:12.00pt"><tspan y="22.0" x="10.8">C3</tspan></text></g><g transform="translate(283.000000,829.500000)" id="shape34"><text xml:space="preserve" style="fill:#191919;font-family:Arial;font-size:12.00pt"><tspan y="19.5" x="10.8">C4</tspan></text></g><g transform="translate(283.000000,1143.000000)" id="shape35"><text xml:space="preserve" style="fill:#191919;font-family:Arial;font-size:12.00pt"><tspan y="20.0" x="8.7">D</tspan></text></g><g transform="translate(283.000000,1425.000000)" id="shape36"><text xml:space="preserve" style="fill:#191919;font-family:Arial;font-size:12.00pt"><tspan y="19.5" x="4.2">E</tspan></text></g></g></svg>