<svg height="738" viewBox="0 0 852 738" xmlns="http://www.w3.org/2000/svg" xmlns:xlink="http://www.w3.org/1999/xlink" width="852" xmlns:ev="http://www.w3.org/2001/xml-events"><defs/><g transform="translate(5.5,5.5)" id="page1"><rect height="728" fill="#ffffff" x="0" y="0" width="842"/><g transform="translate(280.000000,46.013000)" id="shape1"><path d="M11.3,.0L86.0,.0C92.6,.0,98.0,5.1,98.0,11.3L98.0,124.0C98.0,130.6,92.6,136.0,86.0,136.0L11.3,136.0C5.1,136.0,.0,130.6,.0,124.0L.0,11.3C.0,5.1,5.1,.0,11.3,.0z" fill="#b8e366" fill-rule="nonzero"/><path d="M11.3,.0L86.0,.0C92.6,.0,98.0,5.1,98.0,11.3L98.0,124.0C98.0,130.6,92.6,136.0,86.0,136.0L11.3,136.0C5.1,136.0,.0,130.6,.0,124.0L.0,11.3C.0,5.1,5.1,.0,11.3,.0zM.0,44.9L98.0,44.9L.0,44.9zM.0,90.7L98.0,90.7L.0,90.7z" fill="none" stroke-width="2" stroke="#6a8438"/><text xml:space="preserve" style="fill:#303030;font-family:Microsoft YaHei,PingFang SC,Mircrosoft YaHei,Arial;font-size:12.00pt"><tspan x="32.6" y="28.7" style="font-family:Microsoft YaHei,PingFang SC,Mircrosoft YaHei,Arial">SICL</tspan></text></g><g transform="translate(116.274000,378.013000)" id="shape2"><path d="M11.3,.0L86.0,.0C92.6,.0,98.0,5.1,98.0,11.3L98.0,124.0C98.0,130.6,92.6,136.0,86.0,136.0L11.3,136.0C5.1,136.0,.0,130.6,.0,124.0L.0,11.3C.0,5.1,5.1,.0,11.3,.0z" fill="#b8e366" fill-rule="nonzero"/><path d="M11.3,.0L86.0,.0C92.6,.0,98.0,5.1,98.0,11.3L98.0,124.0C98.0,130.6,92.6,136.0,86.0,136.0L11.3,136.0C5.1,136.0,.0,130.6,.0,124.0L.0,11.3C.0,5.1,5.1,.0,11.3,.0zM.0,44.9L98.0,44.9L.0,44.9zM.0,90.7L98.0,90.7L.0,90.7z" fill="none" stroke-width="2" stroke="#6a8438"/><text xml:space="preserve" style="fill:#303030;font-family:Microsoft YaHei,PingFang SC,Mircrosoft YaHei,Arial;font-size:12.00pt"><tspan x="15.6" y="28.7" style="font-family:Microsoft YaHei,PingFang SC,Mircrosoft YaHei,Arial">Clappers</tspan></text><text xml:space="preserve" style="fill:#303030;font-family:Microsoft YaHei,PingFang SC,Mircrosoft YaHei,Arial;font-size:8.00pt"><tspan x="9.0" y="65.0" style="font-family:Microsoft YaHei,PingFang SC,Mircrosoft YaHei,Arial">SSA optimizing </tspan><tspan x="26.0" y="80.0" style="font-family:Microsoft YaHei,PingFang SC,Mircrosoft YaHei,Arial">compiler</tspan></text></g><g transform="translate(187.000000,553.013000)" id="shape3"><path d="M11.3,.0L86.0,.0C92.6,.0,98.0,5.1,98.0,11.3L98.0,124.0C98.0,130.6,92.6,136.0,86.0,136.0L11.3,136.0C5.1,136.0,.0,130.6,.0,124.0L.0,11.3C.0,5.1,5.1,.0,11.3,.0z" fill="#b8e366" fill-rule="nonzero"/><path d="M11.3,.0L86.0,.0C92.6,.0,98.0,5.1,98.0,11.3L98.0,124.0C98.0,130.6,92.6,136.0,86.0,136.0L11.3,136.0C5.1,136.0,.0,130.6,.0,124.0L.0,11.3C.0,5.1,5.1,.0,11.3,.0zM.0,44.9L98.0,44.9L.0,44.9zM.0,90.7L98.0,90.7L.0,90.7z" fill="none" stroke-width="2" stroke="#6a8438"/><text xml:space="preserve" style="fill:#303030;font-family:Microsoft YaHei,PingFang SC,Mircrosoft YaHei,Arial;font-size:12.00pt"><tspan x="21.9" y="28.7" style="font-family:Microsoft YaHei,PingFang SC,Mircrosoft YaHei,Arial">Clector</tspan></text><text xml:space="preserve" style="fill:#303030;font-family:Microsoft YaHei,PingFang SC,Mircrosoft YaHei,Arial;font-size:8.00pt"><tspan x="24.2" y="57.5" style="font-family:Microsoft YaHei,PingFang SC,Mircrosoft YaHei,Arial">SSE, AVX, </tspan><tspan x="13.0" y="72.5" style="font-family:Microsoft YaHei,PingFang SC,Mircrosoft YaHei,Arial">Neon.. Vector </tspan><tspan x="31.8" y="87.5" style="font-family:Microsoft YaHei,PingFang SC,Mircrosoft YaHei,Arial">Fusion</tspan></text></g><g transform="translate(39.000000,553.013000)" id="shape4"><path d="M11.3,.0L86.0,.0C92.6,.0,98.0,5.1,98.0,11.3L98.0,124.0C98.0,130.6,92.6,136.0,86.0,136.0L11.3,136.0C5.1,136.0,.0,130.6,.0,124.0L.0,11.3C.0,5.1,5.1,.0,11.3,.0z" fill="#b8e366" fill-rule="nonzero"/><path d="M11.3,.0L86.0,.0C92.6,.0,98.0,5.1,98.0,11.3L98.0,124.0C98.0,130.6,92.6,136.0,86.0,136.0L11.3,136.0C5.1,136.0,.0,130.6,.0,124.0L.0,11.3C.0,5.1,5.1,.0,11.3,.0zM.0,44.9L98.0,44.9L.0,44.9zM.0,90.7L98.0,90.7L.0,90.7z" fill="none" stroke-width="2" stroke="#6a8438"/><text xml:space="preserve" style="fill:#303030;font-family:Microsoft YaHei,PingFang SC,Mircrosoft YaHei,Arial;font-size:12.00pt"><tspan x="24.9" y="28.7" style="font-family:Microsoft YaHei,PingFang SC,Mircrosoft YaHei,Arial">Massa</tspan></text><text xml:space="preserve" style="fill:#303030;font-family:Microsoft YaHei,PingFang SC,Mircrosoft YaHei,Arial;font-size:8.00pt"><tspan x="13.7" y="65.0" style="font-family:Microsoft YaHei,PingFang SC,Mircrosoft YaHei,Arial">SSA structure </tspan><tspan x="14.2" y="80.0" style="font-family:Microsoft YaHei,PingFang SC,Mircrosoft YaHei,Arial">and methods</tspan></text></g><g transform="translate(565.500000,423.013000)" id="shape5"><path d="M11.3,.0L86.0,.0C92.6,.0,98.0,5.1,98.0,11.3L98.0,124.0C98.0,130.6,92.6,136.0,86.0,136.0L11.3,136.0C5.1,136.0,.0,130.6,.0,124.0L.0,11.3C.0,5.1,5.1,.0,11.3,.0z" fill="#b8e366" fill-rule="nonzero"/><path d="M11.3,.0L86.0,.0C92.6,.0,98.0,5.1,98.0,11.3L98.0,124.0C98.0,130.6,92.6,136.0,86.0,136.0L11.3,136.0C5.1,136.0,.0,130.6,.0,124.0L.0,11.3C.0,5.1,5.1,.0,11.3,.0zM.0,44.9L98.0,44.9L.0,44.9zM.0,90.7L98.0,90.7L.0,90.7z" fill="none" stroke-width="2" stroke="#6a8438"/><text xml:space="preserve" style="fill:#303030;font-family:Microsoft YaHei,PingFang SC,Mircrosoft YaHei,Arial;font-size:12.00pt"><tspan x="14.3" y="28.7" style="font-family:Microsoft YaHei,PingFang SC,Mircrosoft YaHei,Arial">Clostrum</tspan></text><text xml:space="preserve" style="fill:#303030;font-family:Microsoft YaHei,PingFang SC,Mircrosoft YaHei,Arial;font-size:8.00pt"><tspan x="32.0" y="65.0" style="font-family:Microsoft YaHei,PingFang SC,Mircrosoft YaHei,Arial">Global </tspan><tspan x="15.5" y="80.0" style="font-family:Microsoft YaHei,PingFang SC,Mircrosoft YaHei,Arial">environment</tspan></text></g><g transform="translate(116.274000,212.013000)" id="shape6"><path d="M11.3,.0L86.0,.0C92.6,.0,98.0,5.1,98.0,11.3L98.0,124.0C98.0,130.6,92.6,136.0,86.0,136.0L11.3,136.0C5.1,136.0,.0,130.6,.0,124.0L.0,11.3C.0,5.1,5.1,.0,11.3,.0z" fill="#b8e366" fill-rule="nonzero"/><path d="M11.3,.0L86.0,.0C92.6,.0,98.0,5.1,98.0,11.3L98.0,124.0C98.0,130.6,92.6,136.0,86.0,136.0L11.3,136.0C5.1,136.0,.0,130.6,.0,124.0L.0,11.3C.0,5.1,5.1,.0,11.3,.0zM.0,44.9L98.0,44.9L.0,44.9zM.0,90.7L98.0,90.7L.0,90.7z" fill="none" stroke-width="2" stroke="#6a8438"/><text xml:space="preserve" style="fill:#303030;font-family:Microsoft YaHei,PingFang SC,Mircrosoft YaHei,Arial;font-size:12.00pt"><tspan x="23.2" y="28.7" style="font-family:Microsoft YaHei,PingFang SC,Mircrosoft YaHei,Arial">Cleavir</tspan></text><text xml:space="preserve" style="fill:#303030;font-family:Microsoft YaHei,PingFang SC,Mircrosoft YaHei,Arial;font-size:8.00pt"><tspan x="25.0" y="65.0" style="font-family:Microsoft YaHei,PingFang SC,Mircrosoft YaHei,Arial">Compiler </tspan><tspan x="20.8" y="80.0" style="font-family:Microsoft YaHei,PingFang SC,Mircrosoft YaHei,Arial">framework</tspan></text></g><g transform="translate(709.500000,423.013000)" id="shape7"><path d="M11.3,.0L86.0,.0C92.6,.0,98.0,5.1,98.0,11.3L98.0,124.0C98.0,130.6,92.6,136.0,86.0,136.0L11.3,136.0C5.1,136.0,.0,130.6,.0,124.0L.0,11.3C.0,5.1,5.1,.0,11.3,.0z" fill="#b8e366" fill-rule="nonzero"/><path d="M11.3,.0L86.0,.0C92.6,.0,98.0,5.1,98.0,11.3L98.0,124.0C98.0,130.6,92.6,136.0,86.0,136.0L11.3,136.0C5.1,136.0,.0,130.6,.0,124.0L.0,11.3C.0,5.1,5.1,.0,11.3,.0zM.0,44.9L98.0,44.9L.0,44.9zM.0,90.7L98.0,90.7L.0,90.7z" fill="none" stroke-width="2" stroke="#6a8438"/><text xml:space="preserve" style="fill:#303030;font-family:Microsoft YaHei,PingFang SC,Mircrosoft YaHei,Arial;font-size:12.00pt"><tspan x="18.8" y="28.7" style="font-family:Microsoft YaHei,PingFang SC,Mircrosoft YaHei,Arial">Eclector</tspan></text><text xml:space="preserve" style="fill:#303030;font-family:Microsoft YaHei,PingFang SC,Mircrosoft YaHei,Arial;font-size:8.00pt"><tspan x="18.6" y="72.5" style="font-family:Microsoft YaHei,PingFang SC,Mircrosoft YaHei,Arial">Lisp Reader</tspan></text></g><g transform="translate(277.000000,212.013000)" id="shape8"><path d="M11.3,.0L92.0,.0C98.6,.0,104.0,5.1,104.0,11.3L104.0,124.0C104.0,130.6,98.6,136.0,92.0,136.0L11.3,136.0C5.1,136.0,.0,130.6,.0,124.0L.0,11.3C.0,5.1,5.1,.0,11.3,.0z" fill="#b8e366" fill-rule="nonzero"/><path d="M11.3,.0L92.0,.0C98.6,.0,104.0,5.1,104.0,11.3L104.0,124.0C104.0,130.6,98.6,136.0,92.0,136.0L11.3,136.0C5.1,136.0,.0,130.6,.0,124.0L.0,11.3C.0,5.1,5.1,.0,11.3,.0zM.0,44.9L104.0,44.9L.0,44.9zM.0,90.7L104.0,90.7L.0,90.7z" fill="none" stroke-width="2" stroke="#6a8438"/><text xml:space="preserve" style="fill:#303030;font-family:Microsoft YaHei,PingFang SC,Mircrosoft YaHei,Arial;font-size:12.00pt"><tspan x="8.2" y="28.7" style="font-family:Microsoft YaHei,PingFang SC,Mircrosoft YaHei,Arial">Clordecone</tspan></text><text xml:space="preserve" style="fill:#303030;font-family:Microsoft YaHei,PingFang SC,Mircrosoft YaHei,Arial;font-size:8.00pt"><tspan x="13.6" y="72.5" style="font-family:Microsoft YaHei,PingFang SC,Mircrosoft YaHei,Arial">Lisp Debugger</tspan></text></g><g transform="translate(427.000000,423.013000)" id="shape9"><path d="M11.3,.0L86.0,.0C92.6,.0,98.0,5.1,98.0,11.3L98.0,124.0C98.0,130.6,92.6,136.0,86.0,136.0L11.3,136.0C5.1,136.0,.0,130.6,.0,124.0L.0,11.3C.0,5.1,5.1,.0,11.3,.0z" fill="#b8e366" fill-rule="nonzero"/><path d="M11.3,.0L86.0,.0C92.6,.0,98.0,5.1,98.0,11.3L98.0,124.0C98.0,130.6,92.6,136.0,86.0,136.0L11.3,136.0C5.1,136.0,.0,130.6,.0,124.0L.0,11.3C.0,5.1,5.1,.0,11.3,.0zM.0,44.9L98.0,44.9L.0,44.9zM.0,90.7L98.0,90.7L.0,90.7z" fill="none" stroke-width="2" stroke="#6a8438"/><text xml:space="preserve" style="fill:#303030;font-family:Microsoft YaHei,PingFang SC,Mircrosoft YaHei,Arial;font-size:12.00pt"><tspan x="28.5" y="28.7" style="font-family:Microsoft YaHei,PingFang SC,Mircrosoft YaHei,Arial">Clash</tspan></text><text xml:space="preserve" style="fill:#303030;font-family:Microsoft YaHei,PingFang SC,Mircrosoft YaHei,Arial;font-size:8.00pt"><tspan x="26.6" y="65.0" style="font-family:Microsoft YaHei,PingFang SC,Mircrosoft YaHei,Arial">Garbage </tspan><tspan x="25.4" y="80.0" style="font-family:Microsoft YaHei,PingFang SC,Mircrosoft YaHei,Arial">Collector</tspan></text></g><g transform="translate(165.274000,378.013000)" id="shape10"><path d="M.0,.0L.0,-22.0" fill="none" stroke-width="1" stroke="#6a8438"/><path stroke-linecap="round" d="M-4.0,-22.0L.0,-30.0L4.0,-22.0L-4.0,-22.0" fill="#6a8438" stroke-width="1" stroke="#6a8438"/></g><g transform="translate(88.000000,553.013000)" id="shape11"><path d="M.0,.0L.0,-20.0L77.3,-20.0L77.3,-31.0" fill="none" stroke-width="1" stroke="#6a8438"/><path stroke-linecap="round" d="M73.3,-31.0L77.3,-39.0L81.3,-31.0L73.3,-31.0" fill="#6a8438" stroke-width="1" stroke="#6a8438"/></g><g transform="translate(236.000000,553.013000)" id="shape12"><path d="M.0,.0L.0,-20.0L-70.7,-20.0L-70.7,-31.0" fill="none" stroke-width="1" stroke="#6a8438"/><path stroke-linecap="round" d="M-74.7,-31.0L-70.7,-39.0L-66.7,-31.0L-74.7,-31.0" fill="#6a8438" stroke-width="1" stroke="#6a8438"/></g><g transform="translate(165.274000,212.013000)" id="shape13"><path d="M.0,.0L.0,-19.0L163.7,-19.0L163.7,-22.0" fill="none" stroke-width="1" stroke="#6a8438"/><path stroke-linecap="round" d="M159.7,-22.0L163.7,-30.0L167.7,-22.0L159.7,-22.0" fill="#6a8438" stroke-width="1" stroke="#6a8438"/></g><g transform="translate(329.000000,212.013000)" id="shape14"><path d="M.0,.0L.0,-22.0" fill="none" stroke-width="1" stroke="#6a8438"/><path stroke-linecap="round" d="M-4.0,-22.0L.0,-30.0L4.0,-22.0L-4.0,-22.0" fill="#6a8438" stroke-width="1" stroke="#6a8438"/></g><g transform="translate(437.726000,212.013000)" id="shape15"><path d="M11.3,.0L86.0,.0C92.6,.0,98.0,5.1,98.0,11.3L98.0,124.0C98.0,130.6,92.6,136.0,86.0,136.0L11.3,136.0C5.1,136.0,.0,130.6,.0,124.0L.0,11.3C.0,5.1,5.1,.0,11.3,.0z" fill="#b8e366" fill-rule="nonzero"/><path d="M11.3,.0L86.0,.0C92.6,.0,98.0,5.1,98.0,11.3L98.0,124.0C98.0,130.6,92.6,136.0,86.0,136.0L11.3,136.0C5.1,136.0,.0,130.6,.0,124.0L.0,11.3C.0,5.1,5.1,.0,11.3,.0zM.0,44.9L98.0,44.9L.0,44.9zM.0,90.7L98.0,90.7L.0,90.7z" fill="none" stroke-width="2" stroke="#6a8438"/><text xml:space="preserve" style="fill:#303030;font-family:Arimo,PingFang SC,Mircrosoft YaHei,Arial;font-size:12.00pt"><tspan x="20.4" y="28.2" style="font-family:Arimo,PingFang SC,Mircrosoft YaHei,Arial">Trazivor</tspan></text><text xml:space="preserve" style="fill:#303030;font-family:Arimo,PingFang SC,Mircrosoft YaHei,Arial;font-size:12.00pt"><tspan x="16.1" y="73.5" style="font-family:Arimo,PingFang SC,Mircrosoft YaHei,Arial">Inspector</tspan></text></g><g transform="translate(486.726000,212.013000)" id="shape16"><path d="M.0,.0L.0,-19.0L-157.7,-19.0L-157.7,-22.0" fill="none" stroke-width="1" stroke="#6a8438"/><path stroke-linecap="round" d="M-161.7,-22.0L-157.7,-30.0L-153.7,-22.0L-161.7,-22.0" fill="#6a8438" stroke-width="1" stroke="#6a8438"/></g><g transform="translate(755.375000,423.013000)" id="shape17"><path d="M.0,.0L.0,-309.0L-369.4,-309.0" fill="none" stroke-width="1" stroke="#6a8438"/><path stroke-linecap="round" d="M-369.4,-305.0L-377.4,-309.0L-369.4,-313.0L-369.4,-305.0" fill="#6a8438" stroke-width="1" stroke="#6a8438"/></g><g transform="translate(476.000000,423.013000)" id="shape18"><path d="M.0,.0L.0,-28.0L101.2,-28.0L101.2,-309.0L-90.0,-309.0" fill="none" stroke-width="1" stroke="#6a8438"/><path stroke-linecap="round" d="M-90.0,-305.0L-98.0,-309.0L-90.0,-313.0L-90.0,-305.0" fill="#6a8438" stroke-width="1" stroke="#6a8438"/></g><g transform="translate(614.500000,423.013000)" id="shape19"><path d="M.0,.0L.0,-309.0L-228.5,-309.0" fill="none" stroke-width="1" stroke="#6a8438"/><path stroke-linecap="round" d="M-228.5,-305.0L-236.5,-309.0L-228.5,-313.0L-228.5,-305.0" fill="#6a8438" stroke-width="1" stroke="#6a8438"/></g></g></svg>