<svg xmlns:xlink="http://www.w3.org/1999/xlink" viewBox="0 0 852 738" xmlns="http://www.w3.org/2000/svg" xmlns:ev="http://www.w3.org/2001/xml-events" height="738" width="852"><defs/><g id="page1" transform="translate(5.5,5.5)"><rect y="0" fill="#ffffff" x="0" height="728" width="842"/><g id="shape1" transform="translate(280.000000,46.013000)"><path fill="#b8e366" fill-rule="nonzero" d="M11.3,.0L86.0,.0C92.6,.0,98.0,5.1,98.0,11.3L98.0,124.0C98.0,130.6,92.6,136.0,86.0,136.0L11.3,136.0C5.1,136.0,.0,130.6,.0,124.0L.0,11.3C.0,5.1,5.1,.0,11.3,.0z"/><path stroke-width="2" fill="none" d="M11.3,.0L86.0,.0C92.6,.0,98.0,5.1,98.0,11.3L98.0,124.0C98.0,130.6,92.6,136.0,86.0,136.0L11.3,136.0C5.1,136.0,.0,130.6,.0,124.0L.0,11.3C.0,5.1,5.1,.0,11.3,.0zM.0,44.9L98.0,44.9L.0,44.9zM.0,90.7L98.0,90.7L.0,90.7z" stroke="#6a8438"/><text style="fill:#303030;font-family:Microsoft YaHei,PingFang SC,Mircrosoft YaHei,Arial;font-size:12.00pt" xml:space="preserve"><tspan y="28.7" style="font-family:Microsoft YaHei,PingFang SC,Mircrosoft YaHei,Arial" x="32.6">SICL</tspan></text></g><g id="shape2" transform="translate(116.274000,378.013000)"><path fill="#b8e366" fill-rule="nonzero" d="M11.3,.0L86.0,.0C92.6,.0,98.0,5.1,98.0,11.3L98.0,124.0C98.0,130.6,92.6,136.0,86.0,136.0L11.3,136.0C5.1,136.0,.0,130.6,.0,124.0L.0,11.3C.0,5.1,5.1,.0,11.3,.0z"/><path stroke-width="2" fill="none" d="M11.3,.0L86.0,.0C92.6,.0,98.0,5.1,98.0,11.3L98.0,124.0C98.0,130.6,92.6,136.0,86.0,136.0L11.3,136.0C5.1,136.0,.0,130.6,.0,124.0L.0,11.3C.0,5.1,5.1,.0,11.3,.0zM.0,44.9L98.0,44.9L.0,44.9zM.0,90.7L98.0,90.7L.0,90.7z" stroke="#6a8438"/><text style="fill:#303030;font-family:Microsoft YaHei,PingFang SC,Mircrosoft YaHei,Arial;font-size:12.00pt" xml:space="preserve"><tspan y="28.7" style="font-family:Microsoft YaHei,PingFang SC,Mircrosoft YaHei,Arial" x="15.6">Clappers</tspan></text><text style="fill:#303030;font-family:Microsoft YaHei,PingFang SC,Mircrosoft YaHei,Arial;font-size:8.00pt" xml:space="preserve"><tspan y="65.0" style="font-family:Microsoft YaHei,PingFang SC,Mircrosoft YaHei,Arial" x="9.0">SSA optimizing </tspan><tspan y="80.0" style="font-family:Microsoft YaHei,PingFang SC,Mircrosoft YaHei,Arial" x="26.0">compiler</tspan></text></g><g id="shape3" transform="translate(187.000000,553.013000)"><path fill="#b8e366" fill-rule="nonzero" d="M11.3,.0L86.0,.0C92.6,.0,98.0,5.1,98.0,11.3L98.0,124.0C98.0,130.6,92.6,136.0,86.0,136.0L11.3,136.0C5.1,136.0,.0,130.6,.0,124.0L.0,11.3C.0,5.1,5.1,.0,11.3,.0z"/><path stroke-width="2" fill="none" d="M11.3,.0L86.0,.0C92.6,.0,98.0,5.1,98.0,11.3L98.0,124.0C98.0,130.6,92.6,136.0,86.0,136.0L11.3,136.0C5.1,136.0,.0,130.6,.0,124.0L.0,11.3C.0,5.1,5.1,.0,11.3,.0zM.0,44.9L98.0,44.9L.0,44.9zM.0,90.7L98.0,90.7L.0,90.7z" stroke="#6a8438"/><text style="fill:#303030;font-family:Microsoft YaHei,PingFang SC,Mircrosoft YaHei,Arial;font-size:12.00pt" xml:space="preserve"><tspan y="28.7" style="font-family:Microsoft YaHei,PingFang SC,Mircrosoft YaHei,Arial" x="21.9">Clector</tspan></text><text style="fill:#303030;font-family:Microsoft YaHei,PingFang SC,Mircrosoft YaHei,Arial;font-size:8.00pt" xml:space="preserve"><tspan y="57.5" style="font-family:Microsoft YaHei,PingFang SC,Mircrosoft YaHei,Arial" x="24.2">SSE, AVX, </tspan><tspan y="72.5" style="font-family:Microsoft YaHei,PingFang SC,Mircrosoft YaHei,Arial" x="13.0">Neon.. Vector </tspan><tspan y="87.5" style="font-family:Microsoft YaHei,PingFang SC,Mircrosoft YaHei,Arial" x="31.8">Fusion</tspan></text></g><g id="shape4" transform="translate(39.000000,553.013000)"><path fill="#b8e366" fill-rule="nonzero" d="M11.3,.0L86.0,.0C92.6,.0,98.0,5.1,98.0,11.3L98.0,124.0C98.0,130.6,92.6,136.0,86.0,136.0L11.3,136.0C5.1,136.0,.0,130.6,.0,124.0L.0,11.3C.0,5.1,5.1,.0,11.3,.0z"/><path stroke-width="2" fill="none" d="M11.3,.0L86.0,.0C92.6,.0,98.0,5.1,98.0,11.3L98.0,124.0C98.0,130.6,92.6,136.0,86.0,136.0L11.3,136.0C5.1,136.0,.0,130.6,.0,124.0L.0,11.3C.0,5.1,5.1,.0,11.3,.0zM.0,44.9L98.0,44.9L.0,44.9zM.0,90.7L98.0,90.7L.0,90.7z" stroke="#6a8438"/><text style="fill:#303030;font-family:Microsoft YaHei,PingFang SC,Mircrosoft YaHei,Arial;font-size:12.00pt" xml:space="preserve"><tspan y="28.7" style="font-family:Microsoft YaHei,PingFang SC,Mircrosoft YaHei,Arial" x="24.9">Massa</tspan></text><text style="fill:#303030;font-family:Microsoft YaHei,PingFang SC,Mircrosoft YaHei,Arial;font-size:8.00pt" xml:space="preserve"><tspan y="65.0" style="font-family:Microsoft YaHei,PingFang SC,Mircrosoft YaHei,Arial" x="13.7">SSA structure </tspan><tspan y="80.0" style="font-family:Microsoft YaHei,PingFang SC,Mircrosoft YaHei,Arial" x="14.2">and methods</tspan></text></g><g id="shape5" transform="translate(565.500000,423.013000)"><path fill="#b8e366" fill-rule="nonzero" d="M11.3,.0L86.0,.0C92.6,.0,98.0,5.1,98.0,11.3L98.0,124.0C98.0,130.6,92.6,136.0,86.0,136.0L11.3,136.0C5.1,136.0,.0,130.6,.0,124.0L.0,11.3C.0,5.1,5.1,.0,11.3,.0z"/><path stroke-width="2" fill="none" d="M11.3,.0L86.0,.0C92.6,.0,98.0,5.1,98.0,11.3L98.0,124.0C98.0,130.6,92.6,136.0,86.0,136.0L11.3,136.0C5.1,136.0,.0,130.6,.0,124.0L.0,11.3C.0,5.1,5.1,.0,11.3,.0zM.0,44.9L98.0,44.9L.0,44.9zM.0,90.7L98.0,90.7L.0,90.7z" stroke="#6a8438"/><text style="fill:#303030;font-family:Microsoft YaHei,PingFang SC,Mircrosoft YaHei,Arial;font-size:12.00pt" xml:space="preserve"><tspan y="28.7" style="font-family:Microsoft YaHei,PingFang SC,Mircrosoft YaHei,Arial" x="14.3">Clostrum</tspan></text><text style="fill:#303030;font-family:Microsoft YaHei,PingFang SC,Mircrosoft YaHei,Arial;font-size:8.00pt" xml:space="preserve"><tspan y="65.0" style="font-family:Microsoft YaHei,PingFang SC,Mircrosoft YaHei,Arial" x="32.0">Global </tspan><tspan y="80.0" style="font-family:Microsoft YaHei,PingFang SC,Mircrosoft YaHei,Arial" x="15.5">environment</tspan></text></g><g id="shape6" transform="translate(116.274000,212.013000)"><path fill="#b8e366" fill-rule="nonzero" d="M11.3,.0L86.0,.0C92.6,.0,98.0,5.1,98.0,11.3L98.0,124.0C98.0,130.6,92.6,136.0,86.0,136.0L11.3,136.0C5.1,136.0,.0,130.6,.0,124.0L.0,11.3C.0,5.1,5.1,.0,11.3,.0z"/><path stroke-width="2" fill="none" d="M11.3,.0L86.0,.0C92.6,.0,98.0,5.1,98.0,11.3L98.0,124.0C98.0,130.6,92.6,136.0,86.0,136.0L11.3,136.0C5.1,136.0,.0,130.6,.0,124.0L.0,11.3C.0,5.1,5.1,.0,11.3,.0zM.0,44.9L98.0,44.9L.0,44.9zM.0,90.7L98.0,90.7L.0,90.7z" stroke="#6a8438"/><text style="fill:#303030;font-family:Microsoft YaHei,PingFang SC,Mircrosoft YaHei,Arial;font-size:12.00pt" xml:space="preserve"><tspan y="28.7" style="font-family:Microsoft YaHei,PingFang SC,Mircrosoft YaHei,Arial" x="23.2">Cleavir</tspan></text><text style="fill:#303030;font-family:Microsoft YaHei,PingFang SC,Mircrosoft YaHei,Arial;font-size:8.00pt" xml:space="preserve"><tspan y="65.0" style="font-family:Microsoft YaHei,PingFang SC,Mircrosoft YaHei,Arial" x="25.0">Compiler </tspan><tspan y="80.0" style="font-family:Microsoft YaHei,PingFang SC,Mircrosoft YaHei,Arial" x="20.8">framework</tspan></text></g><g id="shape7" transform="translate(709.500000,423.013000)"><path fill="#b8e366" fill-rule="nonzero" d="M11.3,.0L86.0,.0C92.6,.0,98.0,5.1,98.0,11.3L98.0,124.0C98.0,130.6,92.6,136.0,86.0,136.0L11.3,136.0C5.1,136.0,.0,130.6,.0,124.0L.0,11.3C.0,5.1,5.1,.0,11.3,.0z"/><path stroke-width="2" fill="none" d="M11.3,.0L86.0,.0C92.6,.0,98.0,5.1,98.0,11.3L98.0,124.0C98.0,130.6,92.6,136.0,86.0,136.0L11.3,136.0C5.1,136.0,.0,130.6,.0,124.0L.0,11.3C.0,5.1,5.1,.0,11.3,.0zM.0,44.9L98.0,44.9L.0,44.9zM.0,90.7L98.0,90.7L.0,90.7z" stroke="#6a8438"/><text style="fill:#303030;font-family:Microsoft YaHei,PingFang SC,Mircrosoft YaHei,Arial;font-size:12.00pt" xml:space="preserve"><tspan y="28.7" style="font-family:Microsoft YaHei,PingFang SC,Mircrosoft YaHei,Arial" x="18.8">Eclector</tspan></text><text style="fill:#303030;font-family:Microsoft YaHei,PingFang SC,Mircrosoft YaHei,Arial;font-size:8.00pt" xml:space="preserve"><tspan y="72.5" style="font-family:Microsoft YaHei,PingFang SC,Mircrosoft YaHei,Arial" x="18.6">Lisp Reader</tspan></text></g><g id="shape8" transform="translate(277.000000,212.013000)"><path fill="#b8e366" fill-rule="nonzero" d="M11.3,.0L92.0,.0C98.6,.0,104.0,5.1,104.0,11.3L104.0,124.0C104.0,130.6,98.6,136.0,92.0,136.0L11.3,136.0C5.1,136.0,.0,130.6,.0,124.0L.0,11.3C.0,5.1,5.1,.0,11.3,.0z"/><path stroke-width="2" fill="none" d="M11.3,.0L92.0,.0C98.6,.0,104.0,5.1,104.0,11.3L104.0,124.0C104.0,130.6,98.6,136.0,92.0,136.0L11.3,136.0C5.1,136.0,.0,130.6,.0,124.0L.0,11.3C.0,5.1,5.1,.0,11.3,.0zM.0,44.9L104.0,44.9L.0,44.9zM.0,90.7L104.0,90.7L.0,90.7z" stroke="#6a8438"/><text style="fill:#303030;font-family:Microsoft YaHei,PingFang SC,Mircrosoft YaHei,Arial;font-size:12.00pt" xml:space="preserve"><tspan y="28.7" style="font-family:Microsoft YaHei,PingFang SC,Mircrosoft YaHei,Arial" x="8.2">Clordecone</tspan></text><text style="fill:#303030;font-family:Microsoft YaHei,PingFang SC,Mircrosoft YaHei,Arial;font-size:8.00pt" xml:space="preserve"><tspan y="72.5" style="font-family:Microsoft YaHei,PingFang SC,Mircrosoft YaHei,Arial" x="13.6">Lisp Debugger</tspan></text></g><g id="shape9" transform="translate(427.000000,423.013000)"><path fill="#b8e366" fill-rule="nonzero" d="M11.3,.0L86.0,.0C92.6,.0,98.0,5.1,98.0,11.3L98.0,124.0C98.0,130.6,92.6,136.0,86.0,136.0L11.3,136.0C5.1,136.0,.0,130.6,.0,124.0L.0,11.3C.0,5.1,5.1,.0,11.3,.0z"/><path stroke-width="2" fill="none" d="M11.3,.0L86.0,.0C92.6,.0,98.0,5.1,98.0,11.3L98.0,124.0C98.0,130.6,92.6,136.0,86.0,136.0L11.3,136.0C5.1,136.0,.0,130.6,.0,124.0L.0,11.3C.0,5.1,5.1,.0,11.3,.0zM.0,44.9L98.0,44.9L.0,44.9zM.0,90.7L98.0,90.7L.0,90.7z" stroke="#6a8438"/><text style="fill:#303030;font-family:Microsoft YaHei,PingFang SC,Mircrosoft YaHei,Arial;font-size:12.00pt" xml:space="preserve"><tspan y="28.7" style="font-family:Microsoft YaHei,PingFang SC,Mircrosoft YaHei,Arial" x="28.5">Clash</tspan></text><text style="fill:#303030;font-family:Microsoft YaHei,PingFang SC,Mircrosoft YaHei,Arial;font-size:8.00pt" xml:space="preserve"><tspan y="65.0" style="font-family:Microsoft YaHei,PingFang SC,Mircrosoft YaHei,Arial" x="26.6">Garbage </tspan><tspan y="80.0" style="font-family:Microsoft YaHei,PingFang SC,Mircrosoft YaHei,Arial" x="25.4">Collector</tspan></text></g><g id="shape10" transform="translate(165.274000,378.013000)"><path stroke-width="1" fill="none" d="M.0,.0L.0,-22.0" stroke="#6a8438"/><path stroke-linecap="round" stroke-width="1" fill="#6a8438" d="M-4.0,-22.0L.0,-30.0L4.0,-22.0L-4.0,-22.0" stroke="#6a8438"/></g><g id="shape11" transform="translate(88.000000,553.013000)"><path stroke-width="1" fill="none" d="M.0,.0L.0,-20.0L77.3,-20.0L77.3,-31.0" stroke="#6a8438"/><path stroke-linecap="round" stroke-width="1" fill="#6a8438" d="M73.3,-31.0L77.3,-39.0L81.3,-31.0L73.3,-31.0" stroke="#6a8438"/></g><g id="shape12" transform="translate(236.000000,553.013000)"><path stroke-width="1" fill="none" d="M.0,.0L.0,-20.0L-70.7,-20.0L-70.7,-31.0" stroke="#6a8438"/><path stroke-linecap="round" stroke-width="1" fill="#6a8438" d="M-74.7,-31.0L-70.7,-39.0L-66.7,-31.0L-74.7,-31.0" stroke="#6a8438"/></g><g id="shape13" transform="translate(165.274000,212.013000)"><path stroke-width="1" fill="none" d="M.0,.0L.0,-19.0L163.7,-19.0L163.7,-22.0" stroke="#6a8438"/><path stroke-linecap="round" stroke-width="1" fill="#6a8438" d="M159.7,-22.0L163.7,-30.0L167.7,-22.0L159.7,-22.0" stroke="#6a8438"/></g><g id="shape14" transform="translate(329.000000,212.013000)"><path stroke-width="1" fill="none" d="M.0,.0L.0,-22.0" stroke="#6a8438"/><path stroke-linecap="round" stroke-width="1" fill="#6a8438" d="M-4.0,-22.0L.0,-30.0L4.0,-22.0L-4.0,-22.0" stroke="#6a8438"/></g><g id="shape15" transform="translate(437.726000,212.013000)"><path fill="#b8e366" fill-rule="nonzero" d="M11.3,.0L86.0,.0C92.6,.0,98.0,5.1,98.0,11.3L98.0,124.0C98.0,130.6,92.6,136.0,86.0,136.0L11.3,136.0C5.1,136.0,.0,130.6,.0,124.0L.0,11.3C.0,5.1,5.1,.0,11.3,.0z"/><path stroke-width="2" fill="none" d="M11.3,.0L86.0,.0C92.6,.0,98.0,5.1,98.0,11.3L98.0,124.0C98.0,130.6,92.6,136.0,86.0,136.0L11.3,136.0C5.1,136.0,.0,130.6,.0,124.0L.0,11.3C.0,5.1,5.1,.0,11.3,.0zM.0,44.9L98.0,44.9L.0,44.9zM.0,90.7L98.0,90.7L.0,90.7z" stroke="#6a8438"/><text style="fill:#303030;font-family:Microsoft YaHei,PingFang SC,Mircrosoft YaHei,Arial;font-size:12.00pt" xml:space="preserve"><tspan y="28.7" style="font-family:Microsoft YaHei,PingFang SC,Mircrosoft YaHei,Arial" x="21.6">Tazivor</tspan></text><text style="fill:#303030;font-family:Microsoft YaHei,PingFang SC,Mircrosoft YaHei,Arial;font-size:12.00pt" xml:space="preserve"><tspan y="74.0" style="font-family:Microsoft YaHei,PingFang SC,Mircrosoft YaHei,Arial" x="13.2">Inspector</tspan></text></g><g id="shape16" transform="translate(486.726000,212.013000)"><path stroke-width="1" fill="none" d="M.0,.0L.0,-19.0L-157.7,-19.0L-157.7,-22.0" stroke="#6a8438"/><path stroke-linecap="round" stroke-width="1" fill="#6a8438" d="M-161.7,-22.0L-157.7,-30.0L-153.7,-22.0L-161.7,-22.0" stroke="#6a8438"/></g><g id="shape17" transform="translate(755.375000,423.013000)"><path stroke-width="1" fill="none" d="M.0,.0L.0,-309.0L-369.4,-309.0" stroke="#6a8438"/><path stroke-linecap="round" stroke-width="1" fill="#6a8438" d="M-369.4,-305.0L-377.4,-309.0L-369.4,-313.0L-369.4,-305.0" stroke="#6a8438"/></g><g id="shape18" transform="translate(476.000000,423.013000)"><path stroke-width="1" fill="none" d="M.0,.0L.0,-28.0L101.2,-28.0L101.2,-309.0L-90.0,-309.0" stroke="#6a8438"/><path stroke-linecap="round" stroke-width="1" fill="#6a8438" d="M-90.0,-305.0L-98.0,-309.0L-90.0,-313.0L-90.0,-305.0" stroke="#6a8438"/></g><g id="shape19" transform="translate(614.500000,423.013000)"><path stroke-width="1" fill="none" d="M.0,.0L.0,-309.0L-228.5,-309.0" stroke="#6a8438"/><path stroke-linecap="round" stroke-width="1" fill="#6a8438" d="M-228.5,-305.0L-236.5,-309.0L-228.5,-313.0L-228.5,-305.0" stroke="#6a8438"/></g></g></svg>