<svg xmlns:xlink="http://www.w3.org/1999/xlink" width="852" xmlns="http://www.w3.org/2000/svg" height="738" xmlns:ev="http://www.w3.org/2001/xml-events" viewBox="0 0 852 738"><defs/><g transform="translate(5.5,5.5)" id="page1"><rect fill="#ffffff" width="842" y="0" height="728" x="0"/><g transform="translate(201.000000,39.013000)" id="shape1"><path fill="#b8e366" fill-rule="nonzero" d="M11.3,.0L86.0,.0C92.6,.0,98.0,5.1,98.0,11.3L98.0,124.0C98.0,130.6,92.6,136.0,86.0,136.0L11.3,136.0C5.1,136.0,.0,130.6,.0,124.0L.0,11.3C.0,5.1,5.1,.0,11.3,.0z"/><path fill="none" stroke-width="2" d="M11.3,.0L86.0,.0C92.6,.0,98.0,5.1,98.0,11.3L98.0,124.0C98.0,130.6,92.6,136.0,86.0,136.0L11.3,136.0C5.1,136.0,.0,130.6,.0,124.0L.0,11.3C.0,5.1,5.1,.0,11.3,.0zM.0,44.9L98.0,44.9L.0,44.9zM.0,90.7L98.0,90.7L.0,90.7z" stroke="#6a8438"/><text xml:space="preserve" style="fill:#303030;font-family:Microsoft YaHei,PingFang SC,Mircrosoft YaHei,Arial;font-size:12.00pt"><tspan y="28.7" style="font-family:Microsoft YaHei,PingFang SC,Mircrosoft YaHei,Arial" x="32.6">SICL</tspan></text></g><g transform="translate(116.274000,378.013000)" id="shape2"><path fill="#b8e366" fill-rule="nonzero" d="M11.3,.0L86.0,.0C92.6,.0,98.0,5.1,98.0,11.3L98.0,124.0C98.0,130.6,92.6,136.0,86.0,136.0L11.3,136.0C5.1,136.0,.0,130.6,.0,124.0L.0,11.3C.0,5.1,5.1,.0,11.3,.0z"/><path fill="none" stroke-width="2" d="M11.3,.0L86.0,.0C92.6,.0,98.0,5.1,98.0,11.3L98.0,124.0C98.0,130.6,92.6,136.0,86.0,136.0L11.3,136.0C5.1,136.0,.0,130.6,.0,124.0L.0,11.3C.0,5.1,5.1,.0,11.3,.0zM.0,44.9L98.0,44.9L.0,44.9zM.0,90.7L98.0,90.7L.0,90.7z" stroke="#6a8438"/><text xml:space="preserve" style="fill:#303030;font-family:Microsoft YaHei,PingFang SC,Mircrosoft YaHei,Arial;font-size:12.00pt"><tspan y="28.7" style="font-family:Microsoft YaHei,PingFang SC,Mircrosoft YaHei,Arial" x="15.6">Clappers</tspan></text><text xml:space="preserve" style="fill:#303030;font-family:Microsoft YaHei,PingFang SC,Mircrosoft YaHei,Arial;font-size:8.00pt"><tspan y="65.0" style="font-family:Microsoft YaHei,PingFang SC,Mircrosoft YaHei,Arial" x="9.0">SSA optimizing </tspan><tspan y="80.0" style="font-family:Microsoft YaHei,PingFang SC,Mircrosoft YaHei,Arial" x="26.0">compiler</tspan></text></g><g transform="translate(187.000000,553.013000)" id="shape3"><path fill="#b8e366" fill-rule="nonzero" d="M11.3,.0L86.0,.0C92.6,.0,98.0,5.1,98.0,11.3L98.0,124.0C98.0,130.6,92.6,136.0,86.0,136.0L11.3,136.0C5.1,136.0,.0,130.6,.0,124.0L.0,11.3C.0,5.1,5.1,.0,11.3,.0z"/><path fill="none" stroke-width="2" d="M11.3,.0L86.0,.0C92.6,.0,98.0,5.1,98.0,11.3L98.0,124.0C98.0,130.6,92.6,136.0,86.0,136.0L11.3,136.0C5.1,136.0,.0,130.6,.0,124.0L.0,11.3C.0,5.1,5.1,.0,11.3,.0zM.0,44.9L98.0,44.9L.0,44.9zM.0,90.7L98.0,90.7L.0,90.7z" stroke="#6a8438"/><text xml:space="preserve" style="fill:#303030;font-family:Microsoft YaHei,PingFang SC,Mircrosoft YaHei,Arial;font-size:12.00pt"><tspan y="28.7" style="font-family:Microsoft YaHei,PingFang SC,Mircrosoft YaHei,Arial" x="21.9">Clector</tspan></text><text xml:space="preserve" style="fill:#303030;font-family:Microsoft YaHei,PingFang SC,Mircrosoft YaHei,Arial;font-size:8.00pt"><tspan y="57.5" style="font-family:Microsoft YaHei,PingFang SC,Mircrosoft YaHei,Arial" x="24.2">SSE, AVX, </tspan><tspan y="72.5" style="font-family:Microsoft YaHei,PingFang SC,Mircrosoft YaHei,Arial" x="13.0">Neon.. Vector </tspan><tspan y="87.5" style="font-family:Microsoft YaHei,PingFang SC,Mircrosoft YaHei,Arial" x="31.8">Fusion</tspan></text></g><g transform="translate(39.000000,553.013000)" id="shape4"><path fill="#b8e366" fill-rule="nonzero" d="M11.3,.0L86.0,.0C92.6,.0,98.0,5.1,98.0,11.3L98.0,124.0C98.0,130.6,92.6,136.0,86.0,136.0L11.3,136.0C5.1,136.0,.0,130.6,.0,124.0L.0,11.3C.0,5.1,5.1,.0,11.3,.0z"/><path fill="none" stroke-width="2" d="M11.3,.0L86.0,.0C92.6,.0,98.0,5.1,98.0,11.3L98.0,124.0C98.0,130.6,92.6,136.0,86.0,136.0L11.3,136.0C5.1,136.0,.0,130.6,.0,124.0L.0,11.3C.0,5.1,5.1,.0,11.3,.0zM.0,44.9L98.0,44.9L.0,44.9zM.0,90.7L98.0,90.7L.0,90.7z" stroke="#6a8438"/><text xml:space="preserve" style="fill:#303030;font-family:Microsoft YaHei,PingFang SC,Mircrosoft YaHei,Arial;font-size:12.00pt"><tspan y="28.7" style="font-family:Microsoft YaHei,PingFang SC,Mircrosoft YaHei,Arial" x="24.9">Massa</tspan></text><text xml:space="preserve" style="fill:#303030;font-family:Microsoft YaHei,PingFang SC,Mircrosoft YaHei,Arial;font-size:8.00pt"><tspan y="65.0" style="font-family:Microsoft YaHei,PingFang SC,Mircrosoft YaHei,Arial" x="13.7">SSA structure </tspan><tspan y="80.0" style="font-family:Microsoft YaHei,PingFang SC,Mircrosoft YaHei,Arial" x="14.2">and methods</tspan></text></g><g transform="translate(561.000000,92.013000)" id="shape5"><path fill="#b8e366" fill-rule="nonzero" d="M11.3,.0L86.0,.0C92.6,.0,98.0,5.1,98.0,11.3L98.0,124.0C98.0,130.6,92.6,136.0,86.0,136.0L11.3,136.0C5.1,136.0,.0,130.6,.0,124.0L.0,11.3C.0,5.1,5.1,.0,11.3,.0z"/><path fill="none" stroke-width="2" d="M11.3,.0L86.0,.0C92.6,.0,98.0,5.1,98.0,11.3L98.0,124.0C98.0,130.6,92.6,136.0,86.0,136.0L11.3,136.0C5.1,136.0,.0,130.6,.0,124.0L.0,11.3C.0,5.1,5.1,.0,11.3,.0zM.0,44.9L98.0,44.9L.0,44.9zM.0,90.7L98.0,90.7L.0,90.7z" stroke="#6a8438"/><text xml:space="preserve" style="fill:#303030;font-family:Microsoft YaHei,PingFang SC,Mircrosoft YaHei,Arial;font-size:12.00pt"><tspan y="28.7" style="font-family:Microsoft YaHei,PingFang SC,Mircrosoft YaHei,Arial" x="14.3">Clostrum</tspan></text><text xml:space="preserve" style="fill:#303030;font-family:Microsoft YaHei,PingFang SC,Mircrosoft YaHei,Arial;font-size:8.00pt"><tspan y="65.0" style="font-family:Microsoft YaHei,PingFang SC,Mircrosoft YaHei,Arial" x="32.0">Global </tspan><tspan y="80.0" style="font-family:Microsoft YaHei,PingFang SC,Mircrosoft YaHei,Arial" x="15.5">environment</tspan></text></g><g transform="translate(116.274000,212.013000)" id="shape6"><path fill="#b8e366" fill-rule="nonzero" d="M11.3,.0L86.0,.0C92.6,.0,98.0,5.1,98.0,11.3L98.0,124.0C98.0,130.6,92.6,136.0,86.0,136.0L11.3,136.0C5.1,136.0,.0,130.6,.0,124.0L.0,11.3C.0,5.1,5.1,.0,11.3,.0z"/><path fill="none" stroke-width="2" d="M11.3,.0L86.0,.0C92.6,.0,98.0,5.1,98.0,11.3L98.0,124.0C98.0,130.6,92.6,136.0,86.0,136.0L11.3,136.0C5.1,136.0,.0,130.6,.0,124.0L.0,11.3C.0,5.1,5.1,.0,11.3,.0zM.0,44.9L98.0,44.9L.0,44.9zM.0,90.7L98.0,90.7L.0,90.7z" stroke="#6a8438"/><text xml:space="preserve" style="fill:#303030;font-family:Microsoft YaHei,PingFang SC,Mircrosoft YaHei,Arial;font-size:12.00pt"><tspan y="28.7" style="font-family:Microsoft YaHei,PingFang SC,Mircrosoft YaHei,Arial" x="23.2">Cleavir</tspan></text><text xml:space="preserve" style="fill:#303030;font-family:Microsoft YaHei,PingFang SC,Mircrosoft YaHei,Arial;font-size:8.00pt"><tspan y="65.0" style="font-family:Microsoft YaHei,PingFang SC,Mircrosoft YaHei,Arial" x="25.0">Compiler </tspan><tspan y="80.0" style="font-family:Microsoft YaHei,PingFang SC,Mircrosoft YaHei,Arial" x="20.8">framework</tspan></text></g><g transform="translate(705.000000,92.013000)" id="shape7"><path fill="#b8e366" fill-rule="nonzero" d="M11.3,.0L86.0,.0C92.6,.0,98.0,5.1,98.0,11.3L98.0,124.0C98.0,130.6,92.6,136.0,86.0,136.0L11.3,136.0C5.1,136.0,.0,130.6,.0,124.0L.0,11.3C.0,5.1,5.1,.0,11.3,.0z"/><path fill="none" stroke-width="2" d="M11.3,.0L86.0,.0C92.6,.0,98.0,5.1,98.0,11.3L98.0,124.0C98.0,130.6,92.6,136.0,86.0,136.0L11.3,136.0C5.1,136.0,.0,130.6,.0,124.0L.0,11.3C.0,5.1,5.1,.0,11.3,.0zM.0,44.9L98.0,44.9L.0,44.9zM.0,90.7L98.0,90.7L.0,90.7z" stroke="#6a8438"/><text xml:space="preserve" style="fill:#303030;font-family:Microsoft YaHei,PingFang SC,Mircrosoft YaHei,Arial;font-size:12.00pt"><tspan y="28.7" style="font-family:Microsoft YaHei,PingFang SC,Mircrosoft YaHei,Arial" x="18.8">Eclector</tspan></text><text xml:space="preserve" style="fill:#303030;font-family:Microsoft YaHei,PingFang SC,Mircrosoft YaHei,Arial;font-size:8.00pt"><tspan y="72.5" style="font-family:Microsoft YaHei,PingFang SC,Mircrosoft YaHei,Arial" x="18.6">Lisp Reader</tspan></text></g><g transform="translate(274.000000,212.013000)" id="shape8"><path fill="#b8e366" fill-rule="nonzero" d="M11.3,.0L92.0,.0C98.6,.0,104.0,5.1,104.0,11.3L104.0,124.0C104.0,130.6,98.6,136.0,92.0,136.0L11.3,136.0C5.1,136.0,.0,130.6,.0,124.0L.0,11.3C.0,5.1,5.1,.0,11.3,.0z"/><path fill="none" stroke-width="2" d="M11.3,.0L92.0,.0C98.6,.0,104.0,5.1,104.0,11.3L104.0,124.0C104.0,130.6,98.6,136.0,92.0,136.0L11.3,136.0C5.1,136.0,.0,130.6,.0,124.0L.0,11.3C.0,5.1,5.1,.0,11.3,.0zM.0,44.9L104.0,44.9L.0,44.9zM.0,90.7L104.0,90.7L.0,90.7z" stroke="#6a8438"/><text xml:space="preserve" style="fill:#303030;font-family:Microsoft YaHei,PingFang SC,Mircrosoft YaHei,Arial;font-size:12.00pt"><tspan y="28.7" style="font-family:Microsoft YaHei,PingFang SC,Mircrosoft YaHei,Arial" x="8.2">Clordecone</tspan></text><text xml:space="preserve" style="fill:#303030;font-family:Microsoft YaHei,PingFang SC,Mircrosoft YaHei,Arial;font-size:8.00pt"><tspan y="72.5" style="font-family:Microsoft YaHei,PingFang SC,Mircrosoft YaHei,Arial" x="13.6">Lisp Debugger</tspan></text></g><g transform="translate(422.500000,92.013000)" id="shape9"><path fill="#b8e366" fill-rule="nonzero" d="M11.3,.0L86.0,.0C92.6,.0,98.0,5.1,98.0,11.3L98.0,124.0C98.0,130.6,92.6,136.0,86.0,136.0L11.3,136.0C5.1,136.0,.0,130.6,.0,124.0L.0,11.3C.0,5.1,5.1,.0,11.3,.0z"/><path fill="none" stroke-width="2" d="M11.3,.0L86.0,.0C92.6,.0,98.0,5.1,98.0,11.3L98.0,124.0C98.0,130.6,92.6,136.0,86.0,136.0L11.3,136.0C5.1,136.0,.0,130.6,.0,124.0L.0,11.3C.0,5.1,5.1,.0,11.3,.0zM.0,44.9L98.0,44.9L.0,44.9zM.0,90.7L98.0,90.7L.0,90.7z" stroke="#6a8438"/><text xml:space="preserve" style="fill:#303030;font-family:Microsoft YaHei,PingFang SC,Mircrosoft YaHei,Arial;font-size:12.00pt"><tspan y="28.7" style="font-family:Microsoft YaHei,PingFang SC,Mircrosoft YaHei,Arial" x="28.5">Clash</tspan></text><text xml:space="preserve" style="fill:#303030;font-family:Microsoft YaHei,PingFang SC,Mircrosoft YaHei,Arial;font-size:8.00pt"><tspan y="65.0" style="font-family:Microsoft YaHei,PingFang SC,Mircrosoft YaHei,Arial" x="26.6">Garbage </tspan><tspan y="80.0" style="font-family:Microsoft YaHei,PingFang SC,Mircrosoft YaHei,Arial" x="25.4">Collector</tspan></text></g><g transform="translate(471.500000,92.013000)" id="shape10"><path fill="none" stroke-width="1" d="M.0,.0L.0,-20.0" stroke="#6a8438"/><path stroke-linecap="round" fill="#6a8438" stroke-width="1" d="M-4.0,-20.0L.0,-28.0L4.0,-20.0L-4.0,-20.0" stroke="#6a8438"/></g><g transform="translate(610.000000,92.013000)" id="shape11"><path fill="none" stroke-width="1" d="M.0,.0L.0,-20.0" stroke="#6a8438"/><path stroke-linecap="round" fill="#6a8438" stroke-width="1" d="M-4.0,-20.0L.0,-28.0L4.0,-20.0L-4.0,-20.0" stroke="#6a8438"/></g><g transform="translate(754.000000,92.013000)" id="shape12"><path fill="none" stroke-width="1" d="M.0,.0L.0,-28.0L-427.0,-28.0L-427.0,15.0L-447.0,15.0" stroke="#6a8438"/><path stroke-linecap="round" fill="#6a8438" stroke-width="1" d="M-447.0,19.0L-455.0,15.0L-447.0,11.0L-447.0,19.0" stroke="#6a8438"/></g><g transform="translate(165.274000,378.013000)" id="shape13"><path fill="none" stroke-width="1" d="M.0,.0L.0,-22.0" stroke="#6a8438"/><path stroke-linecap="round" fill="#6a8438" stroke-width="1" d="M-4.0,-22.0L.0,-30.0L4.0,-22.0L-4.0,-22.0" stroke="#6a8438"/></g><g transform="translate(88.000000,553.013000)" id="shape14"><path fill="none" stroke-width="1" d="M.0,.0L.0,-20.0L77.3,-20.0L77.3,-31.0" stroke="#6a8438"/><path stroke-linecap="round" fill="#6a8438" stroke-width="1" d="M73.3,-31.0L77.3,-39.0L81.3,-31.0L73.3,-31.0" stroke="#6a8438"/></g><g transform="translate(236.000000,553.013000)" id="shape15"><path fill="none" stroke-width="1" d="M.0,.0L.0,-20.0L-70.7,-20.0L-70.7,-31.0" stroke="#6a8438"/><path stroke-linecap="round" fill="#6a8438" stroke-width="1" d="M-74.7,-31.0L-70.7,-39.0L-66.7,-31.0L-74.7,-31.0" stroke="#6a8438"/></g><g transform="translate(165.274000,212.013000)" id="shape16"><path fill="none" stroke-width="1" d="M.0,.0L.0,-19.0L84.7,-19.0L84.7,-29.0" stroke="#6a8438"/><path stroke-linecap="round" fill="#6a8438" stroke-width="1" d="M80.7,-29.0L84.7,-37.0L88.7,-29.0L80.7,-29.0" stroke="#6a8438"/></g><g transform="translate(326.000000,212.013000)" id="shape17"><path fill="none" stroke-width="1" d="M.0,.0L.0,-19.0L-76.0,-19.0L-76.0,-29.0" stroke="#6a8438"/><path stroke-linecap="round" fill="#6a8438" stroke-width="1" d="M-80.0,-29.0L-76.0,-37.0L-72.0,-29.0L-80.0,-29.0" stroke="#6a8438"/></g></g></svg>