<svg xmlns="http://www.w3.org/2000/svg" xmlns:ev="http://www.w3.org/2001/xml-events" height="738" xmlns:xlink="http://www.w3.org/1999/xlink" viewBox="0 0 852 738" width="852"><defs/><g transform="translate(5.5,5.5)" id="page1"><rect x="0" height="728" width="842" y="0" fill="#ffffff"/><g transform="translate(201.000000,39.013000)" id="shape1"><path fill-rule="nonzero" d="M11.3,.0L86.0,.0C92.6,.0,98.0,5.1,98.0,11.3L98.0,124.0C98.0,130.6,92.6,136.0,86.0,136.0L11.3,136.0C5.1,136.0,.0,130.6,.0,124.0L.0,11.3C.0,5.1,5.1,.0,11.3,.0z" fill="#b8e366"/><path stroke-width="2" stroke="#6a8438" d="M11.3,.0L86.0,.0C92.6,.0,98.0,5.1,98.0,11.3L98.0,124.0C98.0,130.6,92.6,136.0,86.0,136.0L11.3,136.0C5.1,136.0,.0,130.6,.0,124.0L.0,11.3C.0,5.1,5.1,.0,11.3,.0zM.0,44.9L98.0,44.9L.0,44.9zM.0,90.7L98.0,90.7L.0,90.7z" fill="none"/><text xml:space="preserve" style="fill:#303030;font-family:Microsoft YaHei,PingFang SC,Mircrosoft YaHei,Arial;font-size:12.00pt"><tspan x="32.6" style="font-family:Microsoft YaHei,PingFang SC,Mircrosoft YaHei,Arial" y="28.7">SICL</tspan></text></g><g transform="translate(116.274000,378.013000)" id="shape2"><path fill-rule="nonzero" d="M11.3,.0L86.0,.0C92.6,.0,98.0,5.1,98.0,11.3L98.0,124.0C98.0,130.6,92.6,136.0,86.0,136.0L11.3,136.0C5.1,136.0,.0,130.6,.0,124.0L.0,11.3C.0,5.1,5.1,.0,11.3,.0z" fill="#b8e366"/><path stroke-width="2" stroke="#6a8438" d="M11.3,.0L86.0,.0C92.6,.0,98.0,5.1,98.0,11.3L98.0,124.0C98.0,130.6,92.6,136.0,86.0,136.0L11.3,136.0C5.1,136.0,.0,130.6,.0,124.0L.0,11.3C.0,5.1,5.1,.0,11.3,.0zM.0,44.9L98.0,44.9L.0,44.9zM.0,90.7L98.0,90.7L.0,90.7z" fill="none"/><text xml:space="preserve" style="fill:#303030;font-family:Microsoft YaHei,PingFang SC,Mircrosoft YaHei,Arial;font-size:12.00pt"><tspan x="15.6" style="font-family:Microsoft YaHei,PingFang SC,Mircrosoft YaHei,Arial" y="28.7">Clappers</tspan></text><text xml:space="preserve" style="fill:#303030;font-family:Microsoft YaHei,PingFang SC,Mircrosoft YaHei,Arial;font-size:8.00pt"><tspan x="9.0" style="font-family:Microsoft YaHei,PingFang SC,Mircrosoft YaHei,Arial" y="65.0">SSA optimizing </tspan><tspan x="26.0" style="font-family:Microsoft YaHei,PingFang SC,Mircrosoft YaHei,Arial" y="80.0">compiler</tspan></text></g><g transform="translate(187.000000,553.013000)" id="shape3"><path fill-rule="nonzero" d="M11.3,.0L86.0,.0C92.6,.0,98.0,5.1,98.0,11.3L98.0,124.0C98.0,130.6,92.6,136.0,86.0,136.0L11.3,136.0C5.1,136.0,.0,130.6,.0,124.0L.0,11.3C.0,5.1,5.1,.0,11.3,.0z" fill="#b8e366"/><path stroke-width="2" stroke="#6a8438" d="M11.3,.0L86.0,.0C92.6,.0,98.0,5.1,98.0,11.3L98.0,124.0C98.0,130.6,92.6,136.0,86.0,136.0L11.3,136.0C5.1,136.0,.0,130.6,.0,124.0L.0,11.3C.0,5.1,5.1,.0,11.3,.0zM.0,44.9L98.0,44.9L.0,44.9zM.0,90.7L98.0,90.7L.0,90.7z" fill="none"/><text xml:space="preserve" style="fill:#303030;font-family:Microsoft YaHei,PingFang SC,Mircrosoft YaHei,Arial;font-size:12.00pt"><tspan x="21.9" style="font-family:Microsoft YaHei,PingFang SC,Mircrosoft YaHei,Arial" y="28.7">Clector</tspan></text><text xml:space="preserve" style="fill:#303030;font-family:Microsoft YaHei,PingFang SC,Mircrosoft YaHei,Arial;font-size:8.00pt"><tspan x="24.2" style="font-family:Microsoft YaHei,PingFang SC,Mircrosoft YaHei,Arial" y="57.5">SSE, AVX, </tspan><tspan x="13.0" style="font-family:Microsoft YaHei,PingFang SC,Mircrosoft YaHei,Arial" y="72.5">Neon.. Vector </tspan><tspan x="31.8" style="font-family:Microsoft YaHei,PingFang SC,Mircrosoft YaHei,Arial" y="87.5">Fusion</tspan></text></g><g transform="translate(39.000000,553.013000)" id="shape4"><path fill-rule="nonzero" d="M11.3,.0L86.0,.0C92.6,.0,98.0,5.1,98.0,11.3L98.0,124.0C98.0,130.6,92.6,136.0,86.0,136.0L11.3,136.0C5.1,136.0,.0,130.6,.0,124.0L.0,11.3C.0,5.1,5.1,.0,11.3,.0z" fill="#b8e366"/><path stroke-width="2" stroke="#6a8438" d="M11.3,.0L86.0,.0C92.6,.0,98.0,5.1,98.0,11.3L98.0,124.0C98.0,130.6,92.6,136.0,86.0,136.0L11.3,136.0C5.1,136.0,.0,130.6,.0,124.0L.0,11.3C.0,5.1,5.1,.0,11.3,.0zM.0,44.9L98.0,44.9L.0,44.9zM.0,90.7L98.0,90.7L.0,90.7z" fill="none"/><text xml:space="preserve" style="fill:#303030;font-family:Microsoft YaHei,PingFang SC,Mircrosoft YaHei,Arial;font-size:12.00pt"><tspan x="24.9" style="font-family:Microsoft YaHei,PingFang SC,Mircrosoft YaHei,Arial" y="28.7">Massa</tspan></text><text xml:space="preserve" style="fill:#303030;font-family:Microsoft YaHei,PingFang SC,Mircrosoft YaHei,Arial;font-size:8.00pt"><tspan x="13.7" style="font-family:Microsoft YaHei,PingFang SC,Mircrosoft YaHei,Arial" y="65.0">SSA structure </tspan><tspan x="14.2" style="font-family:Microsoft YaHei,PingFang SC,Mircrosoft YaHei,Arial" y="80.0">and methods</tspan></text></g><g transform="translate(561.000000,92.013000)" id="shape5"><path fill-rule="nonzero" d="M11.3,.0L86.0,.0C92.6,.0,98.0,5.1,98.0,11.3L98.0,124.0C98.0,130.6,92.6,136.0,86.0,136.0L11.3,136.0C5.1,136.0,.0,130.6,.0,124.0L.0,11.3C.0,5.1,5.1,.0,11.3,.0z" fill="#b8e366"/><path stroke-width="2" stroke="#6a8438" d="M11.3,.0L86.0,.0C92.6,.0,98.0,5.1,98.0,11.3L98.0,124.0C98.0,130.6,92.6,136.0,86.0,136.0L11.3,136.0C5.1,136.0,.0,130.6,.0,124.0L.0,11.3C.0,5.1,5.1,.0,11.3,.0zM.0,44.9L98.0,44.9L.0,44.9zM.0,90.7L98.0,90.7L.0,90.7z" fill="none"/><text xml:space="preserve" style="fill:#303030;font-family:Microsoft YaHei,PingFang SC,Mircrosoft YaHei,Arial;font-size:12.00pt"><tspan x="14.3" style="font-family:Microsoft YaHei,PingFang SC,Mircrosoft YaHei,Arial" y="28.7">Clostrum</tspan></text><text xml:space="preserve" style="fill:#303030;font-family:Microsoft YaHei,PingFang SC,Mircrosoft YaHei,Arial;font-size:8.00pt"><tspan x="32.0" style="font-family:Microsoft YaHei,PingFang SC,Mircrosoft YaHei,Arial" y="65.0">Global </tspan><tspan x="15.5" style="font-family:Microsoft YaHei,PingFang SC,Mircrosoft YaHei,Arial" y="80.0">environment</tspan></text></g><g transform="translate(116.274000,212.013000)" id="shape6"><path fill-rule="nonzero" d="M11.3,.0L86.0,.0C92.6,.0,98.0,5.1,98.0,11.3L98.0,124.0C98.0,130.6,92.6,136.0,86.0,136.0L11.3,136.0C5.1,136.0,.0,130.6,.0,124.0L.0,11.3C.0,5.1,5.1,.0,11.3,.0z" fill="#b8e366"/><path stroke-width="2" stroke="#6a8438" d="M11.3,.0L86.0,.0C92.6,.0,98.0,5.1,98.0,11.3L98.0,124.0C98.0,130.6,92.6,136.0,86.0,136.0L11.3,136.0C5.1,136.0,.0,130.6,.0,124.0L.0,11.3C.0,5.1,5.1,.0,11.3,.0zM.0,44.9L98.0,44.9L.0,44.9zM.0,90.7L98.0,90.7L.0,90.7z" fill="none"/><text xml:space="preserve" style="fill:#303030;font-family:Microsoft YaHei,PingFang SC,Mircrosoft YaHei,Arial;font-size:12.00pt"><tspan x="23.2" style="font-family:Microsoft YaHei,PingFang SC,Mircrosoft YaHei,Arial" y="28.7">Cleavir</tspan></text><text xml:space="preserve" style="fill:#303030;font-family:Microsoft YaHei,PingFang SC,Mircrosoft YaHei,Arial;font-size:8.00pt"><tspan x="25.0" style="font-family:Microsoft YaHei,PingFang SC,Mircrosoft YaHei,Arial" y="65.0">Compiler </tspan><tspan x="20.8" style="font-family:Microsoft YaHei,PingFang SC,Mircrosoft YaHei,Arial" y="80.0">framework</tspan></text></g><g transform="translate(705.000000,92.013000)" id="shape7"><path fill-rule="nonzero" d="M11.3,.0L86.0,.0C92.6,.0,98.0,5.1,98.0,11.3L98.0,124.0C98.0,130.6,92.6,136.0,86.0,136.0L11.3,136.0C5.1,136.0,.0,130.6,.0,124.0L.0,11.3C.0,5.1,5.1,.0,11.3,.0z" fill="#b8e366"/><path stroke-width="2" stroke="#6a8438" d="M11.3,.0L86.0,.0C92.6,.0,98.0,5.1,98.0,11.3L98.0,124.0C98.0,130.6,92.6,136.0,86.0,136.0L11.3,136.0C5.1,136.0,.0,130.6,.0,124.0L.0,11.3C.0,5.1,5.1,.0,11.3,.0zM.0,44.9L98.0,44.9L.0,44.9zM.0,90.7L98.0,90.7L.0,90.7z" fill="none"/><text xml:space="preserve" style="fill:#303030;font-family:Microsoft YaHei,PingFang SC,Mircrosoft YaHei,Arial;font-size:12.00pt"><tspan x="18.8" style="font-family:Microsoft YaHei,PingFang SC,Mircrosoft YaHei,Arial" y="28.7">Eclector</tspan></text><text xml:space="preserve" style="fill:#303030;font-family:Microsoft YaHei,PingFang SC,Mircrosoft YaHei,Arial;font-size:8.00pt"><tspan x="18.6" style="font-family:Microsoft YaHei,PingFang SC,Mircrosoft YaHei,Arial" y="72.5">Lisp Reader</tspan></text></g><g transform="translate(274.000000,212.013000)" id="shape8"><path fill-rule="nonzero" d="M11.3,.0L86.0,.0C92.6,.0,98.0,5.1,98.0,11.3L98.0,124.0C98.0,130.6,92.6,136.0,86.0,136.0L11.3,136.0C5.1,136.0,.0,130.6,.0,124.0L.0,11.3C.0,5.1,5.1,.0,11.3,.0z" fill="#b8e366"/><path stroke-width="2" stroke="#6a8438" d="M11.3,.0L86.0,.0C92.6,.0,98.0,5.1,98.0,11.3L98.0,124.0C98.0,130.6,92.6,136.0,86.0,136.0L11.3,136.0C5.1,136.0,.0,130.6,.0,124.0L.0,11.3C.0,5.1,5.1,.0,11.3,.0zM.0,44.9L98.0,44.9L.0,44.9zM.0,90.7L98.0,90.7L.0,90.7z" fill="none"/><text xml:space="preserve" style="fill:#303030;font-family:Microsoft YaHei,PingFang SC,Mircrosoft YaHei,Arial;font-size:12.00pt"><tspan x="24.6" style="font-family:Microsoft YaHei,PingFang SC,Mircrosoft YaHei,Arial" y="28.7">Clover</tspan></text><text xml:space="preserve" style="fill:#303030;font-family:Microsoft YaHei,PingFang SC,Mircrosoft YaHei,Arial;font-size:8.00pt"><tspan x="10.6" style="font-family:Microsoft YaHei,PingFang SC,Mircrosoft YaHei,Arial" y="72.5">Lisp Debugger</tspan></text></g><g transform="translate(422.500000,92.013000)" id="shape9"><path fill-rule="nonzero" d="M11.3,.0L86.0,.0C92.6,.0,98.0,5.1,98.0,11.3L98.0,124.0C98.0,130.6,92.6,136.0,86.0,136.0L11.3,136.0C5.1,136.0,.0,130.6,.0,124.0L.0,11.3C.0,5.1,5.1,.0,11.3,.0z" fill="#b8e366"/><path stroke-width="2" stroke="#6a8438" d="M11.3,.0L86.0,.0C92.6,.0,98.0,5.1,98.0,11.3L98.0,124.0C98.0,130.6,92.6,136.0,86.0,136.0L11.3,136.0C5.1,136.0,.0,130.6,.0,124.0L.0,11.3C.0,5.1,5.1,.0,11.3,.0zM.0,44.9L98.0,44.9L.0,44.9zM.0,90.7L98.0,90.7L.0,90.7z" fill="none"/><text xml:space="preserve" style="fill:#303030;font-family:Microsoft YaHei,PingFang SC,Mircrosoft YaHei,Arial;font-size:12.00pt"><tspan x="28.5" style="font-family:Microsoft YaHei,PingFang SC,Mircrosoft YaHei,Arial" y="28.7">Clash</tspan></text><text xml:space="preserve" style="fill:#303030;font-family:Microsoft YaHei,PingFang SC,Mircrosoft YaHei,Arial;font-size:8.00pt"><tspan x="26.6" style="font-family:Microsoft YaHei,PingFang SC,Mircrosoft YaHei,Arial" y="65.0">Garbage </tspan><tspan x="25.4" style="font-family:Microsoft YaHei,PingFang SC,Mircrosoft YaHei,Arial" y="80.0">Collector</tspan></text></g><g transform="translate(471.500000,92.013000)" id="shape10"><path stroke-width="1" stroke="#6a8438" d="M.0,.0L.0,-20.0" fill="none"/><path stroke-width="1" stroke="#6a8438" stroke-linecap="round" d="M-4.0,-20.0L.0,-28.0L4.0,-20.0L-4.0,-20.0" fill="#6a8438"/></g><g transform="translate(610.000000,92.013000)" id="shape11"><path stroke-width="1" stroke="#6a8438" d="M.0,.0L.0,-20.0" fill="none"/><path stroke-width="1" stroke="#6a8438" stroke-linecap="round" d="M-4.0,-20.0L.0,-28.0L4.0,-20.0L-4.0,-20.0" fill="#6a8438"/></g><g transform="translate(754.000000,92.013000)" id="shape12"><path stroke-width="1" stroke="#6a8438" d="M.0,.0L.0,-28.0L-427.0,-28.0L-427.0,15.0L-447.0,15.0" fill="none"/><path stroke-width="1" stroke="#6a8438" stroke-linecap="round" d="M-447.0,19.0L-455.0,15.0L-447.0,11.0L-447.0,19.0" fill="#6a8438"/></g><g transform="translate(165.274000,378.013000)" id="shape13"><path stroke-width="1" stroke="#6a8438" d="M.0,.0L.0,-22.0" fill="none"/><path stroke-width="1" stroke="#6a8438" stroke-linecap="round" d="M-4.0,-22.0L.0,-30.0L4.0,-22.0L-4.0,-22.0" fill="#6a8438"/></g><g transform="translate(88.000000,553.013000)" id="shape14"><path stroke-width="1" stroke="#6a8438" d="M.0,.0L.0,-20.0L77.3,-20.0L77.3,-31.0" fill="none"/><path stroke-width="1" stroke="#6a8438" stroke-linecap="round" d="M73.3,-31.0L77.3,-39.0L81.3,-31.0L73.3,-31.0" fill="#6a8438"/></g><g transform="translate(236.000000,553.013000)" id="shape15"><path stroke-width="1" stroke="#6a8438" d="M.0,.0L.0,-20.0L-70.7,-20.0L-70.7,-31.0" fill="none"/><path stroke-width="1" stroke="#6a8438" stroke-linecap="round" d="M-74.7,-31.0L-70.7,-39.0L-66.7,-31.0L-74.7,-31.0" fill="#6a8438"/></g><g transform="translate(165.274000,212.013000)" id="shape16"><path stroke-width="1" stroke="#6a8438" d="M.0,.0L.0,-19.0L84.7,-19.0L84.7,-29.0" fill="none"/><path stroke-width="1" stroke="#6a8438" stroke-linecap="round" d="M80.7,-29.0L84.7,-37.0L88.7,-29.0L80.7,-29.0" fill="#6a8438"/></g><g transform="translate(323.000000,212.013000)" id="shape17"><path stroke-width="1" stroke="#6a8438" d="M.0,.0L.0,-19.0L-73.0,-19.0L-73.0,-29.0" fill="none"/><path stroke-width="1" stroke="#6a8438" stroke-linecap="round" d="M-77.0,-29.0L-73.0,-37.0L-69.0,-29.0L-77.0,-29.0" fill="#6a8438"/></g></g></svg>