<svg xmlns:ev="http://www.w3.org/2001/xml-events" height="831" width="1036" viewBox="0 0 1036 831" xmlns="http://www.w3.org/2000/svg" xmlns:xlink="http://www.w3.org/1999/xlink"><defs><linearGradient y1="0%" y2="100%" x1="0%" x2="0%" id="lg1"><stop stop-color="#71b3ff" offset="0.00"/><stop stop-color="#26a1ff" offset="0.46"/><stop stop-color="#2191e7" offset="1.00"/></linearGradient></defs><g transform="translate(5.5,5.5)" id="page1"><rect fill="#ffffff" y="0" height="821" x="0" width="1026"/><g id="group1"><path fill="#ffffff" fill-rule="nonzero" d="M.0,.0L1026.0,.0L1026.0,821.0L.0,821.0L.0,.0z" id="shape2"/><path fill="#00aeee" fill-rule="nonzero" transform="translate(117.931877,234.712817)" d="M.0,54.6C.0,24.4,21.4,.0,47.8,.0C74.1,.0,95.6,24.4,95.6,54.6C95.6,84.7,74.1,109.1,47.8,109.1C21.4,109.1,.0,84.7,.0,54.6z" id="shape3" fill-opacity="0.10"/><path fill="#00aeee" fill-rule="nonzero" transform="translate(132.618195,400.497757)" d="M.0,171.0C.0,76.5,67.1,.0,149.8,.0C232.5,.0,299.5,76.5,299.5,171.0C299.5,265.4,232.5,342.0,149.8,342.0C67.1,342.0,.0,265.4,.0,171.0z" id="shape4" fill-opacity="0.10"/><path fill="#00aeee" fill-rule="nonzero" transform="translate(367.859475,373.202791)" d="M.0,87.1C.0,39.0,34.1,.0,76.3,.0C118.3,.0,152.5,39.0,152.5,87.1C152.5,135.2,118.3,174.2,76.3,174.2C34.1,174.2,.0,135.2,.0,87.1z" id="shape5" fill-opacity="0.10"/><path fill="#00aeee" fill-rule="nonzero" transform="translate(612.134685,278.945423)" d="M.0,63.9C.0,28.6,25.0,.0,55.9,.0C86.8,.0,111.9,28.6,111.9,63.9C111.9,99.1,86.8,127.7,55.9,127.7C25.0,127.7,.0,99.1,.0,63.9z" id="shape6" fill-opacity="0.10"/><path fill="#00aeee" fill-rule="nonzero" transform="translate(650.819399,528.513003)" d="M.0,47.2C.0,21.1,18.5,.0,41.3,.0C64.2,.0,82.7,21.1,82.7,47.2C82.7,73.3,64.2,94.4,41.3,94.4C18.5,94.4,.0,73.3,.0,47.2z" id="shape7" fill-opacity="0.10"/><path fill="#00aeee" fill-rule="nonzero" transform="translate(897.449946,521.160620)" d="M.0,33.6C.0,15.0,13.2,.0,29.4,.0C45.6,.0,58.8,15.0,58.8,33.6C58.8,52.1,45.6,67.1,29.4,67.1C13.2,67.1,.0,52.1,.0,33.6z" id="shape8" fill-opacity="0.10"/><path fill="#00aeee" fill-rule="nonzero" transform="translate(941.166011,297.170227)" d="M.0,16.8C.0,7.5,6.6,.0,14.7,.0C22.8,.0,29.4,7.5,29.4,16.8C29.4,26.0,22.8,33.5,14.7,33.5C6.6,33.5,.0,26.0,.0,16.8z" id="shape9" fill-opacity="0.10"/><path fill="#00aeee" fill-rule="nonzero" transform="translate(588.370217,536.873657)" d="M.0,17.9C.0,8.0,7.0,.0,15.6,.0C24.2,.0,31.2,8.0,31.2,17.9C31.2,27.7,24.2,35.7,15.6,35.7C7.0,35.7,.0,27.7,.0,17.9z" id="shape10" fill-opacity="0.10"/><path fill="#00aeee" fill-rule="nonzero" transform="translate(40.753079,308.187678)" d="M.0,34.6C.0,15.5,13.6,.0,30.3,.0C47.1,.0,60.6,15.5,60.6,34.6C60.6,53.7,47.1,69.2,30.3,69.2C13.6,69.2,.0,53.7,.0,34.6z" id="shape11" fill-opacity="0.10"/><path fill="#00aeee" fill-rule="nonzero" transform="translate(24.214677,562.053439)" d="M.0,26.2C.0,11.7,10.3,.0,23.0,.0C35.6,.0,46.0,11.7,46.0,26.2C46.0,40.7,35.6,52.5,23.0,52.5C10.3,52.5,.0,40.7,.0,26.2z" id="shape12" fill-opacity="0.10"/><path fill="#00aeee" fill-rule="nonzero" transform="translate(305.366072,343.842600)" d="M.0,18.9C.0,8.4,7.4,.0,16.5,.0C25.7,.0,33.1,8.4,33.1,18.9C33.1,29.3,25.7,37.8,16.5,37.8C7.4,37.8,.0,29.3,.0,18.9z" id="shape13" fill-opacity="0.10"/><path fill="#00aeee" fill-rule="nonzero" transform="translate(468.898006,343.842600)" d="M.0,31.5C.0,14.1,12.3,.0,27.6,.0C42.8,.0,55.1,14.1,55.1,31.5C55.1,48.8,42.8,63.0,27.6,63.0C12.3,63.0,.0,48.8,.0,31.5z" id="shape14" fill-opacity="0.10"/><path fill="#00aeee" fill-rule="nonzero" transform="translate(490.948900,467.628505)" d="M.0,25.2C.0,11.3,9.9,.0,22.1,.0C34.2,.0,44.1,11.3,44.1,25.2C44.1,39.1,34.2,50.4,22.1,50.4C9.9,50.4,.0,39.1,.0,25.2z" id="shape15" fill-opacity="0.10"/><path fill="#00aeee" fill-rule="nonzero" transform="translate(380.694171,667.002977)" d="M.0,45.1C.0,20.2,17.7,.0,39.5,.0C61.3,.0,79.0,20.2,79.0,45.1C79.0,70.0,61.3,90.2,39.5,90.2C17.7,90.2,.0,70.0,.0,45.1z" id="shape16" fill-opacity="0.10"/><path fill="#00aeee" fill-rule="nonzero" transform="translate(862.758732,46.355713)" d="M.0,54.6C.0,24.4,21.4,.0,47.8,.0C74.1,.0,95.6,24.4,95.6,54.6C95.6,84.7,74.1,109.1,47.8,109.1C21.4,109.1,.0,84.7,.0,54.6z" id="shape17" fill-opacity="0.10"/><path fill="#00aeee" fill-rule="nonzero" transform="translate(940.261541,119.780205)" d="M.0,17.9C.0,8.0,7.0,.0,15.6,.0C24.2,.0,31.2,8.0,31.2,17.9C31.2,27.7,24.2,35.7,15.6,35.7C7.0,35.7,.0,27.7,.0,17.9z" id="shape18" fill-opacity="0.10"/><path fill="#00aeee" fill-rule="nonzero" transform="translate(593.968893,254.655194)" d="M.0,34.6C.0,15.5,13.6,.0,30.3,.0C47.1,.0,60.6,15.5,60.6,34.6C60.6,53.7,47.1,69.2,30.3,69.2C13.6,69.2,.0,53.7,.0,34.6z" id="shape19" fill-opacity="0.10"/><path fill="#00aeee" fill-rule="nonzero" transform="translate(970.299743,652.614952)" d="M.0,17.9C.0,8.0,7.0,.0,15.6,.0C24.2,.0,31.2,8.0,31.2,17.9C31.2,27.7,24.2,35.7,15.6,35.7C7.0,35.7,.0,27.7,.0,17.9z" id="shape20" fill-opacity="0.10"/></g><g transform="translate(83.000000,42.013000)" id="shape21"><path fill="url(#lg1)" fill-rule="nonzero" d="M11.3,.0L86.0,.0C92.6,.0,98.0,5.1,98.0,11.3L98.0,97.0C98.0,103.6,92.6,109.0,86.0,109.0L11.3,109.0C5.1,109.0,.0,103.6,.0,97.0L.0,11.3C.0,5.1,5.1,.0,11.3,.0z"/><path fill="none" stroke="#26a1ff" stroke-width="1" d="M11.3,.0L86.0,.0C92.6,.0,98.0,5.1,98.0,11.3L98.0,97.0C98.0,103.6,92.6,109.0,86.0,109.0L11.3,109.0C5.1,109.0,.0,103.6,.0,97.0L.0,11.3C.0,5.1,5.1,.0,11.3,.0zM.0,36.0L98.0,36.0L.0,36.0zM.0,72.7L98.0,72.7L.0,72.7z"/><text xml:space="preserve" style="fill:#ffffff;font-family:Microsoft YaHei,PingFang SC,Mircrosoft YaHei,Arial;font-size:12.00pt"><tspan y="24.2" x="32.6" style="font-family:Microsoft YaHei,PingFang SC,Mircrosoft YaHei,Arial">SICL</tspan></text></g><g transform="translate(669.000000,403.030000)" id="shape22"><path fill="url(#lg1)" fill-rule="nonzero" d="M11.3,.0L86.0,.0C92.6,.0,98.0,5.1,98.0,11.3L98.0,98.0C98.0,104.6,92.6,110.0,86.0,110.0L11.3,110.0C5.1,110.0,.0,104.6,.0,98.0L.0,11.3C.0,5.1,5.1,.0,11.3,.0z"/><path fill="none" stroke="#26a1ff" stroke-width="1" d="M11.3,.0L86.0,.0C92.6,.0,98.0,5.1,98.0,11.3L98.0,98.0C98.0,104.6,92.6,110.0,86.0,110.0L11.3,110.0C5.1,110.0,.0,104.6,.0,98.0L.0,11.3C.0,5.1,5.1,.0,11.3,.0zM.0,36.3L98.0,36.3L.0,36.3zM.0,73.4L98.0,73.4L.0,73.4z"/><text xml:space="preserve" style="fill:#ffffff;font-family:Microsoft YaHei,PingFang SC,Mircrosoft YaHei,Arial;font-size:12.00pt"><tspan y="24.3" x="15.6" style="font-family:Microsoft YaHei,PingFang SC,Mircrosoft YaHei,Arial">Clappers</tspan></text><text xml:space="preserve" style="fill:#ffffff;font-family:Microsoft YaHei,PingFang SC,Mircrosoft YaHei,Arial;font-size:8.00pt"><tspan y="52.0" x="9.0" style="font-family:Microsoft YaHei,PingFang SC,Mircrosoft YaHei,Arial">SSA optimizing </tspan><tspan y="67.0" x="26.0" style="font-family:Microsoft YaHei,PingFang SC,Mircrosoft YaHei,Arial">compiler</tspan></text></g><g transform="translate(472.822000,125.996000)" id="shape23"><path fill="url(#lg1)" fill-rule="nonzero" d="M11.3,.0L86.0,.0C92.6,.0,98.0,5.1,98.0,11.3L98.0,98.0C98.0,104.6,92.6,110.0,86.0,110.0L11.3,110.0C5.1,110.0,.0,104.6,.0,98.0L.0,11.3C.0,5.1,5.1,.0,11.3,.0z"/><path fill="none" stroke="#26a1ff" stroke-width="1" d="M11.3,.0L86.0,.0C92.6,.0,98.0,5.1,98.0,11.3L98.0,98.0C98.0,104.6,92.6,110.0,86.0,110.0L11.3,110.0C5.1,110.0,.0,104.6,.0,98.0L.0,11.3C.0,5.1,5.1,.0,11.3,.0zM.0,36.3L98.0,36.3L.0,36.3zM.0,73.4L98.0,73.4L.0,73.4z"/><text xml:space="preserve" style="fill:#ffffff;font-family:Microsoft YaHei,PingFang SC,Mircrosoft YaHei,Arial;font-size:12.00pt"><tspan y="24.3" x="14.3" style="font-family:Microsoft YaHei,PingFang SC,Mircrosoft YaHei,Arial">Clostrum</tspan></text><text xml:space="preserve" style="fill:#ffffff;font-family:Microsoft YaHei,PingFang SC,Mircrosoft YaHei,Arial;font-size:8.00pt"><tspan y="52.0" x="32.0" style="font-family:Microsoft YaHei,PingFang SC,Mircrosoft YaHei,Arial">Global </tspan><tspan y="67.0" x="15.5" style="font-family:Microsoft YaHei,PingFang SC,Mircrosoft YaHei,Arial">environment</tspan></text></g><g transform="translate(592.726000,262.771000)" id="shape24"><path fill="url(#lg1)" fill-rule="nonzero" d="M11.3,.0L86.0,.0C92.6,.0,98.0,5.1,98.0,11.3L98.0,98.0C98.0,104.6,92.6,110.0,86.0,110.0L11.3,110.0C5.1,110.0,.0,104.6,.0,98.0L.0,11.3C.0,5.1,5.1,.0,11.3,.0z"/><path fill="none" stroke="#26a1ff" stroke-width="1" d="M11.3,.0L86.0,.0C92.6,.0,98.0,5.1,98.0,11.3L98.0,98.0C98.0,104.6,92.6,110.0,86.0,110.0L11.3,110.0C5.1,110.0,.0,104.6,.0,98.0L.0,11.3C.0,5.1,5.1,.0,11.3,.0zM.0,36.3L98.0,36.3L.0,36.3zM.0,73.4L98.0,73.4L.0,73.4z"/><text xml:space="preserve" style="fill:#ffffff;font-family:Microsoft YaHei,PingFang SC,Mircrosoft YaHei,Arial;font-size:12.00pt"><tspan y="24.3" x="23.2" style="font-family:Microsoft YaHei,PingFang SC,Mircrosoft YaHei,Arial">Cleavir</tspan></text><text xml:space="preserve" style="fill:#ffffff;font-family:Microsoft YaHei,PingFang SC,Mircrosoft YaHei,Arial;font-size:8.00pt"><tspan y="52.0" x="25.0" style="font-family:Microsoft YaHei,PingFang SC,Mircrosoft YaHei,Arial">Compiler </tspan><tspan y="67.0" x="20.8" style="font-family:Microsoft YaHei,PingFang SC,Mircrosoft YaHei,Arial">framework</tspan></text></g><g transform="translate(585.548000,126.996000)" id="shape25"><path fill="url(#lg1)" fill-rule="nonzero" d="M11.3,.0L86.0,.0C92.6,.0,98.0,5.1,98.0,11.3L98.0,98.0C98.0,104.6,92.6,110.0,86.0,110.0L11.3,110.0C5.1,110.0,.0,104.6,.0,98.0L.0,11.3C.0,5.1,5.1,.0,11.3,.0z"/><path fill="none" stroke="#26a1ff" stroke-width="1" d="M11.3,.0L86.0,.0C92.6,.0,98.0,5.1,98.0,11.3L98.0,98.0C98.0,104.6,92.6,110.0,86.0,110.0L11.3,110.0C5.1,110.0,.0,104.6,.0,98.0L.0,11.3C.0,5.1,5.1,.0,11.3,.0zM.0,36.3L98.0,36.3L.0,36.3zM.0,73.4L98.0,73.4L.0,73.4z"/><text xml:space="preserve" style="fill:#ffffff;font-family:Microsoft YaHei,PingFang SC,Mircrosoft YaHei,Arial;font-size:12.00pt"><tspan y="24.3" x="18.8" style="font-family:Microsoft YaHei,PingFang SC,Mircrosoft YaHei,Arial">Eclector</tspan></text><text xml:space="preserve" style="fill:#ffffff;font-family:Microsoft YaHei,PingFang SC,Mircrosoft YaHei,Arial;font-size:8.00pt"><tspan y="59.5" x="18.6" style="font-family:Microsoft YaHei,PingFang SC,Mircrosoft YaHei,Arial">Lisp Reader</tspan></text></g><g transform="translate(811.000000,126.996000)" id="shape26"><path fill="url(#lg1)" fill-rule="nonzero" d="M11.3,.0L92.0,.0C98.6,.0,104.0,5.1,104.0,11.3L104.0,98.0C104.0,104.6,98.6,110.0,92.0,110.0L11.3,110.0C5.1,110.0,.0,104.6,.0,98.0L.0,11.3C.0,5.1,5.1,.0,11.3,.0z"/><path fill="none" stroke="#26a1ff" stroke-width="1" d="M11.3,.0L92.0,.0C98.6,.0,104.0,5.1,104.0,11.3L104.0,98.0C104.0,104.6,98.6,110.0,92.0,110.0L11.3,110.0C5.1,110.0,.0,104.6,.0,98.0L.0,11.3C.0,5.1,5.1,.0,11.3,.0zM.0,36.3L104.0,36.3L.0,36.3zM.0,73.4L104.0,73.4L.0,73.4z"/><text xml:space="preserve" style="fill:#ffffff;font-family:Microsoft YaHei,PingFang SC,Mircrosoft YaHei,Arial;font-size:12.00pt"><tspan y="24.3" x="8.2" style="font-family:Microsoft YaHei,PingFang SC,Mircrosoft YaHei,Arial">Clordecone</tspan></text><text xml:space="preserve" style="fill:#ffffff;font-family:Microsoft YaHei,PingFang SC,Mircrosoft YaHei,Arial;font-size:8.00pt"><tspan y="59.5" x="13.6" style="font-family:Microsoft YaHei,PingFang SC,Mircrosoft YaHei,Arial">Lisp Debugger</tspan></text></g><g transform="translate(698.274000,125.996000)" id="shape27"><path fill="url(#lg1)" fill-rule="nonzero" d="M11.3,.0L86.0,.0C92.6,.0,98.0,5.1,98.0,11.3L98.0,98.0C98.0,104.6,92.6,110.0,86.0,110.0L11.3,110.0C5.1,110.0,.0,104.6,.0,98.0L.0,11.3C.0,5.1,5.1,.0,11.3,.0z"/><path fill="none" stroke="#26a1ff" stroke-width="1" d="M11.3,.0L86.0,.0C92.6,.0,98.0,5.1,98.0,11.3L98.0,98.0C98.0,104.6,92.6,110.0,86.0,110.0L11.3,110.0C5.1,110.0,.0,104.6,.0,98.0L.0,11.3C.0,5.1,5.1,.0,11.3,.0zM.0,36.3L98.0,36.3L.0,36.3zM.0,73.4L98.0,73.4L.0,73.4z"/><text xml:space="preserve" style="fill:#ffffff;font-family:Microsoft YaHei,PingFang SC,Mircrosoft YaHei,Arial;font-size:12.00pt"><tspan y="24.3" x="21.6" style="font-family:Microsoft YaHei,PingFang SC,Mircrosoft YaHei,Arial">Tazivor</tspan></text><text xml:space="preserve" style="fill:#ffffff;font-family:Microsoft YaHei,PingFang SC,Mircrosoft YaHei,Arial;font-size:8.00pt"><tspan y="59.5" x="24.5" style="font-family:Microsoft YaHei,PingFang SC,Mircrosoft YaHei,Arial">Inspector</tspan></text></g><g transform="translate(756.000000,262.771000)" id="shape28"><path fill="url(#lg1)" fill-rule="nonzero" d="M11.3,.0L86.0,.0C92.6,.0,98.0,5.1,98.0,11.3L98.0,98.0C98.0,104.6,92.6,110.0,86.0,110.0L11.3,110.0C5.1,110.0,.0,104.6,.0,98.0L.0,11.3C.0,5.1,5.1,.0,11.3,.0z"/><path fill="none" stroke="#26a1ff" stroke-width="1" d="M11.3,.0L86.0,.0C92.6,.0,98.0,5.1,98.0,11.3L98.0,98.0C98.0,104.6,92.6,110.0,86.0,110.0L11.3,110.0C5.1,110.0,.0,104.6,.0,98.0L.0,11.3C.0,5.1,5.1,.0,11.3,.0zM.0,36.3L98.0,36.3L.0,36.3zM.0,73.4L98.0,73.4L.0,73.4z"/><text xml:space="preserve" style="fill:#ffffff;font-family:Microsoft YaHei,PingFang SC,Mircrosoft YaHei,Arial;font-size:12.00pt"><tspan y="24.3" x="22.3" style="font-family:Microsoft YaHei,PingFang SC,Mircrosoft YaHei,Arial">Cluster</tspan></text><text xml:space="preserve" style="fill:#ffffff;font-family:Microsoft YaHei,PingFang SC,Mircrosoft YaHei,Arial;font-size:8.00pt"><tspan y="59.5" x="21.6" style="font-family:Microsoft YaHei,PingFang SC,Mircrosoft YaHei,Arial">Assembler</tspan></text></g><path fill="none" stroke="#26a1ff" transform="translate(824.089000,213.513000)" stroke-width="2" d="M.0,.0L.0,.0" id="shape29"/><g transform="translate(632.894000,657.556100)" id="shape30"><path fill="url(#lg1)" fill-rule="nonzero" d="M11.3,.0L86.0,.0C92.6,.0,98.0,5.1,98.0,11.3L98.0,98.0C98.0,104.6,92.6,110.0,86.0,110.0L11.3,110.0C5.1,110.0,.0,104.6,.0,98.0L.0,11.3C.0,5.1,5.1,.0,11.3,.0z"/><path fill="none" stroke="#26a1ff" stroke-width="1" d="M11.3,.0L86.0,.0C92.6,.0,98.0,5.1,98.0,11.3L98.0,98.0C98.0,104.6,92.6,110.0,86.0,110.0L11.3,110.0C5.1,110.0,.0,104.6,.0,98.0L.0,11.3C.0,5.1,5.1,.0,11.3,.0zM.0,36.3L98.0,36.3L.0,36.3zM.0,73.4L98.0,73.4L.0,73.4z"/><text xml:space="preserve" style="fill:#ffffff;font-family:Microsoft YaHei,PingFang SC,Mircrosoft YaHei,Arial;font-size:12.00pt"><tspan y="24.3" x="18.1" style="font-family:Microsoft YaHei,PingFang SC,Mircrosoft YaHei,Arial">Khazern</tspan></text><text xml:space="preserve" style="fill:#ffffff;font-family:Microsoft YaHei,PingFang SC,Mircrosoft YaHei,Arial;font-size:8.00pt"><tspan y="59.5" x="37.0" style="font-family:Microsoft YaHei,PingFang SC,Mircrosoft YaHei,Arial">loop</tspan></text></g><g transform="translate(739.745000,657.556100)" id="shape31"><path fill="url(#lg1)" fill-rule="nonzero" d="M11.3,.0L109.0,.0C115.6,.0,121.0,5.1,121.0,11.3L121.0,98.0C121.0,104.6,115.6,110.0,109.0,110.0L11.3,110.0C5.1,110.0,.0,104.6,.0,98.0L.0,11.3C.0,5.1,5.1,.0,11.3,.0z"/><path fill="none" stroke="#26a1ff" stroke-width="1" d="M11.3,.0L109.0,.0C115.6,.0,121.0,5.1,121.0,11.3L121.0,98.0C121.0,104.6,115.6,110.0,109.0,110.0L11.3,110.0C5.1,110.0,.0,104.6,.0,98.0L.0,11.3C.0,5.1,5.1,.0,11.3,.0zM.0,36.3L121.0,36.3L.0,36.3zM.0,73.4L121.0,73.4L.0,73.4z"/><text xml:space="preserve" style="fill:#ffffff;font-family:Microsoft YaHei,PingFang SC,Mircrosoft YaHei,Arial;font-size:12.00pt"><tspan y="24.3" x="24.7" style="font-family:Microsoft YaHei,PingFang SC,Mircrosoft YaHei,Arial">Clonedijk</tspan></text><text xml:space="preserve" style="fill:#ffffff;font-family:Microsoft YaHei,PingFang SC,Mircrosoft YaHei,Arial;font-size:8.00pt"><tspan y="59.5" x="13.8" style="font-family:Microsoft YaHei,PingFang SC,Mircrosoft YaHei,Arial">clone information</tspan></text></g><g transform="translate(404.192000,657.556100)" id="shape32"><path fill="url(#lg1)" fill-rule="nonzero" d="M11.3,.0L101.0,.0C107.6,.0,113.0,5.1,113.0,11.3L113.0,98.0C113.0,104.6,107.6,110.0,101.0,110.0L11.3,110.0C5.1,110.0,.0,104.6,.0,98.0L.0,11.3C.0,5.1,5.1,.0,11.3,.0z"/><path fill="none" stroke="#26a1ff" stroke-width="1" d="M11.3,.0L101.0,.0C107.6,.0,113.0,5.1,113.0,11.3L113.0,98.0C113.0,104.6,107.6,110.0,101.0,110.0L11.3,110.0C5.1,110.0,.0,104.6,.0,98.0L.0,11.3C.0,5.1,5.1,.0,11.3,.0zM.0,36.3L113.0,36.3L.0,36.3zM.0,73.4L113.0,73.4L.0,73.4z"/><text xml:space="preserve" style="fill:#ffffff;font-family:Microsoft YaHei,PingFang SC,Mircrosoft YaHei,Arial;font-size:12.00pt"><tspan y="24.3" x="31.1" style="font-family:Microsoft YaHei,PingFang SC,Mircrosoft YaHei,Arial">Incless</tspan></text><text xml:space="preserve" style="fill:#ffffff;font-family:Microsoft YaHei,PingFang SC,Mircrosoft YaHei,Arial;font-size:8.00pt"><tspan y="59.5" x="25.2" style="font-family:Microsoft YaHei,PingFang SC,Mircrosoft YaHei,Arial">print-object</tspan></text></g><g transform="translate(360.096000,126.996000)" id="shape33"><path fill="url(#lg1)" fill-rule="nonzero" d="M11.3,.0L86.0,.0C92.6,.0,98.0,5.1,98.0,11.3L98.0,97.0C98.0,103.6,92.6,109.0,86.0,109.0L11.3,109.0C5.1,109.0,.0,103.6,.0,97.0L.0,11.3C.0,5.1,5.1,.0,11.3,.0z"/><path fill="none" stroke="#26a1ff" stroke-width="1" d="M11.3,.0L86.0,.0C92.6,.0,98.0,5.1,98.0,11.3L98.0,97.0C98.0,103.6,92.6,109.0,86.0,109.0L11.3,109.0C5.1,109.0,.0,103.6,.0,97.0L.0,11.3C.0,5.1,5.1,.0,11.3,.0zM.0,36.0L98.0,36.0L.0,36.0zM.0,72.7L98.0,72.7L.0,72.7z"/><text xml:space="preserve" style="fill:#ffffff;font-family:Microsoft YaHei,PingFang SC,Mircrosoft YaHei,Arial;font-size:12.00pt"><tspan y="24.2" x="26.8" style="font-family:Microsoft YaHei,PingFang SC,Mircrosoft YaHei,Arial">Ctype</tspan></text><text xml:space="preserve" style="fill:#ffffff;font-family:Microsoft YaHei,PingFang SC,Mircrosoft YaHei,Arial;font-size:8.00pt"><tspan y="51.5" x="15.0" style="font-family:Microsoft YaHei,PingFang SC,Mircrosoft YaHei,Arial">common lisp </tspan><tspan y="66.5" x="17.5" style="font-family:Microsoft YaHei,PingFang SC,Mircrosoft YaHei,Arial">type system</tspan></text></g><g transform="translate(869.596000,657.556100)" id="shape34"><path fill="url(#lg1)" fill-rule="nonzero" d="M11.3,.0L86.0,.0C92.6,.0,98.0,5.1,98.0,11.3L98.0,98.0C98.0,104.6,92.6,110.0,86.0,110.0L11.3,110.0C5.1,110.0,.0,104.6,.0,98.0L.0,11.3C.0,5.1,5.1,.0,11.3,.0z"/><path fill="none" stroke="#26a1ff" stroke-width="1" d="M11.3,.0L86.0,.0C92.6,.0,98.0,5.1,98.0,11.3L98.0,98.0C98.0,104.6,92.6,110.0,86.0,110.0L11.3,110.0C5.1,110.0,.0,104.6,.0,98.0L.0,11.3C.0,5.1,5.1,.0,11.3,.0zM.0,36.3L98.0,36.3L.0,36.3zM.0,73.4L98.0,73.4L.0,73.4z"/><text xml:space="preserve" style="fill:#ffffff;font-family:Microsoft YaHei,PingFang SC,Mircrosoft YaHei,Arial;font-size:12.00pt"><tspan y="24.3" x="18.3" style="font-family:Microsoft YaHei,PingFang SC,Mircrosoft YaHei,Arial">Truckler</tspan></text><text xml:space="preserve" style="fill:#ffffff;font-family:Microsoft YaHei,PingFang SC,Mircrosoft YaHei,Arial;font-size:8.00pt"><tspan y="44.5" x="15.5" style="font-family:Microsoft YaHei,PingFang SC,Mircrosoft YaHei,Arial">environment </tspan><tspan y="59.5" x="22.4" style="font-family:Microsoft YaHei,PingFang SC,Mircrosoft YaHei,Arial">query and </tspan><tspan y="74.5" x="30.4" style="font-family:Microsoft YaHei,PingFang SC,Mircrosoft YaHei,Arial">update</tspan></text></g><g transform="translate(526.043000,657.556100)" id="shape35"><path fill="url(#lg1)" fill-rule="nonzero" d="M11.3,.0L86.0,.0C92.6,.0,98.0,5.1,98.0,11.3L98.0,98.0C98.0,104.6,92.6,110.0,86.0,110.0L11.3,110.0C5.1,110.0,.0,104.6,.0,98.0L.0,11.3C.0,5.1,5.1,.0,11.3,.0z"/><path fill="none" stroke="#26a1ff" stroke-width="1" d="M11.3,.0L86.0,.0C92.6,.0,98.0,5.1,98.0,11.3L98.0,98.0C98.0,104.6,92.6,110.0,86.0,110.0L11.3,110.0C5.1,110.0,.0,104.6,.0,98.0L.0,11.3C.0,5.1,5.1,.0,11.3,.0zM.0,36.3L98.0,36.3L.0,36.3zM.0,73.4L98.0,73.4L.0,73.4z"/><text xml:space="preserve" style="fill:#ffffff;font-family:Microsoft YaHei,PingFang SC,Mircrosoft YaHei,Arial;font-size:12.00pt"><tspan y="24.3" x="21.2" style="font-family:Microsoft YaHei,PingFang SC,Mircrosoft YaHei,Arial">Invistra</tspan></text><text xml:space="preserve" style="fill:#ffffff;font-family:Microsoft YaHei,PingFang SC,Mircrosoft YaHei,Arial;font-size:8.00pt"><tspan y="59.5" x="31.3" style="font-family:Microsoft YaHei,PingFang SC,Mircrosoft YaHei,Arial">format</tspan></text></g><g transform="translate(198.089000,262.771000)" id="shape36"><path fill="url(#lg1)" fill-rule="nonzero" d="M11.3,.0L159.9,.0C166.5,.0,171.9,5.1,171.9,11.3L171.9,98.0C171.9,104.6,166.5,110.0,159.9,110.0L11.3,110.0C5.1,110.0,.0,104.6,.0,98.0L.0,11.3C.0,5.1,5.1,.0,11.3,.0z"/><path fill="none" stroke="#26a1ff" stroke-width="1" d="M11.3,.0L159.9,.0C166.5,.0,171.9,5.1,171.9,11.3L171.9,98.0C171.9,104.6,166.5,110.0,159.9,110.0L11.3,110.0C5.1,110.0,.0,104.6,.0,98.0L.0,11.3C.0,5.1,5.1,.0,11.3,.0zM.0,36.3L171.9,36.3L.0,36.3zM.0,73.4L171.9,73.4L.0,73.4z"/><text xml:space="preserve" style="fill:#ffffff;font-family:Microsoft YaHei,PingFang SC,Mircrosoft YaHei,Arial;font-size:12.00pt"><tspan y="24.3" x="10.2" style="font-family:Microsoft YaHei,PingFang SC,Mircrosoft YaHei,Arial">s-expression-syntax</tspan></text><text xml:space="preserve" style="fill:#ffffff;font-family:Microsoft YaHei,PingFang SC,Mircrosoft YaHei,Arial;font-size:8.00pt"><tspan y="59.5" x="54.1" style="font-family:Microsoft YaHei,PingFang SC,Mircrosoft YaHei,Arial">parse sexp's</tspan></text></g><g transform="translate(193.000000,403.030000)" id="shape37"><path fill="url(#lg1)" fill-rule="nonzero" d="M11.3,.0L218.0,.0C224.6,.0,230.0,5.1,230.0,11.3L230.0,98.0C230.0,104.6,224.6,110.0,218.0,110.0L11.3,110.0C5.1,110.0,.0,104.6,.0,98.0L.0,11.3C.0,5.1,5.1,.0,11.3,.0z"/><path fill="none" stroke="#26a1ff" stroke-width="1" d="M11.3,.0L218.0,.0C224.6,.0,230.0,5.1,230.0,11.3L230.0,98.0C230.0,104.6,224.6,110.0,218.0,110.0L11.3,110.0C5.1,110.0,.0,104.6,.0,98.0L.0,11.3C.0,5.1,5.1,.0,11.3,.0zM.0,36.3L230.0,36.3L.0,36.3zM.0,73.4L230.0,73.4L.0,73.4z"/><text xml:space="preserve" style="fill:#ffffff;font-family:Microsoft YaHei,PingFang SC,Mircrosoft YaHei,Arial;font-size:12.00pt"><tspan y="24.3" x="9.5" style="font-family:Microsoft YaHei,PingFang SC,Mircrosoft YaHei,Arial">arcitecture.builder-protocol</tspan></text><text xml:space="preserve" style="fill:#ffffff;font-family:Microsoft YaHei,PingFang SC,Mircrosoft YaHei,Arial;font-size:8.00pt"><tspan y="59.5" x="84.6" style="font-family:Microsoft YaHei,PingFang SC,Mircrosoft YaHei,Arial">AST builder</tspan></text></g><g transform="translate(250.562000,543.284550)" id="shape38"><path fill="url(#lg1)" fill-rule="nonzero" d="M11.3,.0L86.0,.0C92.6,.0,98.0,5.1,98.0,11.3L98.0,98.0C98.0,104.6,92.6,110.0,86.0,110.0L11.3,110.0C5.1,110.0,.0,104.6,.0,98.0L.0,11.3C.0,5.1,5.1,.0,11.3,.0z"/><path fill="none" stroke="#26a1ff" stroke-width="1" d="M11.3,.0L86.0,.0C92.6,.0,98.0,5.1,98.0,11.3L98.0,98.0C98.0,104.6,92.6,110.0,86.0,110.0L11.3,110.0C5.1,110.0,.0,104.6,.0,98.0L.0,11.3C.0,5.1,5.1,.0,11.3,.0zM.0,36.3L98.0,36.3L.0,36.3zM.0,73.4L98.0,73.4L.0,73.4z"/><text xml:space="preserve" style="fill:#ffffff;font-family:Microsoft YaHei,PingFang SC,Mircrosoft YaHei,Arial;font-size:12.00pt"><tspan y="24.3" x="10.3" style="font-family:Microsoft YaHei,PingFang SC,Mircrosoft YaHei,Arial">Iconoclast</tspan></text><text xml:space="preserve" style="fill:#ffffff;font-family:Microsoft YaHei,PingFang SC,Mircrosoft YaHei,Arial;font-size:8.00pt"><tspan y="59.5" x="12.2" style="font-family:Microsoft YaHei,PingFang SC,Mircrosoft YaHei,Arial">represent AST</tspan></text></g><g transform="translate(198.089000,50.513000)" id="shape39"><path fill="url(#lg1)" fill-rule="nonzero" d="M11.3,.0L113.0,.0C119.6,.0,125.0,5.1,125.0,11.3L125.0,80.0C125.0,86.6,119.6,92.0,113.0,92.0L11.3,92.0C5.1,92.0,.0,86.6,.0,80.0L.0,11.3C.0,5.1,5.1,.0,11.3,.0z"/><path fill="none" stroke="#26a1ff" stroke-width="1" d="M11.3,.0L113.0,.0C119.6,.0,125.0,5.1,125.0,11.3L125.0,80.0C125.0,86.6,119.6,92.0,113.0,92.0L11.3,92.0C5.1,92.0,.0,86.6,.0,80.0L.0,11.3C.0,5.1,5.1,.0,11.3,.0zM.0,30.4L125.0,30.4L.0,30.4zM.0,61.4L125.0,61.4L.0,61.4z"/><text xml:space="preserve" style="fill:#ffffff;font-family:Microsoft YaHei,PingFang SC,Mircrosoft YaHei,Arial;font-size:12.00pt"><tspan y="10.3" x="28.4" style="font-family:Microsoft YaHei,PingFang SC,Mircrosoft YaHei,Arial">common </tspan><tspan y="32.3" x="44.2" style="font-family:Microsoft YaHei,PingFang SC,Mircrosoft YaHei,Arial">boot</tspan></text></g><g transform="translate(224.062000,673.266000)" id="shape40"><path fill="url(#lg1)" fill-rule="nonzero" d="M11.3,.0L139.0,.0C145.6,.0,151.0,5.1,151.0,11.3L151.0,82.3C151.0,88.9,145.6,94.3,139.0,94.3L11.3,94.3C5.1,94.3,.0,88.9,.0,82.3L.0,11.3C.0,5.1,5.1,.0,11.3,.0z"/><path fill="none" stroke="#26a1ff" stroke-width="1" d="M11.3,.0L139.0,.0C145.6,.0,151.0,5.1,151.0,11.3L151.0,82.3C151.0,88.9,145.6,94.3,139.0,94.3L11.3,94.3C5.1,94.3,.0,88.9,.0,82.3L.0,11.3C.0,5.1,5.1,.0,11.3,.0zM.0,31.1L151.0,31.1L.0,31.1zM.0,62.9L151.0,62.9L.0,62.9z"/><text xml:space="preserve" style="fill:#ffffff;font-family:Microsoft YaHei,PingFang SC,Mircrosoft YaHei,Arial;font-size:12.00pt"><tspan y="21.7" x="8.8" style="font-family:Microsoft YaHei,PingFang SC,Mircrosoft YaHei,Arial">Common-macros</tspan></text></g><g transform="translate(526.043000,533.013000)" id="shape41"><path fill="url(#lg1)" fill-rule="nonzero" d="M11.3,.0L86.0,.0C92.6,.0,98.0,5.1,98.0,11.3L98.0,98.0C98.0,104.6,92.6,110.0,86.0,110.0L11.3,110.0C5.1,110.0,.0,104.6,.0,98.0L.0,11.3C.0,5.1,5.1,.0,11.3,.0z"/><path fill="none" stroke="#26a1ff" stroke-width="1" d="M11.3,.0L86.0,.0C92.6,.0,98.0,5.1,98.0,11.3L98.0,98.0C98.0,104.6,92.6,110.0,86.0,110.0L11.3,110.0C5.1,110.0,.0,104.6,.0,98.0L.0,11.3C.0,5.1,5.1,.0,11.3,.0zM.0,36.3L98.0,36.3L.0,36.3zM.0,73.4L98.0,73.4L.0,73.4z"/><text xml:space="preserve" style="fill:#ffffff;font-family:Microsoft YaHei,PingFang SC,Mircrosoft YaHei,Arial;font-size:12.00pt"><tspan y="24.3" x="30.5" style="font-family:Microsoft YaHei,PingFang SC,Mircrosoft YaHei,Arial">Parcl</tspan></text><text xml:space="preserve" style="fill:#ffffff;font-family:Microsoft YaHei,PingFang SC,Mircrosoft YaHei,Arial;font-size:8.00pt"><tspan y="52.0" x="27.0" style="font-family:Microsoft YaHei,PingFang SC,Mircrosoft YaHei,Arial">package </tspan><tspan y="67.0" x="30.7" style="font-family:Microsoft YaHei,PingFang SC,Mircrosoft YaHei,Arial">system</tspan></text></g><g transform="translate(458.000000,403.030000)" id="shape42"><path fill="url(#lg1)" fill-rule="nonzero" d="M11.3,.0L86.0,.0C92.6,.0,98.0,5.1,98.0,11.3L98.0,98.0C98.0,104.6,92.6,110.0,86.0,110.0L11.3,110.0C5.1,110.0,.0,104.6,.0,98.0L.0,11.3C.0,5.1,5.1,.0,11.3,.0z"/><path fill="none" stroke="#26a1ff" stroke-width="1" d="M11.3,.0L86.0,.0C92.6,.0,98.0,5.1,98.0,11.3L98.0,98.0C98.0,104.6,92.6,110.0,86.0,110.0L11.3,110.0C5.1,110.0,.0,104.6,.0,98.0L.0,11.3C.0,5.1,5.1,.0,11.3,.0zM.0,36.3L98.0,36.3L.0,36.3zM.0,73.4L98.0,73.4L.0,73.4z"/><text xml:space="preserve" style="fill:#ffffff;font-family:Microsoft YaHei,PingFang SC,Mircrosoft YaHei,Arial;font-size:12.00pt"><tspan y="24.3" x="19.7" style="font-family:Microsoft YaHei,PingFang SC,Mircrosoft YaHei,Arial">Ecclesia</tspan></text><text xml:space="preserve" style="fill:#ffffff;font-family:Microsoft YaHei,PingFang SC,Mircrosoft YaHei,Arial;font-size:8.00pt"><tspan y="59.5" x="14.0" style="font-family:Microsoft YaHei,PingFang SC,Mircrosoft YaHei,Arial">code utillities</tspan></text></g><g transform="translate(437.726000,262.771000)" id="shape43"><path fill="url(#lg1)" fill-rule="nonzero" d="M11.3,.0L106.3,.0C112.9,.0,118.3,5.1,118.3,11.3L118.3,98.0C118.3,104.6,112.9,110.0,106.3,110.0L11.3,110.0C5.1,110.0,.0,104.6,.0,98.0L.0,11.3C.0,5.1,5.1,.0,11.3,.0z"/><path fill="none" stroke="#26a1ff" stroke-width="1" d="M11.3,.0L106.3,.0C112.9,.0,118.3,5.1,118.3,11.3L118.3,98.0C118.3,104.6,112.9,110.0,106.3,110.0L11.3,110.0C5.1,110.0,.0,104.6,.0,98.0L.0,11.3C.0,5.1,5.1,.0,11.3,.0zM.0,36.3L118.3,36.3L.0,36.3zM.0,73.4L118.3,73.4L.0,73.4z"/><text xml:space="preserve" style="fill:#ffffff;font-family:Microsoft YaHei,PingFang SC,Mircrosoft YaHei,Arial;font-size:12.00pt"><tspan y="24.3" x="9.3" style="font-family:Microsoft YaHei,PingFang SC,Mircrosoft YaHei,Arial">parser.pacrat</tspan></text><text xml:space="preserve" style="fill:#ffffff;font-family:Microsoft YaHei,PingFang SC,Mircrosoft YaHei,Arial;font-size:8.00pt"><tspan y="59.5" x="19.1" style="font-family:Microsoft YaHei,PingFang SC,Mircrosoft YaHei,Arial">parse grammar</tspan></text></g><g transform="translate(739.745000,540.867950)" id="shape44"><path fill="url(#lg1)" fill-rule="nonzero" d="M11.3,.0L109.0,.0C115.6,.0,121.0,5.1,121.0,11.3L121.0,98.0C121.0,104.6,115.6,110.0,109.0,110.0L11.3,110.0C5.1,110.0,.0,104.6,.0,98.0L.0,11.3C.0,5.1,5.1,.0,11.3,.0z"/><path fill="none" stroke="#26a1ff" stroke-width="1" d="M11.3,.0L109.0,.0C115.6,.0,121.0,5.1,121.0,11.3L121.0,98.0C121.0,104.6,115.6,110.0,109.0,110.0L11.3,110.0C5.1,110.0,.0,104.6,.0,98.0L.0,11.3C.0,5.1,5.1,.0,11.3,.0zM.0,36.3L121.0,36.3L.0,36.3zM.0,73.4L121.0,73.4L.0,73.4z"/><text xml:space="preserve" style="fill:#ffffff;font-family:Microsoft YaHei,PingFang SC,Mircrosoft YaHei,Arial;font-size:12.00pt"><tspan y="24.3" x="12.4" style="font-family:Microsoft YaHei,PingFang SC,Mircrosoft YaHei,Arial">Predicament</tspan></text><text xml:space="preserve" style="fill:#ffffff;font-family:Microsoft YaHei,PingFang SC,Mircrosoft YaHei,Arial;font-size:8.00pt"><tspan y="52.0" x="8.8" style="font-family:Microsoft YaHei,PingFang SC,Mircrosoft YaHei,Arial">Exception and error </tspan><tspan y="67.0" x="34.2" style="font-family:Microsoft YaHei,PingFang SC,Mircrosoft YaHei,Arial">handeling</tspan></text></g><g transform="translate(74.990000,657.556100)" id="shape45"><path fill="url(#lg1)" fill-rule="nonzero" d="M11.3,.0L108.4,.0C115.0,.0,120.4,5.1,120.4,11.3L120.4,98.0C120.4,104.6,115.0,110.0,108.4,110.0L11.3,110.0C5.1,110.0,.0,104.6,.0,98.0L.0,11.3C.0,5.1,5.1,.0,11.3,.0z"/><path fill="none" stroke="#26a1ff" stroke-width="1" d="M11.3,.0L108.4,.0C115.0,.0,120.4,5.1,120.4,11.3L120.4,98.0C120.4,104.6,115.0,110.0,108.4,110.0L11.3,110.0C5.1,110.0,.0,104.6,.0,98.0L.0,11.3C.0,5.1,5.1,.0,11.3,.0zM.0,36.3L120.4,36.3L.0,36.3zM.0,73.4L120.4,73.4L.0,73.4z"/><text xml:space="preserve" style="fill:#ffffff;font-family:Microsoft YaHei,PingFang SC,Mircrosoft YaHei,Arial;font-size:12.00pt"><tspan y="24.3" x="40.9" style="font-family:Microsoft YaHei,PingFang SC,Mircrosoft YaHei,Arial">Bouy</tspan></text><text xml:space="preserve" style="fill:#ffffff;font-family:Microsoft YaHei,PingFang SC,Mircrosoft YaHei,Arial;font-size:8.00pt"><tspan y="52.0" x="23.4" style="font-family:Microsoft YaHei,PingFang SC,Mircrosoft YaHei,Arial">Floating point </tspan><tspan y="67.0" x="38.7" style="font-family:Microsoft YaHei,PingFang SC,Mircrosoft YaHei,Arial">routines</tspan></text></g><g transform="translate(632.894000,533.013000)" id="shape46"><path fill="url(#lg1)" fill-rule="nonzero" d="M11.3,.0L86.0,.0C92.6,.0,98.0,5.1,98.0,11.3L98.0,98.0C98.0,104.6,92.6,110.0,86.0,110.0L11.3,110.0C5.1,110.0,.0,104.6,.0,98.0L.0,11.3C.0,5.1,5.1,.0,11.3,.0z"/><path fill="none" stroke="#26a1ff" stroke-width="1" d="M11.3,.0L86.0,.0C92.6,.0,98.0,5.1,98.0,11.3L98.0,98.0C98.0,104.6,92.6,110.0,86.0,110.0L11.3,110.0C5.1,110.0,.0,104.6,.0,98.0L.0,11.3C.0,5.1,5.1,.0,11.3,.0zM.0,36.3L98.0,36.3L.0,36.3zM.0,73.4L98.0,73.4L.0,73.4z"/><text xml:space="preserve" style="fill:#ffffff;font-family:Microsoft YaHei,PingFang SC,Mircrosoft YaHei,Arial;font-size:12.00pt"><tspan y="24.3" x="21.0" style="font-family:Microsoft YaHei,PingFang SC,Mircrosoft YaHei,Arial">Regalia</tspan></text><text xml:space="preserve" style="fill:#ffffff;font-family:Microsoft YaHei,PingFang SC,Mircrosoft YaHei,Arial;font-size:8.00pt"><tspan y="59.5" x="33.3" style="font-family:Microsoft YaHei,PingFang SC,Mircrosoft YaHei,Arial">arrays</tspan></text></g><g transform="translate(404.192000,533.013000)" id="shape47"><path fill="url(#lg1)" fill-rule="nonzero" d="M11.3,.0L101.0,.0C107.6,.0,113.0,5.1,113.0,11.3L113.0,98.0C113.0,104.6,107.6,110.0,101.0,110.0L11.3,110.0C5.1,110.0,.0,104.6,.0,98.0L.0,11.3C.0,5.1,5.1,.0,11.3,.0z"/><path fill="none" stroke="#26a1ff" stroke-width="1" d="M11.3,.0L101.0,.0C107.6,.0,113.0,5.1,113.0,11.3L113.0,98.0C113.0,104.6,107.6,110.0,101.0,110.0L11.3,110.0C5.1,110.0,.0,104.6,.0,98.0L.0,11.3C.0,5.1,5.1,.0,11.3,.0zM.0,36.3L113.0,36.3L.0,36.3zM.0,73.4L113.0,73.4L.0,73.4z"/><text xml:space="preserve" style="fill:#ffffff;font-family:Microsoft YaHei,PingFang SC,Mircrosoft YaHei,Arial;font-size:12.00pt"><tspan y="24.3" x="8.3" style="font-family:Microsoft YaHei,PingFang SC,Mircrosoft YaHei,Arial">Clostrophilia</tspan></text><text xml:space="preserve" style="fill:#ffffff;font-family:Microsoft YaHei,PingFang SC,Mircrosoft YaHei,Arial;font-size:8.00pt"><tspan y="59.5" x="42.4" style="font-family:Microsoft YaHei,PingFang SC,Mircrosoft YaHei,Arial">CLOS</tspan></text></g><g transform="translate(869.596000,543.284550)" id="shape48"><path fill="url(#lg1)" fill-rule="nonzero" d="M11.3,.0L108.4,.0C115.0,.0,120.4,5.1,120.4,11.3L120.4,98.0C120.4,104.6,115.0,110.0,108.4,110.0L11.3,110.0C5.1,110.0,.0,104.6,.0,98.0L.0,11.3C.0,5.1,5.1,.0,11.3,.0z"/><path fill="none" stroke="#26a1ff" stroke-width="1" d="M11.3,.0L108.4,.0C115.0,.0,120.4,5.1,120.4,11.3L120.4,98.0C120.4,104.6,115.0,110.0,108.4,110.0L11.3,110.0C5.1,110.0,.0,104.6,.0,98.0L.0,11.3C.0,5.1,5.1,.0,11.3,.0zM.0,36.3L120.4,36.3L.0,36.3zM.0,73.4L120.4,73.4L.0,73.4z"/><text xml:space="preserve" style="fill:#ffffff;font-family:Microsoft YaHei,PingFang SC,Mircrosoft YaHei,Arial;font-size:12.00pt"><tspan y="24.3" x="15.3" style="font-family:Microsoft YaHei,PingFang SC,Mircrosoft YaHei,Arial">Acclimation</tspan></text><text xml:space="preserve" style="fill:#ffffff;font-family:Microsoft YaHei,PingFang SC,Mircrosoft YaHei,Arial;font-size:8.00pt"><tspan y="59.5" x="9.1" style="font-family:Microsoft YaHei,PingFang SC,Mircrosoft YaHei,Arial">Internationalization</tspan></text></g><g transform="translate(198.089000,170.894000)" id="shape49"><path fill="url(#lg1)" fill-rule="nonzero" d="M11.3,.0L113.0,.0C119.6,.0,125.0,5.1,125.0,11.3L125.0,63.2C125.0,69.8,119.6,75.2,113.0,75.2L11.3,75.2C5.1,75.2,.0,69.8,.0,63.2L.0,11.3C.0,5.1,5.1,.0,11.3,.0z"/><path fill="none" stroke="#26a1ff" stroke-width="1" d="M11.3,.0L113.0,.0C119.6,.0,125.0,5.1,125.0,11.3L125.0,63.2C125.0,69.8,119.6,75.2,113.0,75.2L11.3,75.2C5.1,75.2,.0,69.8,.0,63.2L.0,11.3C.0,5.1,5.1,.0,11.3,.0zM.0,24.8L125.0,24.8L.0,24.8zM.0,50.2L125.0,50.2L.0,50.2z"/><text xml:space="preserve" style="fill:#ffffff;font-family:Microsoft YaHei,PingFang SC,Mircrosoft YaHei,Arial;font-size:12.00pt"><tspan y="18.5" x="15.1" style="font-family:Microsoft YaHei,PingFang SC,Mircrosoft YaHei,Arial">Boot-shared</tspan></text></g><g transform="translate(370.000000,317.771000)" id="shape50"><path fill="none" stroke="#26a1ff" stroke-width="2" d="M.0,.0L58.2,.0"/><path fill="#26a1ff" stroke="#26a1ff" stroke-width="1" d="M58.2,-4.2L66.7,.0L58.2,4.2L58.2,-4.2" stroke-linecap="round"/></g><g transform="translate(423.000000,458.030000)" id="shape51"><path fill="none" stroke="#26a1ff" stroke-width="2" d="M.0,.0L26.5,.0"/><path fill="#26a1ff" stroke="#26a1ff" stroke-width="1" d="M26.5,-4.2L35.0,.0L26.5,4.2L26.5,-4.2" stroke-linecap="round"/></g><g transform="translate(805.000000,372.771000)" id="shape52"><path fill="none" stroke="#26a1ff" stroke-width="2" d="M.0,.0L.0,85.3L-29.5,85.3"/><path fill="#26a1ff" stroke="#26a1ff" stroke-width="1" d="M-29.5,89.5L-38.0,85.3L-29.5,81.0L-29.5,89.5" stroke-linecap="round"/></g><g transform="translate(181.000000,96.513000)" id="shape53"><path fill="none" stroke="#26a1ff" stroke-width="2" d="M.0,.0L8.6,.0"/><path fill="#26a1ff" stroke="#26a1ff" stroke-width="1" d="M8.6,-4.2L17.1,.0L8.6,4.2L8.6,-4.2" stroke-linecap="round"/></g><g transform="translate(260.589000,142.513000)" id="shape54"><path fill="none" stroke="#26a1ff" stroke-width="2" d="M.0,.0L.0,19.9"/><path fill="#26a1ff" stroke="#26a1ff" stroke-width="1" d="M4.2,19.9L.0,28.4L-4.2,19.9L4.2,19.9" stroke-linecap="round"/></g><g transform="translate(198.089000,208.513000)" id="shape55"><path fill="none" stroke="#26a1ff" stroke-width="2" d="M.0,.0L-35.1,.0L-35.1,109.3L-8.5,109.3"/><path fill="#26a1ff" stroke="#26a1ff" stroke-width="1" d="M-8.5,105.0L-0.0,109.3L-8.5,113.5L-8.5,105.0" stroke-linecap="round"/></g><g transform="translate(198.089000,208.513000)" id="shape56"><path fill="none" stroke="#26a1ff" stroke-width="2" d="M.0,.0L-35.1,.0L-35.1,249.5L-13.6,249.5"/><path fill="#26a1ff" stroke="#26a1ff" stroke-width="1" d="M-13.6,245.3L-5.1,249.5L-13.6,253.8L-13.6,245.3" stroke-linecap="round"/></g><g transform="translate(198.089000,208.513000)" id="shape57"><path fill="none" stroke="#26a1ff" stroke-width="2" d="M.0,.0L-35.1,.0L-35.1,389.8L44.0,389.8"/><path fill="#26a1ff" stroke="#26a1ff" stroke-width="1" d="M44.0,385.5L52.5,389.8L44.0,394.0L44.0,385.5" stroke-linecap="round"/></g><g transform="translate(641.726000,372.771000)" id="shape58"><path fill="none" stroke="#26a1ff" stroke-width="2" d="M.0,.0L.0,85.3L18.8,85.3"/><path fill="#26a1ff" stroke="#26a1ff" stroke-width="1" d="M18.8,81.0L27.3,85.3L18.8,89.5L18.8,81.0" stroke-linecap="round"/></g></g></svg>