<svg xmlns="http://www.w3.org/2000/svg" width="1133" height="804" xmlns:xlink="http://www.w3.org/1999/xlink" xmlns:ev="http://www.w3.org/2001/xml-events" viewBox="0 0 1133 804"><defs/><g id="page1" transform="translate(5.5,5.5)"><rect fill="#ffffff" width="1123" height="794" x="0" y="0"/><g id="shape1" transform="translate(91.429000,68.000000)"><path fill="#ffffff" d="M11.3,.0L86.0,.0C92.6,.0,98.0,5.1,98.0,11.3L98.0,124.0C98.0,130.6,92.6,136.0,86.0,136.0L11.3,136.0C5.1,136.0,.0,130.6,.0,124.0L.0,11.3C.0,5.1,5.1,.0,11.3,.0z" fill-rule="nonzero"/><path fill="none" d="M11.3,.0L86.0,.0C92.6,.0,98.0,5.1,98.0,11.3L98.0,124.0C98.0,130.6,92.6,136.0,86.0,136.0L11.3,136.0C5.1,136.0,.0,130.6,.0,124.0L.0,11.3C.0,5.1,5.1,.0,11.3,.0zM.0,44.9L98.0,44.9L.0,44.9zM.0,90.7L98.0,90.7L.0,90.7z" stroke-width="3" stroke="#323232"/><text xml:space="preserve" style="fill:#191919;font-family:Arial;font-size:12.00pt"><tspan x="22.3" y="28.2">Symbol</tspan></text><text xml:space="preserve" style="fill:#191919;font-family:Arial;font-size:12.00pt"><tspan x="8.0" y="64.0">%name</tspan><tspan x="8.0" y="83.0">%package</tspan></text></g><g id="shape2" transform="translate(66.213900,257.000000)"><path fill="#ffffff" d="M123.2,28.0L123.2,.0L.0,.0L.0,28.0L123.2,28.0z" stroke-width="3" stroke="#323232" fill-rule="nonzero"/><text xml:space="preserve" style="fill:#191919;font-family:Arial;font-size:12.00pt"><tspan x="8.1" y="19.5">macro-function</tspan></text></g><g id="shape3" transform="translate(66.214100,315.000000)"><path fill="#ffffff" d="M190.8,28.0L190.8,.0L.0,.0L.0,28.0L190.8,28.0z" stroke-width="3" stroke="#323232" fill-rule="nonzero"/><text xml:space="preserve" style="fill:#191919;font-family:Arial;font-size:12.00pt"><tspan x="9.6" y="19.5">compiler-macro-function</tspan></text></g><g id="shape4" transform="translate(66.214000,373.000000)"><path fill="#ffffff" d="M108.0,28.0L108.0,.0L.0,.0L.0,28.0L108.0,28.0z" stroke-width="3" stroke="#323232" fill-rule="nonzero"/><text xml:space="preserve" style="fill:#191919;font-family:Arial;font-size:12.00pt"><tspan x="8.0" y="19.5">function-type</tspan></text></g><g id="shape5" transform="translate(66.213900,431.000000)"><path fill="#ffffff" d="M123.2,28.0L123.2,.0L.0,.0L.0,28.0L123.2,28.0z" stroke-width="3" stroke="#323232" fill-rule="nonzero"/><text xml:space="preserve" style="fill:#191919;font-family:Arial;font-size:12.00pt"><tspan x="12.3" y="19.5">function-inline</tspan></text></g><g id="shape6" transform="translate(66.214600,496.000000)"><path fill="#ffffff" d="M115.4,26.0L115.4,.0L.0,.0L.0,26.0L115.4,26.0z" stroke-width="3" stroke="#323232" fill-rule="nonzero"/><text xml:space="preserve" style="fill:#191919;font-family:Arial;font-size:12.00pt"><tspan x="15.0" y="18.5">function-cell</tspan></text></g><g id="shape7" transform="translate(66.214100,561.000000)"><path fill="#ffffff" d="M160.8,26.0L160.8,.0L.0,.0L.0,26.0L160.8,26.0z" stroke-width="3" stroke="#323232" fill-rule="nonzero"/><text xml:space="preserve" style="fill:#191919;font-family:Arial;font-size:12.00pt"><tspan x="11.1" y="18.5">function-description</tspan></text></g><g id="shape8" transform="translate(66.214100,626.000000)"><path fill="#ffffff" d="M145.8,26.0L145.8,.0L.0,.0L.0,26.0L145.8,26.0z" stroke-width="3" stroke="#323232" fill-rule="nonzero"/><text xml:space="preserve" style="fill:#191919;font-family:Arial;font-size:12.00pt"><tspan x="12.0" y="18.5">constant-variable</tspan></text></g><g id="shape9" transform="translate(66.214100,691.000000)"><path fill="#ffffff" d="M137.8,26.0L137.8,.0L.0,.0L.0,26.0L137.8,26.0z" stroke-width="3" stroke="#323232" fill-rule="nonzero"/><text xml:space="preserve" style="fill:#191919;font-family:Arial;font-size:12.00pt"><tspan x="11.6" y="18.5">special-operator</tspan></text></g><g id="shape10" transform="translate(307.785900,257.000000)"><path fill="#ffffff" d="M123.2,28.0L123.2,.0L.0,.0L.0,28.0L123.2,28.0z" stroke-width="3" stroke="#323232" fill-rule="nonzero"/><text xml:space="preserve" style="fill:#191919;font-family:Arial;font-size:12.00pt"><tspan x="11.8" y="19.5">variable-value</tspan></text></g><g id="shape11" transform="translate(307.785900,315.000000)"><path fill="#ffffff" d="M123.2,28.0L123.2,.0L.0,.0L.0,28.0L123.2,28.0z" stroke-width="3" stroke="#323232" fill-rule="nonzero"/><text xml:space="preserve" style="fill:#191919;font-family:Arial;font-size:12.00pt"><tspan x="11.4" y="19.5">symbol-macro</tspan></text></g><g id="shape12" transform="translate(307.786000,373.000000)"><path fill="#ffffff" d="M108.0,28.0L108.0,.0L.0,.0L.0,28.0L108.0,28.0z" stroke-width="3" stroke="#323232" fill-rule="nonzero"/><text xml:space="preserve" style="fill:#191919;font-family:Arial;font-size:12.00pt"><tspan x="8.2" y="19.5">variable-type</tspan></text></g><g id="shape13" transform="translate(307.786000,431.000000)"><path fill="#ffffff" d="M108.0,26.0L108.0,.0L.0,.0L.0,26.0L108.0,26.0z" stroke-width="3" stroke="#323232" fill-rule="nonzero"/><text xml:space="preserve" style="fill:#191919;font-family:Arial;font-size:12.00pt"><tspan x="11.3" y="18.5">variable-cell</tspan></text></g><g id="shape14" transform="translate(307.785900,496.000000)"><path fill="#ffffff" d="M161.2,26.0L161.2,.0L.0,.0L.0,26.0L161.2,26.0z" stroke-width="3" stroke="#323232" fill-rule="nonzero"/><text xml:space="preserve" style="fill:#191919;font-family:Arial;font-size:12.00pt"><tspan x="11.3" y="18.5">variable-description</tspan></text></g><g id="shape15" transform="translate(307.786000,561.000000)"><path fill="#ffffff" d="M86.3,26.0L86.3,.0L.0,.0L.0,26.0L86.3,26.0z" stroke-width="3" stroke="#323232" fill-rule="nonzero"/><text xml:space="preserve" style="fill:#191919;font-family:Arial;font-size:12.00pt"><tspan x="9.4" y="18.5">find-class</tspan></text></g><g id="shape16" transform="translate(307.786000,626.000000)"><path fill="#ffffff" d="M138.0,26.0L138.0,.0L.0,.0L.0,26.0L138.0,26.0z" stroke-width="3" stroke="#323232" fill-rule="nonzero"/><text xml:space="preserve" style="fill:#191919;font-family:Arial;font-size:12.00pt"><tspan x="9.5" y="18.5">class-description</tspan></text></g><g id="shape17" transform="translate(307.785900,691.000000)"><path fill="#ffffff" d="M123.2,26.0L123.2,.0L.0,.0L.0,26.0L123.2,26.0z" stroke-width="3" stroke="#323232" fill-rule="nonzero"/><text xml:space="preserve" style="fill:#191919;font-family:Arial;font-size:12.00pt"><tspan x="12.7" y="18.5">setf-expander</tspan></text></g><g id="shape18" transform="translate(526.785900,257.000000)"><path fill="#ffffff" d="M123.2,28.0L123.2,.0L.0,.0L.0,28.0L123.2,28.0z" stroke-width="3" stroke="#323232" fill-rule="nonzero"/><text xml:space="preserve" style="fill:#191919;font-family:Arial;font-size:12.00pt"><tspan x="10.5" y="19.5">type-expander</tspan></text></g><g id="shape19" transform="translate(526.785900,315.000000)"><path fill="#ffffff" d="M108.2,28.0L108.2,.0L.0,.0L.0,28.0L108.2,28.0z" stroke-width="3" stroke="#323232" fill-rule="nonzero"/><text xml:space="preserve" style="fill:#191919;font-family:Arial;font-size:12.00pt"><tspan x="8.3" y="19.5">proclamation</tspan></text></g><g id="shape20" transform="translate(293.393000,166.500000)"><circle fill="none" cx="16.8" cy="41.5" stroke="#191919" r="3.0"/><circle fill="none" cx="16.8" cy="60.5" stroke="#191919" r="3.0"/><text xml:space="preserve" style="fill:#191919;font-family:Arial;font-size:12.00pt"><tspan x="4.0" y="28.0">Protocol functions</tspan><tspan x="24.0" y="47.0">are generic</tspan><tspan x="24.0" y="66.0">have setf-expander</tspan></text></g><g id="shape21" transform="translate(552.000000,47.000000)"><path fill="#ffffff" d="M11.3,.0L218.0,.0C224.6,.0,230.0,5.1,230.0,11.3L230.0,124.0C230.0,130.6,224.6,136.0,218.0,136.0L11.3,136.0C5.1,136.0,.0,130.6,.0,124.0L.0,11.3C.0,5.1,5.1,.0,11.3,.0z" fill-rule="nonzero"/><path fill="none" d="M11.3,.0L218.0,.0C224.6,.0,230.0,5.1,230.0,11.3L230.0,124.0C230.0,130.6,224.6,136.0,218.0,136.0L11.3,136.0C5.1,136.0,.0,130.6,.0,124.0L.0,11.3C.0,5.1,5.1,.0,11.3,.0zM.0,44.9L230.0,44.9L.0,44.9zM.0,90.7L230.0,90.7L.0,90.7z" stroke-width="3" stroke="#323232"/><text xml:space="preserve" style="fill:#191919;font-family:Arial;font-size:12.00pt"><tspan x="10.6" y="28.2">evaluation-environment-mixin</tspan></text><text xml:space="preserve" style="fill:#191919;font-family:Arial;font-size:12.00pt"><tspan x="92.3" y="73.5">parent</tspan></text></g><g id="shape22" transform="translate(823.500000,47.000000)"><path fill="#ffffff" d="M11.3,.0L245.0,.0C251.6,.0,257.0,5.1,257.0,11.3L257.0,124.0C257.0,130.6,251.6,136.0,245.0,136.0L11.3,136.0C5.1,136.0,.0,130.6,.0,124.0L.0,11.3C.0,5.1,5.1,.0,11.3,.0z" fill-rule="nonzero"/><path fill="none" d="M11.3,.0L245.0,.0C251.6,.0,257.0,5.1,257.0,11.3L257.0,124.0C257.0,130.6,251.6,136.0,245.0,136.0L11.3,136.0C5.1,136.0,.0,130.6,.0,124.0L.0,11.3C.0,5.1,5.1,.0,11.3,.0zM.0,44.9L257.0,44.9L.0,44.9zM.0,90.7L257.0,90.7L.0,90.7z" stroke-width="3" stroke="#323232"/><text xml:space="preserve" style="fill:#191919;font-family:Arial;font-size:12.00pt"><tspan x="41.4" y="28.2">compilation-environment</tspan></text><text xml:space="preserve" style="fill:#191919;font-family:Arial;font-size:12.00pt"><tspan x="50.7" y="109.3">generic-function-class</tspan><tspan x="16.5" y="128.3">method-combination defgeneric</tspan></text><text xml:space="preserve" style="fill:#191919;font-family:Arial;font-size:12.00pt"><tspan x="105.8" y="73.5">parent</tspan></text></g><g id="shape23" transform="translate(849.107100,257.000000)"><path fill="#ffffff" d="M160.8,26.0L160.8,.0L.0,.0L.0,26.0L160.8,26.0z" stroke-width="3" stroke="#323232" fill-rule="nonzero"/><text xml:space="preserve" style="fill:#191919;font-family:Arial;font-size:12.00pt"><tspan x="11.1" y="18.5">function-description</tspan></text></g><g id="shape24" transform="translate(849.107000,317.000000)"><path fill="#ffffff" d="M138.0,26.0L138.0,.0L.0,.0L.0,26.0L138.0,26.0z" stroke-width="3" stroke="#323232" fill-rule="nonzero"/><text xml:space="preserve" style="fill:#191919;font-family:Arial;font-size:12.00pt"><tspan x="9.5" y="18.5">class-description</tspan></text></g><g id="shape25" transform="translate(849.107100,375.000000)"><path fill="#ffffff" d="M160.8,26.0L160.8,.0L.0,.0L.0,26.0L160.8,26.0z" stroke-width="3" stroke="#323232" fill-rule="nonzero"/><text xml:space="preserve" style="fill:#191919;font-family:Arial;font-size:12.00pt"><tspan x="11.1" y="18.5">function-description</tspan></text></g><g id="shape26" transform="translate(849.106900,433.000000)"><path fill="#ffffff" d="M161.2,26.0L161.2,.0L.0,.0L.0,26.0L161.2,26.0z" stroke-width="3" stroke="#323232" fill-rule="nonzero"/><text xml:space="preserve" style="fill:#191919;font-family:Arial;font-size:12.00pt"><tspan x="11.3" y="18.5">variable-description</tspan></text></g><g id="shape27" transform="translate(849.106900,496.000000)"><path fill="#ffffff" d="M123.2,28.0L123.2,.0L.0,.0L.0,28.0L123.2,28.0z" stroke-width="3" stroke="#323232" fill-rule="nonzero"/><text xml:space="preserve" style="fill:#191919;font-family:Arial;font-size:12.00pt"><tspan x="8.1" y="19.5">macro-function</tspan></text></g><g id="group28" transform="translate(289.000000,47.000000)"><path fill="#ffffff" id="shape29" d="M11.3,.0L167.3,.0C173.9,.0,179.3,5.1,179.3,11.3L179.3,106.2C179.3,112.8,173.9,118.2,167.3,118.2L11.3,118.2C5.1,118.2,.0,112.8,.0,106.2L.0,11.3C.0,5.1,5.1,.0,11.3,.0z" transform="translate(0.317000,0.404300)" stroke-width="3" stroke="#323232" fill-rule="nonzero"/><g id="shape30" transform="translate(15.724100,9.779200)"><path fill="#ffffff" d="M11.3,.0L136.5,.0C143.1,.0,148.5,5.1,148.5,11.3L148.5,87.4C148.5,94.0,143.1,99.4,136.5,99.4L11.3,99.4C5.1,99.4,.0,94.0,.0,87.4L.0,11.3C.0,5.1,5.1,.0,11.3,.0z" fill-rule="nonzero"/><path fill="none" d="M11.3,.0L136.5,.0C143.1,.0,148.5,5.1,148.5,11.3L148.5,87.4C148.5,94.0,143.1,99.4,136.5,99.4L11.3,99.4C5.1,99.4,.0,94.0,.0,87.4L.0,11.3C.0,5.1,5.1,.0,11.3,.0zM.0,32.8L148.5,32.8L.0,32.8zM.0,66.3L148.5,66.3L.0,66.3z" stroke-width="3" stroke="#323232"/><text xml:space="preserve" style="fill:#191919;font-family:Arial;font-size:12.00pt"><tspan x="51.1" y="12.6">Global </tspan><tspan x="29.3" y="31.6">Environment</tspan></text></g></g><g id="shape31" transform="translate(630.846700,428.000000)"><path fill="#ffffff" d="M11.3,.0L162.4,.0C169.0,.0,174.4,5.1,174.4,11.3L174.4,124.0C174.4,130.6,169.0,136.0,162.4,136.0L11.3,136.0C5.1,136.0,.0,130.6,.0,124.0L.0,11.3C.0,5.1,5.1,.0,11.3,.0z" fill-rule="nonzero"/><path fill="none" d="M11.3,.0L162.4,.0C169.0,.0,174.4,5.1,174.4,11.3L174.4,124.0C174.4,130.6,169.0,136.0,162.4,136.0L11.3,136.0C5.1,136.0,.0,130.6,.0,124.0L.0,11.3C.0,5.1,5.1,.0,11.3,.0zM.0,44.9L174.4,44.9L.0,44.9zM.0,90.7L174.4,90.7L.0,90.7z" stroke-width="3" stroke="#323232"/><text xml:space="preserve" style="fill:#191919;font-family:Arial;font-size:12.00pt"><tspan x="32.1" y="28.2">trucler-clostrum</tspan></text></g><g id="shape32" transform="translate(657.551000,378.000000)"><text xml:space="preserve" style="fill:#191919;font-family:Arial;font-size:16.00pt"><tspan x="32.5" y="26.5">ASDF</tspan></text></g><g id="shape33" transform="translate(630.846200,580.500000)"><path fill="#ffffff" d="M152.3,29.0L152.3,.0L.0,.0L.0,29.0L152.3,29.0z" stroke-width="3" stroke="#323232" fill-rule="nonzero"/><text xml:space="preserve" style="fill:#191919;font-family:Arial;font-size:12.00pt"><tspan x="15.3" y="20.0">describe-function</tspan></text></g><g id="shape34" transform="translate(630.845900,626.000000)"><path fill="#ffffff" d="M133.6,29.0L133.6,.0L.0,.0L.0,29.0L133.6,29.0z" stroke-width="3" stroke="#323232" fill-rule="nonzero"/><text xml:space="preserve" style="fill:#191919;font-family:Arial;font-size:12.00pt"><tspan x="15.2" y="20.0">describe-block</tspan></text></g><g id="shape35" transform="translate(630.845800,671.500000)"><path fill="#ffffff" d="M117.0,26.0L117.0,.0L.0,.0L.0,26.0L117.0,26.0z" stroke-width="3" stroke="#323232" fill-rule="nonzero"/><text xml:space="preserve" style="fill:#191919;font-family:Arial;font-size:12.00pt"><tspan x="14.5" y="18.5">describe-tag</tspan></text></g><g id="shape36" transform="translate(630.846100,714.000000)"><path fill="#ffffff" d="M163.2,26.0L163.2,.0L.0,.0L.0,26.0L163.2,26.0z" stroke-width="3" stroke="#323232" fill-rule="nonzero"/><text xml:space="preserve" style="fill:#191919;font-family:Arial;font-size:12.00pt"><tspan x="13.6" y="18.5">global-environment</tspan></text></g><g id="shape37" transform="translate(0.214300,0.000000)"><text xml:space="preserve" style="fill:#191919;font-family:Arial;font-size:24.00pt"><tspan x="23.0" y="38.0">Clostrum</tspan></text></g><g id="shape38" transform="translate(526.785900,378.000000)"><path fill="#ffffff" d="M85.2,26.0L85.2,.0L.0,.0L.0,26.0L85.2,26.0z" stroke-width="3" stroke="#323232" fill-rule="nonzero"/><text xml:space="preserve" style="fill:#191919;font-family:Arial;font-size:12.00pt"><tspan x="8.4" y="18.5">fdefinition</tspan></text></g></g></svg>