<svg height="804" xmlns:xlink="http://www.w3.org/1999/xlink" viewBox="0 0 1132 804" width="1132" xmlns="http://www.w3.org/2000/svg" xmlns:ev="http://www.w3.org/2001/xml-events"><defs/><g transform="translate(5.5,5.5)" id="page1"><rect height="794" y="0" fill="#ffffff" width="1123" x="0"/><g transform="translate(423.000000,76.000000)" id="shape1"><path fill-rule="nonzero" d="M116.0,.0L.0,.0L.0,30.0L116.0,30.0M29.0,.0L29.0,30.0L.0,30.0L.0,.0L116.0,.0L29.0,.0z" fill="#ffffff" stroke="#000000" stroke-width="1"/><text style="fill:#454545;font-family:Arimo,PingFang SC,Mircrosoft YaHei,Arial;font-size:8.00pt" xml:space="preserve"><tspan y="18.5" x="10.2" style="font-family:Arimo,PingFang SC,Mircrosoft YaHei,Arial">id</tspan></text><text style="fill:#454545;font-family:Arimo,PingFang SC,Mircrosoft YaHei,Arial;font-size:8.00pt" xml:space="preserve"><tspan y="18.5" x="41.7" style="font-family:Arimo,PingFang SC,Mircrosoft YaHei,Arial">Environment</tspan></text></g><g transform="translate(594.000000,76.000000)" id="shape2"><path fill-rule="nonzero" d="M98.0,.0L.0,.0L.0,30.0L98.0,30.0M24.5,.0L24.5,30.0L.0,30.0L.0,.0L98.0,.0L24.5,.0z" fill="#ffffff" stroke="#000000" stroke-width="1"/><text style="fill:#454545;font-family:Arimo,PingFang SC,Mircrosoft YaHei,Arial;font-size:8.00pt" xml:space="preserve"><tspan y="12.0" x="11.0" style="font-family:Arimo,PingFang SC,Mircrosoft YaHei,Arial">i</tspan><tspan y="25.0" x="9.2" style="font-family:Arimo,PingFang SC,Mircrosoft YaHei,Arial">d</tspan></text><text style="fill:#454545;font-family:Arimo,PingFang SC,Mircrosoft YaHei,Arial;font-size:8.00pt" xml:space="preserve"><tspan y="18.5" x="48.1" style="font-family:Arimo,PingFang SC,Mircrosoft YaHei,Arial">Heap</tspan></text></g><g transform="translate(151.000000,246.000000)" id="shape3"><path fill-rule="nonzero" d="M151.0,74.0L151.0,.0L.0,.0L.0,74.0L151.0,74.0z" fill="#ffffff" stroke="#000000" stroke-width="1"/><text style="fill:#454545;font-family:Arimo,PingFang SC,Mircrosoft YaHei,Arial;font-size:12.00pt" xml:space="preserve"><tspan y="42.5" x="41.3" style="font-family:Arimo,PingFang SC,Mircrosoft YaHei,Arial">Lisp code</tspan></text></g><g transform="translate(378.000000,246.000000)" id="shape4"><path fill-rule="nonzero" d="M151.0,74.0L151.0,.0L.0,.0L.0,74.0L151.0,74.0z" fill="#ffffff" stroke="#000000" stroke-width="1"/><text style="fill:#454545;font-family:Arimo,PingFang SC,Mircrosoft YaHei,Arial;font-size:12.00pt" xml:space="preserve"><tspan y="33.0" x="21.3" style="font-family:Arimo,PingFang SC,Mircrosoft YaHei,Arial">Context Syntax </tspan><tspan y="52.0" x="59.4" style="font-family:Arimo,PingFang SC,Mircrosoft YaHei,Arial">Tree</tspan></text></g><g transform="translate(605.000000,246.000000)" id="shape5"><path fill-rule="nonzero" d="M151.0,74.0L151.0,.0L.0,.0L.0,74.0L151.0,74.0z" fill="#ffffff" stroke="#000000" stroke-width="1"/><text style="fill:#454545;font-family:Arimo,PingFang SC,Mircrosoft YaHei,Arial;font-size:12.00pt" xml:space="preserve"><tspan y="33.0" x="22.2" style="font-family:Arimo,PingFang SC,Mircrosoft YaHei,Arial">Abstact Syntax </tspan><tspan y="52.0" x="59.4" style="font-family:Arimo,PingFang SC,Mircrosoft YaHei,Arial">Tree</tspan></text></g><g transform="translate(378.000000,417.000000)" id="shape6"><path fill-rule="nonzero" d="M151.0,74.0L151.0,.0L.0,.0L.0,74.0L151.0,74.0z" fill="#ffffff" stroke="#000000" stroke-width="1"/><text style="fill:#454545;font-family:Arimo,PingFang SC,Mircrosoft YaHei,Arial;font-size:12.00pt" xml:space="preserve"><tspan y="33.0" x="16.4" style="font-family:Arimo,PingFang SC,Mircrosoft YaHei,Arial">Block Immediate  </tspan><tspan y="52.0" x="21.3" style="font-family:Arimo,PingFang SC,Mircrosoft YaHei,Arial">Representation</tspan></text></g><g transform="translate(605.000000,417.000000)" id="shape7"><path fill-rule="nonzero" d="M151.0,74.0L151.0,.0L.0,.0L.0,74.0L151.0,74.0z" fill="#ffffff" stroke="#000000" stroke-width="1"/><text style="fill:#454545;font-family:Arimo,PingFang SC,Mircrosoft YaHei,Arial;font-size:12.00pt" xml:space="preserve"><tspan y="23.5" x="45.3" style="font-family:Arimo,PingFang SC,Mircrosoft YaHei,Arial">Machine </tspan><tspan y="42.5" x="38.2" style="font-family:Arimo,PingFang SC,Mircrosoft YaHei,Arial">Immediate </tspan><tspan y="61.5" x="21.3" style="font-family:Arimo,PingFang SC,Mircrosoft YaHei,Arial">Representation</tspan></text></g><g transform="translate(832.000000,417.000000)" id="shape8"><path fill-rule="nonzero" d="M151.0,74.0L151.0,.0L.0,.0L.0,74.0L151.0,74.0z" fill="#ffffff" stroke="#000000" stroke-width="1"/><text style="fill:#454545;font-family:Arimo,PingFang SC,Mircrosoft YaHei,Arial;font-size:12.00pt" xml:space="preserve"><tspan y="42.5" x="24.0" style="font-family:Arimo,PingFang SC,Mircrosoft YaHei,Arial">Machine Code</tspan></text></g><g transform="translate(302.000000,283.000000)" id="shape9"><path d="M.0,.0L68.0,.0" stroke="#6a8438" fill="none" stroke-width="1"/><path d="M68.0,-4.0L76.0,.0L68.0,4.0L68.0,-4.0" stroke-linecap="round" fill="#6a8438" stroke="#6a8438" stroke-width="1"/></g><g transform="translate(529.000000,283.000000)" id="shape10"><path d="M.0,.0L68.0,.0" stroke="#6a8438" fill="none" stroke-width="1"/><path d="M68.0,-4.0L76.0,.0L68.0,4.0L68.0,-4.0" stroke-linecap="round" fill="#6a8438" stroke="#6a8438" stroke-width="1"/></g><g transform="translate(756.000000,283.000000)" id="shape11"><path d="M.0,.0L28.0,.0L28.0,86.0L-406.0,86.0L-406.0,171.0L-386.0,171.0" stroke="#6a8438" fill="none" stroke-width="1"/><path d="M-386.0,167.0L-378.0,171.0L-386.0,175.0L-386.0,167.0" stroke-linecap="round" fill="#6a8438" stroke="#6a8438" stroke-width="1"/></g><g transform="translate(529.000000,454.000000)" id="shape12"><path d="M.0,.0L68.0,.0" stroke="#6a8438" fill="none" stroke-width="1"/><path d="M68.0,-4.0L76.0,.0L68.0,4.0L68.0,-4.0" stroke-linecap="round" fill="#6a8438" stroke="#6a8438" stroke-width="1"/></g><g transform="translate(756.000000,454.000000)" id="shape13"><path d="M.0,.0L68.0,.0" stroke="#6a8438" fill="none" stroke-width="1"/><path d="M68.0,-4.0L76.0,.0L68.0,4.0L68.0,-4.0" stroke-linecap="round" fill="#6a8438" stroke="#6a8438" stroke-width="1"/></g></g></svg>