<svg xmlns:ev="http://www.w3.org/2001/xml-events" width="1132" xmlns:xlink="http://www.w3.org/1999/xlink" height="804" viewBox="0 0 1132 804" xmlns="http://www.w3.org/2000/svg"><defs/><g transform="translate(5.5,5.5)" id="page1"><rect width="1123" height="794" y="0" fill="none" x="0"/><g transform="translate(423.000000,76.000000)" id="shape1"><path fill-rule="nonzero" stroke="#000000" stroke-width="1" fill="#ffffff" d="M98.0,.0L.0,.0L.0,30.0L98.0,30.0M24.5,.0L24.5,30.0L.0,30.0L.0,.0L98.0,.0L24.5,.0z"/><text style="fill:#454545;font-family:Microsoft YaHei,PingFang SC,Mircrosoft YaHei,Arial;font-size:8.00pt;font-weight:bold" xml:space="preserve"><tspan style="font-family:Microsoft YaHei,PingFang SC,Mircrosoft YaHei,Arial" y="12.0" x="10.6">i</tspan><tspan style="font-family:Microsoft YaHei,PingFang SC,Mircrosoft YaHei,Arial" y="27.0" x="8.6">d</tspan></text><text style="fill:#454545;font-family:Microsoft YaHei,PingFang SC,Mircrosoft YaHei,Arial;font-size:8.00pt;font-weight:bold" xml:space="preserve"><tspan style="font-family:Microsoft YaHei,PingFang SC,Mircrosoft YaHei,Arial" y="12.0" x="31.7">Environme</tspan><tspan style="font-family:Microsoft YaHei,PingFang SC,Mircrosoft YaHei,Arial" y="27.0" x="55.4">nt</tspan></text></g><g transform="translate(594.000000,76.000000)" id="shape2"><path fill-rule="nonzero" stroke="#000000" stroke-width="1" fill="#ffffff" d="M98.0,.0L.0,.0L.0,30.0L98.0,30.0M24.5,.0L24.5,30.0L.0,30.0L.0,.0L98.0,.0L24.5,.0z"/><text style="fill:#454545;font-family:Microsoft YaHei,PingFang SC,Mircrosoft YaHei,Arial;font-size:8.00pt;font-weight:bold" xml:space="preserve"><tspan style="font-family:Microsoft YaHei,PingFang SC,Mircrosoft YaHei,Arial" y="12.0" x="10.6">i</tspan><tspan style="font-family:Microsoft YaHei,PingFang SC,Mircrosoft YaHei,Arial" y="27.0" x="8.6">d</tspan></text><text style="fill:#454545;font-family:Microsoft YaHei,PingFang SC,Mircrosoft YaHei,Arial;font-size:8.00pt;font-weight:bold" xml:space="preserve"><tspan style="font-family:Microsoft YaHei,PingFang SC,Mircrosoft YaHei,Arial" y="19.5" x="46.7">Heap</tspan></text></g><g transform="translate(151.000000,246.000000)" id="shape3"><path fill-rule="nonzero" stroke="#000000" stroke-width="1" fill="#ffffff" d="M151.0,74.0L151.0,.0L.0,.0L.0,74.0L151.0,74.0z"/><text style="fill:#454545;font-family:Microsoft YaHei,PingFang SC,Mircrosoft YaHei,Arial;font-size:10.00pt;font-weight:bold" xml:space="preserve"><tspan style="font-family:Microsoft YaHei,PingFang SC,Mircrosoft YaHei,Arial" y="42.0" x="44.8">Lisp code</tspan></text></g><g transform="translate(378.000000,246.000000)" id="shape4"><path fill-rule="nonzero" stroke="#000000" stroke-width="1" fill="#ffffff" d="M151.0,74.0L151.0,.0L.0,.0L.0,74.0L151.0,74.0z"/><text style="fill:#454545;font-family:Microsoft YaHei,PingFang SC,Mircrosoft YaHei,Arial;font-size:10.00pt;font-weight:bold" xml:space="preserve"><tspan style="font-family:Microsoft YaHei,PingFang SC,Mircrosoft YaHei,Arial" y="42.0" x="9.4">Context Syntax Tree</tspan></text></g><g transform="translate(605.000000,246.000000)" id="shape5"><path fill-rule="nonzero" stroke="#000000" stroke-width="1" fill="#ffffff" d="M151.0,74.0L151.0,.0L.0,.0L.0,74.0L151.0,74.0z"/><text style="fill:#454545;font-family:Microsoft YaHei,PingFang SC,Mircrosoft YaHei,Arial;font-size:10.00pt;font-weight:bold" xml:space="preserve"><tspan style="font-family:Microsoft YaHei,PingFang SC,Mircrosoft YaHei,Arial" y="42.0" x="10.3">Abstact Syntax Tree</tspan></text></g><g transform="translate(378.000000,417.000000)" id="shape6"><path fill-rule="nonzero" stroke="#000000" stroke-width="1" fill="#ffffff" d="M151.0,74.0L151.0,.0L.0,.0L.0,74.0L151.0,74.0z"/><text style="fill:#454545;font-family:Microsoft YaHei,PingFang SC,Mircrosoft YaHei,Arial;font-size:10.00pt;font-weight:bold" xml:space="preserve"><tspan style="font-family:Microsoft YaHei,PingFang SC,Mircrosoft YaHei,Arial" y="33.0" x="20.5">Block Immediate  </tspan><tspan style="font-family:Microsoft YaHei,PingFang SC,Mircrosoft YaHei,Arial" y="51.0" x="25.6">Representation</tspan></text></g><g transform="translate(605.000000,417.000000)" id="shape7"><path fill-rule="nonzero" stroke="#000000" stroke-width="1" fill="#ffffff" d="M151.0,74.0L151.0,.0L.0,.0L.0,74.0L151.0,74.0z"/><text style="fill:#454545;font-family:Microsoft YaHei,PingFang SC,Mircrosoft YaHei,Arial;font-size:10.00pt;font-weight:bold" xml:space="preserve"><tspan style="font-family:Microsoft YaHei,PingFang SC,Mircrosoft YaHei,Arial" y="33.0" x="10.5">Machine Immediate </tspan><tspan style="font-family:Microsoft YaHei,PingFang SC,Mircrosoft YaHei,Arial" y="51.0" x="25.6">Representation</tspan></text></g><g transform="translate(832.000000,417.000000)" id="shape8"><path fill-rule="nonzero" stroke="#000000" stroke-width="1" fill="#ffffff" d="M151.0,74.0L151.0,.0L.0,.0L.0,74.0L151.0,74.0z"/><text style="fill:#454545;font-family:Microsoft YaHei,PingFang SC,Mircrosoft YaHei,Arial;font-size:10.00pt;font-weight:bold" xml:space="preserve"><tspan style="font-family:Microsoft YaHei,PingFang SC,Mircrosoft YaHei,Arial" y="42.0" x="28.9">Machine Code</tspan></text></g><g transform="translate(302.000000,283.000000)" id="shape9"><path stroke="#3e7bd8" stroke-width="1" fill="none" d="M.0,.0L70.0,.0"/><path stroke-linecap="round" stroke-width="1" stroke="#3e7bd8" fill="#3e7bd8" d="M70.0,-3.0L76.0,.0L70.0,3.0L70.0,-3.0"/></g><g transform="translate(529.000000,283.000000)" id="shape10"><path stroke="#3e7bd8" stroke-width="1" fill="none" d="M.0,.0L70.0,.0"/><path stroke-linecap="round" stroke-width="1" stroke="#3e7bd8" fill="#3e7bd8" d="M70.0,-3.0L76.0,.0L70.0,3.0L70.0,-3.0"/></g><g transform="translate(756.000000,283.000000)" id="shape11"><path stroke="#3e7bd8" stroke-width="1" fill="none" d="M.0,.0L28.0,.0L28.0,86.0L-406.0,86.0L-406.0,171.0L-384.0,171.0"/><path stroke-linecap="round" stroke-width="1" stroke="#3e7bd8" fill="#3e7bd8" d="M-384.0,168.0L-378.0,171.0L-384.0,174.0L-384.0,168.0"/></g><g transform="translate(529.000000,454.000000)" id="shape12"><path stroke="#3e7bd8" stroke-width="1" fill="none" d="M.0,.0L70.0,.0"/><path stroke-linecap="round" stroke-width="1" stroke="#3e7bd8" fill="#3e7bd8" d="M70.0,-3.0L76.0,.0L70.0,3.0L70.0,-3.0"/></g><g transform="translate(756.000000,454.000000)" id="shape13"><path stroke="#3e7bd8" stroke-width="1" fill="none" d="M.0,.0L70.0,.0"/><path stroke-linecap="round" stroke-width="1" stroke="#3e7bd8" fill="#3e7bd8" d="M70.0,-3.0L76.0,.0L70.0,3.0L70.0,-3.0"/></g></g></svg>