<svg xmlns:ev="http://www.w3.org/2001/xml-events" width="1036" xmlns:xlink="http://www.w3.org/1999/xlink" height="831" viewBox="0 0 1036 831" xmlns="http://www.w3.org/2000/svg"><defs/><g transform="translate(5.5,5.5)" id="page1"><rect y="0" width="1026" height="821" x="0" fill="#ffffff"/><g transform="translate(285.000000,39.013000)" id="shape1"><path d="M11.3,.0L86.0,.0C92.6,.0,98.0,5.1,98.0,11.3L98.0,124.0C98.0,130.6,92.6,136.0,86.0,136.0L11.3,136.0C5.1,136.0,.0,130.6,.0,124.0L.0,11.3C.0,5.1,5.1,.0,11.3,.0z" fill-rule="nonzero" fill="#b8e366"/><path d="M11.3,.0L86.0,.0C92.6,.0,98.0,5.1,98.0,11.3L98.0,124.0C98.0,130.6,92.6,136.0,86.0,136.0L11.3,136.0C5.1,136.0,.0,130.6,.0,124.0L.0,11.3C.0,5.1,5.1,.0,11.3,.0zM.0,44.9L98.0,44.9L.0,44.9zM.0,90.7L98.0,90.7L.0,90.7z" stroke="#6a8438" fill="none" stroke-width="2"/><text style="fill:#303030;font-family:Microsoft YaHei,PingFang SC,Mircrosoft YaHei,Arial;font-size:12.00pt" xml:space="preserve"><tspan y="28.7" style="font-family:Microsoft YaHei,PingFang SC,Mircrosoft YaHei,Arial" x="32.6">SICL</tspan></text></g><g transform="translate(190.000000,474.513000)" id="shape2"><path d="M11.3,.0L86.0,.0C92.6,.0,98.0,5.1,98.0,11.3L98.0,124.0C98.0,130.6,92.6,136.0,86.0,136.0L11.3,136.0C5.1,136.0,.0,130.6,.0,124.0L.0,11.3C.0,5.1,5.1,.0,11.3,.0z" fill-rule="nonzero" fill="#b8e366"/><path d="M11.3,.0L86.0,.0C92.6,.0,98.0,5.1,98.0,11.3L98.0,124.0C98.0,130.6,92.6,136.0,86.0,136.0L11.3,136.0C5.1,136.0,.0,130.6,.0,124.0L.0,11.3C.0,5.1,5.1,.0,11.3,.0zM.0,44.9L98.0,44.9L.0,44.9zM.0,90.7L98.0,90.7L.0,90.7z" stroke="#6a8438" fill="none" stroke-width="2"/><text style="fill:#303030;font-family:Microsoft YaHei,PingFang SC,Mircrosoft YaHei,Arial;font-size:12.00pt" xml:space="preserve"><tspan y="28.7" style="font-family:Microsoft YaHei,PingFang SC,Mircrosoft YaHei,Arial" x="15.6">Clappers</tspan></text><text style="fill:#303030;font-family:Microsoft YaHei,PingFang SC,Mircrosoft YaHei,Arial;font-size:8.00pt" xml:space="preserve"><tspan y="65.0" style="font-family:Microsoft YaHei,PingFang SC,Mircrosoft YaHei,Arial" x="9.0">SSA optimizing </tspan><tspan y="80.0" style="font-family:Microsoft YaHei,PingFang SC,Mircrosoft YaHei,Arial" x="26.0">compiler</tspan></text></g><g transform="translate(190.000000,646.013000)" id="shape3"><path d="M11.3,.0L86.0,.0C92.6,.0,98.0,5.1,98.0,11.3L98.0,124.0C98.0,130.6,92.6,136.0,86.0,136.0L11.3,136.0C5.1,136.0,.0,130.6,.0,124.0L.0,11.3C.0,5.1,5.1,.0,11.3,.0z" fill-rule="nonzero" fill="#b8e366"/><path d="M11.3,.0L86.0,.0C92.6,.0,98.0,5.1,98.0,11.3L98.0,124.0C98.0,130.6,92.6,136.0,86.0,136.0L11.3,136.0C5.1,136.0,.0,130.6,.0,124.0L.0,11.3C.0,5.1,5.1,.0,11.3,.0zM.0,44.9L98.0,44.9L.0,44.9zM.0,90.7L98.0,90.7L.0,90.7z" stroke="#6a8438" fill="none" stroke-width="2"/><text style="fill:#303030;font-family:Microsoft YaHei,PingFang SC,Mircrosoft YaHei,Arial;font-size:12.00pt" xml:space="preserve"><tspan y="28.7" style="font-family:Microsoft YaHei,PingFang SC,Mircrosoft YaHei,Arial" x="21.9">Clector</tspan></text><text style="fill:#303030;font-family:Microsoft YaHei,PingFang SC,Mircrosoft YaHei,Arial;font-size:8.00pt" xml:space="preserve"><tspan y="57.5" style="font-family:Microsoft YaHei,PingFang SC,Mircrosoft YaHei,Arial" x="24.2">SSE, AVX, </tspan><tspan y="72.5" style="font-family:Microsoft YaHei,PingFang SC,Mircrosoft YaHei,Arial" x="13.0">Neon.. Vector </tspan><tspan y="87.5" style="font-family:Microsoft YaHei,PingFang SC,Mircrosoft YaHei,Arial" x="31.8">Fusion</tspan></text></g><g transform="translate(39.000000,646.013000)" id="shape4"><path d="M11.3,.0L86.0,.0C92.6,.0,98.0,5.1,98.0,11.3L98.0,124.0C98.0,130.6,92.6,136.0,86.0,136.0L11.3,136.0C5.1,136.0,.0,130.6,.0,124.0L.0,11.3C.0,5.1,5.1,.0,11.3,.0z" fill-rule="nonzero" fill="#b8e366"/><path d="M11.3,.0L86.0,.0C92.6,.0,98.0,5.1,98.0,11.3L98.0,124.0C98.0,130.6,92.6,136.0,86.0,136.0L11.3,136.0C5.1,136.0,.0,130.6,.0,124.0L.0,11.3C.0,5.1,5.1,.0,11.3,.0zM.0,44.9L98.0,44.9L.0,44.9zM.0,90.7L98.0,90.7L.0,90.7z" stroke="#6a8438" fill="none" stroke-width="2"/><text style="fill:#303030;font-family:Microsoft YaHei,PingFang SC,Mircrosoft YaHei,Arial;font-size:12.00pt" xml:space="preserve"><tspan y="28.7" style="font-family:Microsoft YaHei,PingFang SC,Mircrosoft YaHei,Arial" x="24.9">Massa</tspan></text><text style="fill:#303030;font-family:Microsoft YaHei,PingFang SC,Mircrosoft YaHei,Arial;font-size:8.00pt" xml:space="preserve"><tspan y="65.0" style="font-family:Microsoft YaHei,PingFang SC,Mircrosoft YaHei,Arial" x="13.7">SSA structure </tspan><tspan y="80.0" style="font-family:Microsoft YaHei,PingFang SC,Mircrosoft YaHei,Arial" x="14.2">and methods</tspan></text></g><g transform="translate(585.000000,136.013000)" id="shape5"><path d="M11.3,.0L86.0,.0C92.6,.0,98.0,5.1,98.0,11.3L98.0,124.0C98.0,130.6,92.6,136.0,86.0,136.0L11.3,136.0C5.1,136.0,.0,130.6,.0,124.0L.0,11.3C.0,5.1,5.1,.0,11.3,.0z" fill-rule="nonzero" fill="#b8e366"/><path d="M11.3,.0L86.0,.0C92.6,.0,98.0,5.1,98.0,11.3L98.0,124.0C98.0,130.6,92.6,136.0,86.0,136.0L11.3,136.0C5.1,136.0,.0,130.6,.0,124.0L.0,11.3C.0,5.1,5.1,.0,11.3,.0zM.0,44.9L98.0,44.9L.0,44.9zM.0,90.7L98.0,90.7L.0,90.7z" stroke="#6a8438" fill="none" stroke-width="2"/><text style="fill:#303030;font-family:Microsoft YaHei,PingFang SC,Mircrosoft YaHei,Arial;font-size:12.00pt" xml:space="preserve"><tspan y="28.7" style="font-family:Microsoft YaHei,PingFang SC,Mircrosoft YaHei,Arial" x="14.3">Clostrum</tspan></text><text style="fill:#303030;font-family:Microsoft YaHei,PingFang SC,Mircrosoft YaHei,Arial;font-size:8.00pt" xml:space="preserve"><tspan y="65.0" style="font-family:Microsoft YaHei,PingFang SC,Mircrosoft YaHei,Arial" x="32.0">Global </tspan><tspan y="80.0" style="font-family:Microsoft YaHei,PingFang SC,Mircrosoft YaHei,Arial" x="15.5">environment</tspan></text></g><g transform="translate(121.274000,303.013000)" id="shape6"><path d="M11.3,.0L86.0,.0C92.6,.0,98.0,5.1,98.0,11.3L98.0,124.0C98.0,130.6,92.6,136.0,86.0,136.0L11.3,136.0C5.1,136.0,.0,130.6,.0,124.0L.0,11.3C.0,5.1,5.1,.0,11.3,.0z" fill-rule="nonzero" fill="#b8e366"/><path d="M11.3,.0L86.0,.0C92.6,.0,98.0,5.1,98.0,11.3L98.0,124.0C98.0,130.6,92.6,136.0,86.0,136.0L11.3,136.0C5.1,136.0,.0,130.6,.0,124.0L.0,11.3C.0,5.1,5.1,.0,11.3,.0zM.0,44.9L98.0,44.9L.0,44.9zM.0,90.7L98.0,90.7L.0,90.7z" stroke="#6a8438" fill="none" stroke-width="2"/><text style="fill:#303030;font-family:Microsoft YaHei,PingFang SC,Mircrosoft YaHei,Arial;font-size:12.00pt" xml:space="preserve"><tspan y="28.7" style="font-family:Microsoft YaHei,PingFang SC,Mircrosoft YaHei,Arial" x="23.2">Cleavir</tspan></text><text style="fill:#303030;font-family:Microsoft YaHei,PingFang SC,Mircrosoft YaHei,Arial;font-size:8.00pt" xml:space="preserve"><tspan y="65.0" style="font-family:Microsoft YaHei,PingFang SC,Mircrosoft YaHei,Arial" x="25.0">Compiler </tspan><tspan y="80.0" style="font-family:Microsoft YaHei,PingFang SC,Mircrosoft YaHei,Arial" x="20.8">framework</tspan></text></g><g transform="translate(735.000000,136.013000)" id="shape7"><path d="M11.3,.0L86.0,.0C92.6,.0,98.0,5.1,98.0,11.3L98.0,124.0C98.0,130.6,92.6,136.0,86.0,136.0L11.3,136.0C5.1,136.0,.0,130.6,.0,124.0L.0,11.3C.0,5.1,5.1,.0,11.3,.0z" fill-rule="nonzero" fill="#b8e366"/><path d="M11.3,.0L86.0,.0C92.6,.0,98.0,5.1,98.0,11.3L98.0,124.0C98.0,130.6,92.6,136.0,86.0,136.0L11.3,136.0C5.1,136.0,.0,130.6,.0,124.0L.0,11.3C.0,5.1,5.1,.0,11.3,.0zM.0,44.9L98.0,44.9L.0,44.9zM.0,90.7L98.0,90.7L.0,90.7z" stroke="#6a8438" fill="none" stroke-width="2"/><text style="fill:#303030;font-family:Microsoft YaHei,PingFang SC,Mircrosoft YaHei,Arial;font-size:12.00pt" xml:space="preserve"><tspan y="28.7" style="font-family:Microsoft YaHei,PingFang SC,Mircrosoft YaHei,Arial" x="18.8">Eclector</tspan></text><text style="fill:#303030;font-family:Microsoft YaHei,PingFang SC,Mircrosoft YaHei,Arial;font-size:8.00pt" xml:space="preserve"><tspan y="72.5" style="font-family:Microsoft YaHei,PingFang SC,Mircrosoft YaHei,Arial" x="18.6">Lisp Reader</tspan></text></g><g transform="translate(282.000000,303.013000)" id="shape8"><path d="M11.3,.0L92.0,.0C98.6,.0,104.0,5.1,104.0,11.3L104.0,124.0C104.0,130.6,98.6,136.0,92.0,136.0L11.3,136.0C5.1,136.0,.0,130.6,.0,124.0L.0,11.3C.0,5.1,5.1,.0,11.3,.0z" fill-rule="nonzero" fill="#b8e366"/><path d="M11.3,.0L92.0,.0C98.6,.0,104.0,5.1,104.0,11.3L104.0,124.0C104.0,130.6,98.6,136.0,92.0,136.0L11.3,136.0C5.1,136.0,.0,130.6,.0,124.0L.0,11.3C.0,5.1,5.1,.0,11.3,.0zM.0,44.9L104.0,44.9L.0,44.9zM.0,90.7L104.0,90.7L.0,90.7z" stroke="#6a8438" fill="none" stroke-width="2"/><text style="fill:#303030;font-family:Microsoft YaHei,PingFang SC,Mircrosoft YaHei,Arial;font-size:12.00pt" xml:space="preserve"><tspan y="28.7" style="font-family:Microsoft YaHei,PingFang SC,Mircrosoft YaHei,Arial" x="8.2">Clordecone</tspan></text><text style="fill:#303030;font-family:Microsoft YaHei,PingFang SC,Mircrosoft YaHei,Arial;font-size:8.00pt" xml:space="preserve"><tspan y="72.5" style="font-family:Microsoft YaHei,PingFang SC,Mircrosoft YaHei,Arial" x="13.6">Lisp Debugger</tspan></text></g><g transform="translate(435.000000,136.013000)" id="shape9"><path d="M11.3,.0L86.0,.0C92.6,.0,98.0,5.1,98.0,11.3L98.0,124.0C98.0,130.6,92.6,136.0,86.0,136.0L11.3,136.0C5.1,136.0,.0,130.6,.0,124.0L.0,11.3C.0,5.1,5.1,.0,11.3,.0z" fill-rule="nonzero" fill="#b8e366"/><path d="M11.3,.0L86.0,.0C92.6,.0,98.0,5.1,98.0,11.3L98.0,124.0C98.0,130.6,92.6,136.0,86.0,136.0L11.3,136.0C5.1,136.0,.0,130.6,.0,124.0L.0,11.3C.0,5.1,5.1,.0,11.3,.0zM.0,44.9L98.0,44.9L.0,44.9zM.0,90.7L98.0,90.7L.0,90.7z" stroke="#6a8438" fill="none" stroke-width="2"/><text style="fill:#303030;font-family:Microsoft YaHei,PingFang SC,Mircrosoft YaHei,Arial;font-size:12.00pt" xml:space="preserve"><tspan y="28.7" style="font-family:Microsoft YaHei,PingFang SC,Mircrosoft YaHei,Arial" x="28.5">Clash</tspan></text><text style="fill:#303030;font-family:Microsoft YaHei,PingFang SC,Mircrosoft YaHei,Arial;font-size:8.00pt" xml:space="preserve"><tspan y="65.0" style="font-family:Microsoft YaHei,PingFang SC,Mircrosoft YaHei,Arial" x="26.6">Garbage </tspan><tspan y="80.0" style="font-family:Microsoft YaHei,PingFang SC,Mircrosoft YaHei,Arial" x="25.4">Collector</tspan></text></g><g transform="translate(442.726000,303.013000)" id="shape10"><path d="M11.3,.0L86.0,.0C92.6,.0,98.0,5.1,98.0,11.3L98.0,124.0C98.0,130.6,92.6,136.0,86.0,136.0L11.3,136.0C5.1,136.0,.0,130.6,.0,124.0L.0,11.3C.0,5.1,5.1,.0,11.3,.0z" fill-rule="nonzero" fill="#b8e366"/><path d="M11.3,.0L86.0,.0C92.6,.0,98.0,5.1,98.0,11.3L98.0,124.0C98.0,130.6,92.6,136.0,86.0,136.0L11.3,136.0C5.1,136.0,.0,130.6,.0,124.0L.0,11.3C.0,5.1,5.1,.0,11.3,.0zM.0,44.9L98.0,44.9L.0,44.9zM.0,90.7L98.0,90.7L.0,90.7z" stroke="#6a8438" fill="none" stroke-width="2"/><text style="fill:#303030;font-family:Microsoft YaHei,PingFang SC,Mircrosoft YaHei,Arial;font-size:12.00pt" xml:space="preserve"><tspan y="28.7" style="font-family:Microsoft YaHei,PingFang SC,Mircrosoft YaHei,Arial" x="21.6">Tazivor</tspan></text><text style="fill:#303030;font-family:Microsoft YaHei,PingFang SC,Mircrosoft YaHei,Arial;font-size:8.00pt" xml:space="preserve"><tspan y="72.5" style="font-family:Microsoft YaHei,PingFang SC,Mircrosoft YaHei,Arial" x="24.5">Inspector</tspan></text></g><g transform="translate(341.000000,646.013000)" id="shape11"><path d="M11.3,.0L86.0,.0C92.6,.0,98.0,5.1,98.0,11.3L98.0,124.0C98.0,130.6,92.6,136.0,86.0,136.0L11.3,136.0C5.1,136.0,.0,130.6,.0,124.0L.0,11.3C.0,5.1,5.1,.0,11.3,.0z" fill-rule="nonzero" fill="#b8e366"/><path d="M11.3,.0L86.0,.0C92.6,.0,98.0,5.1,98.0,11.3L98.0,124.0C98.0,130.6,92.6,136.0,86.0,136.0L11.3,136.0C5.1,136.0,.0,130.6,.0,124.0L.0,11.3C.0,5.1,5.1,.0,11.3,.0zM.0,44.9L98.0,44.9L.0,44.9zM.0,90.7L98.0,90.7L.0,90.7z" stroke="#6a8438" fill="none" stroke-width="2"/><text style="fill:#303030;font-family:Arimo,PingFang SC,Mircrosoft YaHei,Arial;font-size:12.00pt" xml:space="preserve"><tspan y="28.2" style="font-family:Arimo,PingFang SC,Mircrosoft YaHei,Arial" x="23.7">Cluster</tspan></text><text style="fill:#303030;font-family:Arimo,PingFang SC,Mircrosoft YaHei,Arial;font-size:8.00pt" xml:space="preserve"><tspan y="71.5" style="font-family:Arimo,PingFang SC,Mircrosoft YaHei,Arial" x="23.0">Assembler</tspan></text></g><path d="M.0,.0L.0,.0" transform="translate(491.726000,439.013000)" stroke="#6a8438" fill="none" id="shape12" stroke-width="1"/><g transform="translate(869.000000,136.013000)" id="shape13"><path d="M11.3,.0L86.0,.0C92.6,.0,98.0,5.1,98.0,11.3L98.0,124.0C98.0,130.6,92.6,136.0,86.0,136.0L11.3,136.0C5.1,136.0,.0,130.6,.0,124.0L.0,11.3C.0,5.1,5.1,.0,11.3,.0z" fill-rule="nonzero" fill="#b8e366"/><path d="M11.3,.0L86.0,.0C92.6,.0,98.0,5.1,98.0,11.3L98.0,124.0C98.0,130.6,92.6,136.0,86.0,136.0L11.3,136.0C5.1,136.0,.0,130.6,.0,124.0L.0,11.3C.0,5.1,5.1,.0,11.3,.0zM.0,44.9L98.0,44.9L.0,44.9zM.0,90.7L98.0,90.7L.0,90.7z" stroke="#6a8438" fill="none" stroke-width="2"/><text style="fill:#303030;font-family:Arimo,PingFang SC,Mircrosoft YaHei,Arial;font-size:12.00pt" xml:space="preserve"><tspan y="28.2" style="font-family:Arimo,PingFang SC,Mircrosoft YaHei,Arial" x="29.9">Clear</tspan></text><text style="fill:#303030;font-family:Arimo,PingFang SC,Mircrosoft YaHei,Arial;font-size:8.00pt" xml:space="preserve"><tspan y="71.5" style="font-family:Arimo,PingFang SC,Mircrosoft YaHei,Arial" x="17.9">Lisp Listener</tspan></text></g><g transform="translate(918.000000,136.013000)" id="shape14"><path d="M.0,.0L.0,-29.0L-527.0,-29.0" stroke="#6a8438" fill="none" stroke-width="1"/><path d="M-527.0,-25.0L-535.0,-29.0L-527.0,-33.0L-527.0,-25.0" stroke="#6a8438" fill="#6a8438" stroke-linecap="round" stroke-width="1"/></g><g transform="translate(784.000000,136.013000)" id="shape15"><path d="M.0,.0L.0,-29.0L-393.0,-29.0" stroke="#6a8438" fill="none" stroke-width="1"/><path d="M-393.0,-25.0L-401.0,-29.0L-393.0,-33.0L-393.0,-25.0" stroke="#6a8438" fill="#6a8438" stroke-linecap="round" stroke-width="1"/></g><g transform="translate(634.000000,136.013000)" id="shape16"><path d="M.0,.0L.0,-29.0L-243.0,-29.0" stroke="#6a8438" fill="none" stroke-width="1"/><path d="M-243.0,-25.0L-251.0,-29.0L-243.0,-33.0L-243.0,-25.0" stroke="#6a8438" fill="#6a8438" stroke-linecap="round" stroke-width="1"/></g><g transform="translate(484.000000,136.013000)" id="shape17"><path d="M.0,.0L.0,-29.0L-93.0,-29.0" stroke="#6a8438" fill="none" stroke-width="1"/><path d="M-93.0,-25.0L-101.0,-29.0L-93.0,-33.0L-93.0,-25.0" stroke="#6a8438" fill="#6a8438" stroke-linecap="round" stroke-width="1"/></g><g transform="translate(491.726000,303.013000)" id="shape18"><path d="M.0,.0L.0,-19.0L-157.7,-19.0L-157.7,-120.0" stroke="#6a8438" fill="none" stroke-width="1"/><path d="M-161.7,-120.0L-157.7,-128.0L-153.7,-120.0L-161.7,-120.0" stroke="#6a8438" fill="#6a8438" stroke-linecap="round" stroke-width="1"/></g><g transform="translate(334.000000,303.013000)" id="shape19"><path d="M.0,.0L.0,-120.0" stroke="#6a8438" fill="none" stroke-width="1"/><path d="M-4.0,-120.0L.0,-128.0L4.0,-120.0L-4.0,-120.0" stroke="#6a8438" fill="#6a8438" stroke-linecap="round" stroke-width="1"/></g><g transform="translate(170.274000,303.013000)" id="shape20"><path d="M.0,.0L.0,-19.0L163.7,-19.0L163.7,-120.0" stroke="#6a8438" fill="none" stroke-width="1"/><path d="M159.7,-120.0L163.7,-128.0L167.7,-120.0L159.7,-120.0" stroke="#6a8438" fill="#6a8438" stroke-linecap="round" stroke-width="1"/></g><g transform="translate(239.000000,474.513000)" id="shape21"><path d="M.0,.0L.0,-17.5L-68.7,-17.5L-68.7,-27.5" stroke="#6a8438" fill="none" stroke-width="1"/><path d="M-72.7,-27.5L-68.7,-35.5L-64.7,-27.5L-72.7,-27.5" stroke="#6a8438" fill="#6a8438" stroke-linecap="round" stroke-width="1"/></g><g transform="translate(88.000000,646.013000)" id="shape22"><path d="M.0,.0L.0,-15.0L151.0,-15.0L151.0,-27.5" stroke="#6a8438" fill="none" stroke-width="1"/><path d="M147.0,-27.5L151.0,-35.5L155.0,-27.5L147.0,-27.5" stroke="#6a8438" fill="#6a8438" stroke-linecap="round" stroke-width="1"/></g><g transform="translate(390.000000,646.013000)" id="shape23"><path d="M.0,.0L.0,-15.0L-151.0,-15.0L-151.0,-27.5" stroke="#6a8438" fill="none" stroke-width="1"/><path d="M-155.0,-27.5L-151.0,-35.5L-147.0,-27.5L-155.0,-27.5" stroke="#6a8438" fill="#6a8438" stroke-linecap="round" stroke-width="1"/></g><g transform="translate(239.000000,646.013000)" id="shape24"><path d="M.0,.0L.0,-27.5" stroke="#6a8438" fill="none" stroke-width="1"/><path d="M-4.0,-27.5L.0,-35.5L4.0,-27.5L-4.0,-27.5" stroke="#6a8438" fill="#6a8438" stroke-linecap="round" stroke-width="1"/></g></g></svg>