<svg xmlns:xlink="http://www.w3.org/1999/xlink" height="1652" viewBox="0 0 1036 1652" width="1036" xmlns:ev="http://www.w3.org/2001/xml-events" xmlns="http://www.w3.org/2000/svg"><defs><linearGradient x1="0%" id="lg1" y2="100%" x2="0%" y1="0%"><stop offset="0.00" stop-color="#71b3ff"/><stop offset="0.46" stop-color="#26a1ff"/><stop offset="1.00" stop-color="#2191e7"/></linearGradient></defs><g id="page1" transform="translate(5.5,5.5)"><rect y="0" height="1642" width="1026" fill="#ffffff" x="0"/><g id="group1"><path id="shape2" fill="#ffffff" fill-rule="nonzero" d="M.0,.0L1026.0,.0L1026.0,1642.0L.0,1642.0L.0,.0z"/><path fill-opacity="0.10" id="shape3" transform="translate(117.931877,469.425633)" fill="#00aeee" fill-rule="nonzero" d="M.0,109.1C.0,48.9,21.4,.0,47.8,.0C74.1,.0,95.6,48.9,95.6,109.1C95.6,169.4,74.1,218.3,47.8,218.3C21.4,218.3,.0,169.4,.0,109.1z"/><path fill-opacity="0.10" id="shape4" transform="translate(132.618195,800.995514)" fill="#00aeee" fill-rule="nonzero" d="M.0,342.0C.0,153.1,67.1,.0,149.8,.0C232.5,.0,299.5,153.1,299.5,342.0C299.5,530.9,232.5,684.1,149.8,684.1C67.1,684.1,.0,530.9,.0,342.0z"/><path fill-opacity="0.10" id="shape5" transform="translate(367.859475,746.405582)" fill="#00aeee" fill-rule="nonzero" d="M.0,174.2C.0,78.0,34.1,.0,76.3,.0C118.3,.0,152.5,78.0,152.5,174.2C152.5,270.3,118.3,348.4,76.3,348.4C34.1,348.4,.0,270.3,.0,174.2z"/><path fill-opacity="0.10" id="shape6" transform="translate(612.134685,557.890846)" fill="#00aeee" fill-rule="nonzero" d="M.0,127.7C.0,57.2,25.0,.0,55.9,.0C86.8,.0,111.9,57.2,111.9,127.7C111.9,198.2,86.8,255.5,55.9,255.5C25.0,255.5,.0,198.2,.0,127.7z"/><path fill-opacity="0.10" id="shape7" transform="translate(650.819399,1057.026006)" fill="#00aeee" fill-rule="nonzero" d="M.0,94.4C.0,42.2,18.5,.0,41.3,.0C64.2,.0,82.7,42.2,82.7,94.4C82.7,146.5,64.2,188.8,41.3,188.8C18.5,188.8,.0,146.5,.0,94.4z"/><path fill-opacity="0.10" id="shape8" transform="translate(897.449946,1042.321239)" fill="#00aeee" fill-rule="nonzero" d="M.0,67.1C.0,30.0,13.2,.0,29.4,.0C45.6,.0,58.8,30.0,58.8,67.1C58.8,104.2,45.6,134.3,29.4,134.3C13.2,134.3,.0,104.2,.0,67.1z"/><path fill-opacity="0.10" id="shape9" transform="translate(941.166011,594.340455)" fill="#00aeee" fill-rule="nonzero" d="M.0,33.5C.0,15.0,6.6,.0,14.7,.0C22.8,.0,29.4,15.0,29.4,33.5C29.4,52.1,22.8,67.1,14.7,67.1C6.6,67.1,.0,52.1,.0,33.5z"/><path fill-opacity="0.10" id="shape10" transform="translate(588.370217,1073.747313)" fill="#00aeee" fill-rule="nonzero" d="M.0,35.7C.0,16.0,7.0,.0,15.6,.0C24.2,.0,31.2,16.0,31.2,35.7C31.2,55.4,24.2,71.4,15.6,71.4C7.0,71.4,.0,55.4,.0,35.7z"/><path fill-opacity="0.10" id="shape11" transform="translate(40.753079,616.375356)" fill="#00aeee" fill-rule="nonzero" d="M.0,69.2C.0,30.9,13.6,.0,30.3,.0C47.1,.0,60.6,30.9,60.6,69.2C60.6,107.4,47.1,138.5,30.3,138.5C13.6,138.5,.0,107.4,.0,69.2z"/><path fill-opacity="0.10" id="shape12" transform="translate(24.214677,1124.106878)" fill="#00aeee" fill-rule="nonzero" d="M.0,52.5C.0,23.5,10.3,.0,23.0,.0C35.6,.0,46.0,23.5,46.0,52.5C46.0,81.4,35.6,104.9,23.0,104.9C10.3,104.9,.0,81.4,.0,52.5z"/><path fill-opacity="0.10" id="shape13" transform="translate(305.366072,687.685199)" fill="#00aeee" fill-rule="nonzero" d="M.0,37.8C.0,16.9,7.4,.0,16.5,.0C25.7,.0,33.1,16.9,33.1,37.8C33.1,58.6,25.7,75.5,16.5,75.5C7.4,75.5,.0,58.6,.0,37.8z"/><path fill-opacity="0.10" id="shape14" transform="translate(468.898006,687.685199)" fill="#00aeee" fill-rule="nonzero" d="M.0,63.0C.0,28.2,12.3,.0,27.6,.0C42.8,.0,55.1,28.2,55.1,63.0C55.1,97.7,42.8,125.9,27.6,125.9C12.3,125.9,.0,97.7,.0,63.0z"/><path fill-opacity="0.10" id="shape15" transform="translate(490.948900,935.257010)" fill="#00aeee" fill-rule="nonzero" d="M.0,50.4C.0,22.5,9.9,.0,22.1,.0C34.2,.0,44.1,22.5,44.1,50.4C44.1,78.2,34.2,100.7,22.1,100.7C9.9,100.7,.0,78.2,.0,50.4z"/><path fill-opacity="0.10" id="shape16" transform="translate(380.694171,1334.005955)" fill="#00aeee" fill-rule="nonzero" d="M.0,90.2C.0,40.3,17.7,.0,39.5,.0C61.3,.0,79.0,40.3,79.0,90.2C79.0,140.0,61.3,180.4,39.5,180.4C17.7,180.4,.0,140.0,.0,90.2z"/><path fill-opacity="0.10" id="shape17" transform="translate(862.758732,92.711425)" fill="#00aeee" fill-rule="nonzero" d="M.0,109.1C.0,48.9,21.4,.0,47.8,.0C74.1,.0,95.6,48.9,95.6,109.1C95.6,169.4,74.1,218.3,47.8,218.3C21.4,218.3,.0,169.4,.0,109.1z"/><path fill-opacity="0.10" id="shape18" transform="translate(940.261541,239.560411)" fill="#00aeee" fill-rule="nonzero" d="M.0,35.7C.0,16.0,7.0,.0,15.6,.0C24.2,.0,31.2,16.0,31.2,35.7C31.2,55.4,24.2,71.4,15.6,71.4C7.0,71.4,.0,55.4,.0,35.7z"/><path fill-opacity="0.10" id="shape19" transform="translate(593.968893,509.310388)" fill="#00aeee" fill-rule="nonzero" d="M.0,69.2C.0,30.9,13.6,.0,30.3,.0C47.1,.0,60.6,30.9,60.6,69.2C60.6,107.4,47.1,138.5,30.3,138.5C13.6,138.5,.0,107.4,.0,69.2z"/><path fill-opacity="0.10" id="shape20" transform="translate(970.299743,1305.229905)" fill="#00aeee" fill-rule="nonzero" d="M.0,35.7C.0,16.0,7.0,.0,15.6,.0C24.2,.0,31.2,16.0,31.2,35.7C31.2,55.4,24.2,71.4,15.6,71.4C7.0,71.4,.0,55.4,.0,35.7z"/></g><g id="shape21" transform="translate(83.000000,52.513000)"><path fill="url(#lg1)" fill-rule="nonzero" d="M11.3,.0L86.0,.0C92.6,.0,98.0,5.1,98.0,11.3L98.0,97.0C98.0,103.6,92.6,109.0,86.0,109.0L11.3,109.0C5.1,109.0,.0,103.6,.0,97.0L.0,11.3C.0,5.1,5.1,.0,11.3,.0z"/><path fill="none" stroke="#26a1ff" stroke-width="1" d="M11.3,.0L86.0,.0C92.6,.0,98.0,5.1,98.0,11.3L98.0,97.0C98.0,103.6,92.6,109.0,86.0,109.0L11.3,109.0C5.1,109.0,.0,103.6,.0,97.0L.0,11.3C.0,5.1,5.1,.0,11.3,.0zM.0,36.0L98.0,36.0L.0,36.0zM.0,72.7L98.0,72.7L.0,72.7z"/><text style="fill:#ffffff;font-family:Arimo,PingFang SC,Mircrosoft YaHei,Arial;font-size:12.00pt" xml:space="preserve"><tspan y="23.7" style="font-family:Arimo,PingFang SC,Mircrosoft YaHei,Arial" x="31.2">SICL</tspan></text></g><g id="shape22" transform="translate(679.726000,570.013000)"><path fill="url(#lg1)" fill-rule="nonzero" d="M11.3,.0L86.0,.0C92.6,.0,98.0,5.1,98.0,11.3L98.0,98.0C98.0,104.6,92.6,110.0,86.0,110.0L11.3,110.0C5.1,110.0,.0,104.6,.0,98.0L.0,11.3C.0,5.1,5.1,.0,11.3,.0z"/><path fill="none" stroke="#26a1ff" stroke-width="1" d="M11.3,.0L86.0,.0C92.6,.0,98.0,5.1,98.0,11.3L98.0,98.0C98.0,104.6,92.6,110.0,86.0,110.0L11.3,110.0C5.1,110.0,.0,104.6,.0,98.0L.0,11.3C.0,5.1,5.1,.0,11.3,.0zM.0,36.3L98.0,36.3L.0,36.3zM.0,73.4L98.0,73.4L.0,73.4z"/><text style="fill:#ffffff;font-family:Arimo,PingFang SC,Mircrosoft YaHei,Arial;font-size:12.00pt" xml:space="preserve"><tspan y="23.8" style="font-family:Arimo,PingFang SC,Mircrosoft YaHei,Arial" x="17.0">Clappers</tspan></text><text style="fill:#ffffff;font-family:Arimo,PingFang SC,Mircrosoft YaHei,Arial;font-size:8.00pt" xml:space="preserve"><tspan y="52.0" style="font-family:Arimo,PingFang SC,Mircrosoft YaHei,Arial" x="12.1">SSA optimizing </tspan><tspan y="65.0" style="font-family:Arimo,PingFang SC,Mircrosoft YaHei,Arial" x="28.2">compiler</tspan></text></g><g id="shape23" transform="translate(472.822000,136.496000)"><path fill="url(#lg1)" fill-rule="nonzero" d="M11.3,.0L86.0,.0C92.6,.0,98.0,5.1,98.0,11.3L98.0,98.0C98.0,104.6,92.6,110.0,86.0,110.0L11.3,110.0C5.1,110.0,.0,104.6,.0,98.0L.0,11.3C.0,5.1,5.1,.0,11.3,.0z"/><path fill="none" stroke="#26a1ff" stroke-width="1" d="M11.3,.0L86.0,.0C92.6,.0,98.0,5.1,98.0,11.3L98.0,98.0C98.0,104.6,92.6,110.0,86.0,110.0L11.3,110.0C5.1,110.0,.0,104.6,.0,98.0L.0,11.3C.0,5.1,5.1,.0,11.3,.0zM.0,36.3L98.0,36.3L.0,36.3zM.0,73.4L98.0,73.4L.0,73.4z"/><text style="fill:#ffffff;font-family:Arimo,PingFang SC,Mircrosoft YaHei,Arial;font-size:12.00pt" xml:space="preserve"><tspan y="23.8" style="font-family:Arimo,PingFang SC,Mircrosoft YaHei,Arial" x="17.0">Clostrum</tspan></text><text style="fill:#ffffff;font-family:Arimo,PingFang SC,Mircrosoft YaHei,Arial;font-size:8.00pt" xml:space="preserve"><tspan y="52.0" style="font-family:Arimo,PingFang SC,Mircrosoft YaHei,Arial" x="33.1">Global </tspan><tspan y="65.0" style="font-family:Arimo,PingFang SC,Mircrosoft YaHei,Arial" x="18.8">environment</tspan></text></g><g id="shape24" transform="translate(601.000000,413.530000)"><path fill="url(#lg1)" fill-rule="nonzero" d="M11.3,.0L86.0,.0C92.6,.0,98.0,5.1,98.0,11.3L98.0,98.0C98.0,104.6,92.6,110.0,86.0,110.0L11.3,110.0C5.1,110.0,.0,104.6,.0,98.0L.0,11.3C.0,5.1,5.1,.0,11.3,.0z"/><path fill="none" stroke="#26a1ff" stroke-width="1" d="M11.3,.0L86.0,.0C92.6,.0,98.0,5.1,98.0,11.3L98.0,98.0C98.0,104.6,92.6,110.0,86.0,110.0L11.3,110.0C5.1,110.0,.0,104.6,.0,98.0L.0,11.3C.0,5.1,5.1,.0,11.3,.0zM.0,36.3L98.0,36.3L.0,36.3zM.0,73.4L98.0,73.4L.0,73.4z"/><text style="fill:#ffffff;font-family:Arimo,PingFang SC,Mircrosoft YaHei,Arial;font-size:12.00pt" xml:space="preserve"><tspan y="23.8" style="font-family:Arimo,PingFang SC,Mircrosoft YaHei,Arial" x="24.1">Cleavir</tspan></text><text style="fill:#ffffff;font-family:Arimo,PingFang SC,Mircrosoft YaHei,Arial;font-size:8.00pt" xml:space="preserve"><tspan y="52.0" style="font-family:Arimo,PingFang SC,Mircrosoft YaHei,Arial" x="27.0">Compiler </tspan><tspan y="65.0" style="font-family:Arimo,PingFang SC,Mircrosoft YaHei,Arial" x="23.4">framework</tspan></text></g><g id="shape25" transform="translate(585.548000,137.496000)"><path fill="url(#lg1)" fill-rule="nonzero" d="M11.3,.0L86.0,.0C92.6,.0,98.0,5.1,98.0,11.3L98.0,98.0C98.0,104.6,92.6,110.0,86.0,110.0L11.3,110.0C5.1,110.0,.0,104.6,.0,98.0L.0,11.3C.0,5.1,5.1,.0,11.3,.0z"/><path fill="none" stroke="#26a1ff" stroke-width="1" d="M11.3,.0L86.0,.0C92.6,.0,98.0,5.1,98.0,11.3L98.0,98.0C98.0,104.6,92.6,110.0,86.0,110.0L11.3,110.0C5.1,110.0,.0,104.6,.0,98.0L.0,11.3C.0,5.1,5.1,.0,11.3,.0zM.0,36.3L98.0,36.3L.0,36.3zM.0,73.4L98.0,73.4L.0,73.4z"/><text style="fill:#ffffff;font-family:Arimo,PingFang SC,Mircrosoft YaHei,Arial;font-size:12.00pt" xml:space="preserve"><tspan y="23.8" style="font-family:Arimo,PingFang SC,Mircrosoft YaHei,Arial" x="20.1">Eclector</tspan></text><text style="fill:#ffffff;font-family:Arimo,PingFang SC,Mircrosoft YaHei,Arial;font-size:8.00pt" xml:space="preserve"><tspan y="58.5" style="font-family:Arimo,PingFang SC,Mircrosoft YaHei,Arial" x="19.4">Lisp Reader</tspan></text></g><g id="shape26" transform="translate(811.000000,137.496000)"><path fill="url(#lg1)" fill-rule="nonzero" d="M11.3,.0L92.0,.0C98.6,.0,104.0,5.1,104.0,11.3L104.0,98.0C104.0,104.6,98.6,110.0,92.0,110.0L11.3,110.0C5.1,110.0,.0,104.6,.0,98.0L.0,11.3C.0,5.1,5.1,.0,11.3,.0z"/><path fill="none" stroke="#26a1ff" stroke-width="1" d="M11.3,.0L92.0,.0C98.6,.0,104.0,5.1,104.0,11.3L104.0,98.0C104.0,104.6,98.6,110.0,92.0,110.0L11.3,110.0C5.1,110.0,.0,104.6,.0,98.0L.0,11.3C.0,5.1,5.1,.0,11.3,.0zM.0,36.3L104.0,36.3L.0,36.3zM.0,73.4L104.0,73.4L.0,73.4z"/><text style="fill:#ffffff;font-family:Arimo,PingFang SC,Mircrosoft YaHei,Arial;font-size:12.00pt" xml:space="preserve"><tspan y="23.8" style="font-family:Arimo,PingFang SC,Mircrosoft YaHei,Arial" x="11.1">Clordecone</tspan></text><text style="fill:#ffffff;font-family:Arimo,PingFang SC,Mircrosoft YaHei,Arial;font-size:8.00pt" xml:space="preserve"><tspan y="58.5" style="font-family:Arimo,PingFang SC,Mircrosoft YaHei,Arial" x="16.3">Lisp Debugger</tspan></text></g><g id="shape27" transform="translate(698.274000,136.496000)"><path fill="url(#lg1)" fill-rule="nonzero" d="M11.3,.0L86.0,.0C92.6,.0,98.0,5.1,98.0,11.3L98.0,98.0C98.0,104.6,92.6,110.0,86.0,110.0L11.3,110.0C5.1,110.0,.0,104.6,.0,98.0L.0,11.3C.0,5.1,5.1,.0,11.3,.0z"/><path fill="none" stroke="#26a1ff" stroke-width="1" d="M11.3,.0L86.0,.0C92.6,.0,98.0,5.1,98.0,11.3L98.0,98.0C98.0,104.6,92.6,110.0,86.0,110.0L11.3,110.0C5.1,110.0,.0,104.6,.0,98.0L.0,11.3C.0,5.1,5.1,.0,11.3,.0zM.0,36.3L98.0,36.3L.0,36.3zM.0,73.4L98.0,73.4L.0,73.4z"/><text style="fill:#ffffff;font-family:Arimo,PingFang SC,Mircrosoft YaHei,Arial;font-size:12.00pt" xml:space="preserve"><tspan y="23.8" style="font-family:Arimo,PingFang SC,Mircrosoft YaHei,Arial" x="23.7">Tazivor</tspan></text><text style="fill:#ffffff;font-family:Arimo,PingFang SC,Mircrosoft YaHei,Arial;font-size:8.00pt" xml:space="preserve"><tspan y="58.5" style="font-family:Arimo,PingFang SC,Mircrosoft YaHei,Arial" x="26.4">Inspector</tspan></text></g><g id="shape28" transform="translate(764.274000,413.530000)"><path fill="url(#lg1)" fill-rule="nonzero" d="M11.3,.0L86.0,.0C92.6,.0,98.0,5.1,98.0,11.3L98.0,98.0C98.0,104.6,92.6,110.0,86.0,110.0L11.3,110.0C5.1,110.0,.0,104.6,.0,98.0L.0,11.3C.0,5.1,5.1,.0,11.3,.0z"/><path fill="none" stroke="#26a1ff" stroke-width="1" d="M11.3,.0L86.0,.0C92.6,.0,98.0,5.1,98.0,11.3L98.0,98.0C98.0,104.6,92.6,110.0,86.0,110.0L11.3,110.0C5.1,110.0,.0,104.6,.0,98.0L.0,11.3C.0,5.1,5.1,.0,11.3,.0zM.0,36.3L98.0,36.3L.0,36.3zM.0,73.4L98.0,73.4L.0,73.4z"/><text style="fill:#ffffff;font-family:Arimo,PingFang SC,Mircrosoft YaHei,Arial;font-size:12.00pt" xml:space="preserve"><tspan y="23.8" style="font-family:Arimo,PingFang SC,Mircrosoft YaHei,Arial" x="23.7">Cluster</tspan></text><text style="fill:#ffffff;font-family:Arimo,PingFang SC,Mircrosoft YaHei,Arial;font-size:8.00pt" xml:space="preserve"><tspan y="58.5" style="font-family:Arimo,PingFang SC,Mircrosoft YaHei,Arial" x="23.0">Assembler</tspan></text></g><path id="shape29" transform="translate(824.089000,224.013000)" fill="none" stroke="#26a1ff" stroke-width="2" d="M.0,.0L.0,.0"/><g id="shape30" transform="translate(297.702000,968.140000)"><path fill="url(#lg1)" fill-rule="nonzero" d="M11.3,.0L86.0,.0C92.6,.0,98.0,5.1,98.0,11.3L98.0,98.0C98.0,104.6,92.6,110.0,86.0,110.0L11.3,110.0C5.1,110.0,.0,104.6,.0,98.0L.0,11.3C.0,5.1,5.1,.0,11.3,.0z"/><path fill="none" stroke="#26a1ff" stroke-width="1" d="M11.3,.0L86.0,.0C92.6,.0,98.0,5.1,98.0,11.3L98.0,98.0C98.0,104.6,92.6,110.0,86.0,110.0L11.3,110.0C5.1,110.0,.0,104.6,.0,98.0L.0,11.3C.0,5.1,5.1,.0,11.3,.0zM.0,36.3L98.0,36.3L.0,36.3zM.0,73.4L98.0,73.4L.0,73.4z"/><text style="fill:#ffffff;font-family:Arimo,PingFang SC,Mircrosoft YaHei,Arial;font-size:12.00pt" xml:space="preserve"><tspan y="23.8" style="font-family:Arimo,PingFang SC,Mircrosoft YaHei,Arial" x="19.2">Khazern</tspan></text><text style="fill:#ffffff;font-family:Arimo,PingFang SC,Mircrosoft YaHei,Arial;font-size:8.00pt" xml:space="preserve"><tspan y="58.5" style="font-family:Arimo,PingFang SC,Mircrosoft YaHei,Arial" x="38.6">loop</tspan></text></g><g id="shape31" transform="translate(412.553000,968.140000)"><path fill="url(#lg1)" fill-rule="nonzero" d="M11.3,.0L86.0,.0C92.6,.0,98.0,5.1,98.0,11.3L98.0,98.0C98.0,104.6,92.6,110.0,86.0,110.0L11.3,110.0C5.1,110.0,.0,104.6,.0,98.0L.0,11.3C.0,5.1,5.1,.0,11.3,.0z"/><path fill="none" stroke="#26a1ff" stroke-width="1" d="M11.3,.0L86.0,.0C92.6,.0,98.0,5.1,98.0,11.3L98.0,98.0C98.0,104.6,92.6,110.0,86.0,110.0L11.3,110.0C5.1,110.0,.0,104.6,.0,98.0L.0,11.3C.0,5.1,5.1,.0,11.3,.0zM.0,36.3L98.0,36.3L.0,36.3zM.0,73.4L98.0,73.4L.0,73.4z"/><text style="fill:#ffffff;font-family:Arimo,PingFang SC,Mircrosoft YaHei,Arial;font-size:12.00pt" xml:space="preserve"><tspan y="23.8" style="font-family:Arimo,PingFang SC,Mircrosoft YaHei,Arial" x="16.1">Clonedijk</tspan></text><text style="fill:#ffffff;font-family:Arimo,PingFang SC,Mircrosoft YaHei,Arial;font-size:8.00pt" xml:space="preserve"><tspan y="52.0" style="font-family:Arimo,PingFang SC,Mircrosoft YaHei,Arial" x="35.9">clone </tspan><tspan y="65.0" style="font-family:Arimo,PingFang SC,Mircrosoft YaHei,Arial" x="21.8">information</tspan></text></g><g id="shape32" transform="translate(61.000000,968.140000)"><path fill="url(#lg1)" fill-rule="nonzero" d="M11.3,.0L86.0,.0C92.6,.0,98.0,5.1,98.0,11.3L98.0,98.0C98.0,104.6,92.6,110.0,86.0,110.0L11.3,110.0C5.1,110.0,.0,104.6,.0,98.0L.0,11.3C.0,5.1,5.1,.0,11.3,.0z"/><path fill="none" stroke="#26a1ff" stroke-width="1" d="M11.3,.0L86.0,.0C92.6,.0,98.0,5.1,98.0,11.3L98.0,98.0C98.0,104.6,92.6,110.0,86.0,110.0L11.3,110.0C5.1,110.0,.0,104.6,.0,98.0L.0,11.3C.0,5.1,5.1,.0,11.3,.0zM.0,36.3L98.0,36.3L.0,36.3zM.0,73.4L98.0,73.4L.0,73.4z"/><text style="fill:#ffffff;font-family:Arimo,PingFang SC,Mircrosoft YaHei,Arial;font-size:12.00pt" xml:space="preserve"><tspan y="23.8" style="font-family:Arimo,PingFang SC,Mircrosoft YaHei,Arial" x="24.1">Incless</tspan></text><text style="fill:#ffffff;font-family:Arimo,PingFang SC,Mircrosoft YaHei,Arial;font-size:8.00pt" xml:space="preserve"><tspan y="58.5" style="font-family:Arimo,PingFang SC,Mircrosoft YaHei,Arial" x="21.8">print-object</tspan></text></g><g id="shape33" transform="translate(360.096000,137.496000)"><path fill="url(#lg1)" fill-rule="nonzero" d="M11.3,.0L86.0,.0C92.6,.0,98.0,5.1,98.0,11.3L98.0,97.0C98.0,103.6,92.6,109.0,86.0,109.0L11.3,109.0C5.1,109.0,.0,103.6,.0,97.0L.0,11.3C.0,5.1,5.1,.0,11.3,.0z"/><path fill="none" stroke="#26a1ff" stroke-width="1" d="M11.3,.0L86.0,.0C92.6,.0,98.0,5.1,98.0,11.3L98.0,97.0C98.0,103.6,92.6,109.0,86.0,109.0L11.3,109.0C5.1,109.0,.0,103.6,.0,97.0L.0,11.3C.0,5.1,5.1,.0,11.3,.0zM.0,36.0L98.0,36.0L.0,36.0zM.0,72.7L98.0,72.7L.0,72.7z"/><text style="fill:#ffffff;font-family:Arimo,PingFang SC,Mircrosoft YaHei,Arial;font-size:12.00pt" xml:space="preserve"><tspan y="23.7" style="font-family:Arimo,PingFang SC,Mircrosoft YaHei,Arial" x="28.1">Ctype</tspan></text><text style="fill:#ffffff;font-family:Arimo,PingFang SC,Mircrosoft YaHei,Arial;font-size:8.00pt" xml:space="preserve"><tspan y="51.5" style="font-family:Arimo,PingFang SC,Mircrosoft YaHei,Arial" x="18.2">common lisp </tspan><tspan y="64.5" style="font-family:Arimo,PingFang SC,Mircrosoft YaHei,Arial" x="19.7">type system</tspan></text></g><g id="shape34" transform="translate(679.726000,968.140000)"><path fill="url(#lg1)" fill-rule="nonzero" d="M11.3,.0L86.0,.0C92.6,.0,98.0,5.1,98.0,11.3L98.0,98.0C98.0,104.6,92.6,110.0,86.0,110.0L11.3,110.0C5.1,110.0,.0,104.6,.0,98.0L.0,11.3C.0,5.1,5.1,.0,11.3,.0z"/><path fill="none" stroke="#26a1ff" stroke-width="1" d="M11.3,.0L86.0,.0C92.6,.0,98.0,5.1,98.0,11.3L98.0,98.0C98.0,104.6,92.6,110.0,86.0,110.0L11.3,110.0C5.1,110.0,.0,104.6,.0,98.0L.0,11.3C.0,5.1,5.1,.0,11.3,.0zM.0,36.3L98.0,36.3L.0,36.3zM.0,73.4L98.0,73.4L.0,73.4z"/><text style="fill:#ffffff;font-family:Arimo,PingFang SC,Mircrosoft YaHei,Arial;font-size:12.00pt" xml:space="preserve"><tspan y="23.8" style="font-family:Arimo,PingFang SC,Mircrosoft YaHei,Arial" x="20.4">Truckler</tspan></text><text style="fill:#ffffff;font-family:Arimo,PingFang SC,Mircrosoft YaHei,Arial;font-size:8.00pt" xml:space="preserve"><tspan y="45.5" style="font-family:Arimo,PingFang SC,Mircrosoft YaHei,Arial" x="18.8">environment </tspan><tspan y="58.5" style="font-family:Arimo,PingFang SC,Mircrosoft YaHei,Arial" x="24.6">query and </tspan><tspan y="71.5" style="font-family:Arimo,PingFang SC,Mircrosoft YaHei,Arial" x="32.2">update</tspan></text></g><g id="shape35" transform="translate(182.851000,968.140000)"><path fill="url(#lg1)" fill-rule="nonzero" d="M11.3,.0L86.0,.0C92.6,.0,98.0,5.1,98.0,11.3L98.0,98.0C98.0,104.6,92.6,110.0,86.0,110.0L11.3,110.0C5.1,110.0,.0,104.6,.0,98.0L.0,11.3C.0,5.1,5.1,.0,11.3,.0z"/><path fill="none" stroke="#26a1ff" stroke-width="1" d="M11.3,.0L86.0,.0C92.6,.0,98.0,5.1,98.0,11.3L98.0,98.0C98.0,104.6,92.6,110.0,86.0,110.0L11.3,110.0C5.1,110.0,.0,104.6,.0,98.0L.0,11.3C.0,5.1,5.1,.0,11.3,.0zM.0,36.3L98.0,36.3L.0,36.3zM.0,73.4L98.0,73.4L.0,73.4z"/><text style="fill:#ffffff;font-family:Arimo,PingFang SC,Mircrosoft YaHei,Arial;font-size:12.00pt" xml:space="preserve"><tspan y="23.8" style="font-family:Arimo,PingFang SC,Mircrosoft YaHei,Arial" x="23.2">Invistra</tspan></text><text style="fill:#ffffff;font-family:Arimo,PingFang SC,Mircrosoft YaHei,Arial;font-size:8.00pt" xml:space="preserve"><tspan y="58.5" style="font-family:Arimo,PingFang SC,Mircrosoft YaHei,Arial" x="33.4">format</tspan></text></g><g id="shape36" transform="translate(198.089000,273.271000)"><path fill="url(#lg1)" fill-rule="nonzero" d="M11.3,.0L149.7,.0C156.3,.0,161.7,5.1,161.7,11.3L161.7,98.0C161.7,104.6,156.3,110.0,149.7,110.0L11.3,110.0C5.1,110.0,.0,104.6,.0,98.0L.0,11.3C.0,5.1,5.1,.0,11.3,.0z"/><path fill="none" stroke="#26a1ff" stroke-width="1" d="M11.3,.0L149.7,.0C156.3,.0,161.7,5.1,161.7,11.3L161.7,98.0C161.7,104.6,156.3,110.0,149.7,110.0L11.3,110.0C5.1,110.0,.0,104.6,.0,98.0L.0,11.3C.0,5.1,5.1,.0,11.3,.0zM.0,36.3L161.7,36.3L.0,36.3zM.0,73.4L161.7,73.4L.0,73.4z"/><text style="fill:#ffffff;font-family:Arimo,PingFang SC,Mircrosoft YaHei,Arial;font-size:12.00pt" xml:space="preserve"><tspan y="23.8" style="font-family:Arimo,PingFang SC,Mircrosoft YaHei,Arial" x="9.8">s-expression-syntax</tspan></text><text style="fill:#ffffff;font-family:Arimo,PingFang SC,Mircrosoft YaHei,Arial;font-size:8.00pt" xml:space="preserve"><tspan y="58.5" style="font-family:Arimo,PingFang SC,Mircrosoft YaHei,Arial" x="50.2">parse sexp's</tspan></text></g><g id="shape37" transform="translate(193.000000,413.530000)"><path fill="url(#lg1)" fill-rule="nonzero" d="M11.3,.0L196.5,.0C203.1,.0,208.5,5.1,208.5,11.3L208.5,98.0C208.5,104.6,203.1,110.0,196.5,110.0L11.3,110.0C5.1,110.0,.0,104.6,.0,98.0L.0,11.3C.0,5.1,5.1,.0,11.3,.0z"/><path fill="none" stroke="#26a1ff" stroke-width="1" d="M11.3,.0L196.5,.0C203.1,.0,208.5,5.1,208.5,11.3L208.5,98.0C208.5,104.6,203.1,110.0,196.5,110.0L11.3,110.0C5.1,110.0,.0,104.6,.0,98.0L.0,11.3C.0,5.1,5.1,.0,11.3,.0zM.0,36.3L208.5,36.3L.0,36.3zM.0,73.4L208.5,73.4L.0,73.4z"/><text style="fill:#ffffff;font-family:Arimo,PingFang SC,Mircrosoft YaHei,Arial;font-size:12.00pt" xml:space="preserve"><tspan y="23.8" style="font-family:Arimo,PingFang SC,Mircrosoft YaHei,Arial" x="9.6">arcitecture.builder-protocol</tspan></text><text style="fill:#ffffff;font-family:Arimo,PingFang SC,Mircrosoft YaHei,Arial;font-size:8.00pt" xml:space="preserve"><tspan y="58.5" style="font-family:Arimo,PingFang SC,Mircrosoft YaHei,Arial" x="75.7">AST builder</tspan></text></g><g id="shape38" transform="translate(247.370000,570.013000)"><path fill="url(#lg1)" fill-rule="nonzero" d="M11.3,.0L86.0,.0C92.6,.0,98.0,5.1,98.0,11.3L98.0,98.0C98.0,104.6,92.6,110.0,86.0,110.0L11.3,110.0C5.1,110.0,.0,104.6,.0,98.0L.0,11.3C.0,5.1,5.1,.0,11.3,.0z"/><path fill="none" stroke="#26a1ff" stroke-width="1" d="M11.3,.0L86.0,.0C92.6,.0,98.0,5.1,98.0,11.3L98.0,98.0C98.0,104.6,92.6,110.0,86.0,110.0L11.3,110.0C5.1,110.0,.0,104.6,.0,98.0L.0,11.3C.0,5.1,5.1,.0,11.3,.0zM.0,36.3L98.0,36.3L.0,36.3zM.0,73.4L98.0,73.4L.0,73.4z"/><text style="fill:#ffffff;font-family:Arimo,PingFang SC,Mircrosoft YaHei,Arial;font-size:12.00pt" xml:space="preserve"><tspan y="23.8" style="font-family:Arimo,PingFang SC,Mircrosoft YaHei,Arial" x="13.0">Iconoclast</tspan></text><text style="fill:#ffffff;font-family:Arimo,PingFang SC,Mircrosoft YaHei,Arial;font-size:8.00pt" xml:space="preserve"><tspan y="58.5" style="font-family:Arimo,PingFang SC,Mircrosoft YaHei,Arial" x="13.9">represent AST</tspan></text></g><g id="shape39" transform="translate(198.089000,61.013000)"><path fill="url(#lg1)" fill-rule="nonzero" d="M11.3,.0L113.0,.0C119.6,.0,125.0,5.1,125.0,11.3L125.0,80.0C125.0,86.6,119.6,92.0,113.0,92.0L11.3,92.0C5.1,92.0,.0,86.6,.0,80.0L.0,11.3C.0,5.1,5.1,.0,11.3,.0z"/><path fill="none" stroke="#26a1ff" stroke-width="1" d="M11.3,.0L113.0,.0C119.6,.0,125.0,5.1,125.0,11.3L125.0,80.0C125.0,86.6,119.6,92.0,113.0,92.0L11.3,92.0C5.1,92.0,.0,86.6,.0,80.0L.0,11.3C.0,5.1,5.1,.0,11.3,.0zM.0,30.4L125.0,30.4L.0,30.4zM.0,61.4L125.0,61.4L.0,61.4z"/><text style="fill:#ffffff;font-family:Arimo,PingFang SC,Mircrosoft YaHei,Arial;font-size:12.00pt" xml:space="preserve"><tspan y="20.8" style="font-family:Arimo,PingFang SC,Mircrosoft YaHei,Arial" x="14.1">common boot</tspan></text></g><g id="shape40" transform="translate(665.255000,843.596800)"><path fill="url(#lg1)" fill-rule="nonzero" d="M11.3,.0L139.0,.0C145.6,.0,151.0,5.1,151.0,11.3L151.0,82.3C151.0,88.9,145.6,94.3,139.0,94.3L11.3,94.3C5.1,94.3,.0,88.9,.0,82.3L.0,11.3C.0,5.1,5.1,.0,11.3,.0z"/><path fill="none" stroke="#26a1ff" stroke-width="1" d="M11.3,.0L139.0,.0C145.6,.0,151.0,5.1,151.0,11.3L151.0,82.3C151.0,88.9,145.6,94.3,139.0,94.3L11.3,94.3C5.1,94.3,.0,88.9,.0,82.3L.0,11.3C.0,5.1,5.1,.0,11.3,.0zM.0,31.1L151.0,31.1L.0,31.1zM.0,62.9L151.0,62.9L.0,62.9z"/><text style="fill:#ffffff;font-family:Arimo,PingFang SC,Mircrosoft YaHei,Arial;font-size:12.00pt" xml:space="preserve"><tspan y="21.2" style="font-family:Arimo,PingFang SC,Mircrosoft YaHei,Arial" x="14.2">Common-macros</tspan></text></g><g id="shape41" transform="translate(182.851000,827.886900)"><path fill="url(#lg1)" fill-rule="nonzero" d="M11.3,.0L86.0,.0C92.6,.0,98.0,5.1,98.0,11.3L98.0,98.0C98.0,104.6,92.6,110.0,86.0,110.0L11.3,110.0C5.1,110.0,.0,104.6,.0,98.0L.0,11.3C.0,5.1,5.1,.0,11.3,.0z"/><path fill="none" stroke="#26a1ff" stroke-width="1" d="M11.3,.0L86.0,.0C92.6,.0,98.0,5.1,98.0,11.3L98.0,98.0C98.0,104.6,92.6,110.0,86.0,110.0L11.3,110.0C5.1,110.0,.0,104.6,.0,98.0L.0,11.3C.0,5.1,5.1,.0,11.3,.0zM.0,36.3L98.0,36.3L.0,36.3zM.0,73.4L98.0,73.4L.0,73.4z"/><text style="fill:#ffffff;font-family:Arimo,PingFang SC,Mircrosoft YaHei,Arial;font-size:12.00pt" xml:space="preserve"><tspan y="23.8" style="font-family:Arimo,PingFang SC,Mircrosoft YaHei,Arial" x="30.8">Parcl</tspan></text><text style="fill:#ffffff;font-family:Arimo,PingFang SC,Mircrosoft YaHei,Arial;font-size:8.00pt" xml:space="preserve"><tspan y="58.5" style="font-family:Arimo,PingFang SC,Mircrosoft YaHei,Arial" x="9.3">package system</tspan></text></g><g id="shape42" transform="translate(437.726000,413.530000)"><path fill="url(#lg1)" fill-rule="nonzero" d="M11.3,.0L86.0,.0C92.6,.0,98.0,5.1,98.0,11.3L98.0,98.0C98.0,104.6,92.6,110.0,86.0,110.0L11.3,110.0C5.1,110.0,.0,104.6,.0,98.0L.0,11.3C.0,5.1,5.1,.0,11.3,.0z"/><path fill="none" stroke="#26a1ff" stroke-width="1" d="M11.3,.0L86.0,.0C92.6,.0,98.0,5.1,98.0,11.3L98.0,98.0C98.0,104.6,92.6,110.0,86.0,110.0L11.3,110.0C5.1,110.0,.0,104.6,.0,98.0L.0,11.3C.0,5.1,5.1,.0,11.3,.0zM.0,36.3L98.0,36.3L.0,36.3zM.0,73.4L98.0,73.4L.0,73.4z"/><text style="fill:#ffffff;font-family:Arimo,PingFang SC,Mircrosoft YaHei,Arial;font-size:12.00pt" xml:space="preserve"><tspan y="23.8" style="font-family:Arimo,PingFang SC,Mircrosoft YaHei,Arial" x="19.2">Ecclesia</tspan></text><text style="fill:#ffffff;font-family:Arimo,PingFang SC,Mircrosoft YaHei,Arial;font-size:8.00pt" xml:space="preserve"><tspan y="58.5" style="font-family:Arimo,PingFang SC,Mircrosoft YaHei,Arial" x="17.6">code utillities</tspan></text></g><g id="shape43" transform="translate(437.726000,273.271000)"><path fill="url(#lg1)" fill-rule="nonzero" d="M11.3,.0L101.0,.0C107.6,.0,113.0,5.1,113.0,11.3L113.0,98.0C113.0,104.6,107.6,110.0,101.0,110.0L11.3,110.0C5.1,110.0,.0,104.6,.0,98.0L.0,11.3C.0,5.1,5.1,.0,11.3,.0z"/><path fill="none" stroke="#26a1ff" stroke-width="1" d="M11.3,.0L101.0,.0C107.6,.0,113.0,5.1,113.0,11.3L113.0,98.0C113.0,104.6,107.6,110.0,101.0,110.0L11.3,110.0C5.1,110.0,.0,104.6,.0,98.0L.0,11.3C.0,5.1,5.1,.0,11.3,.0zM.0,36.3L113.0,36.3L.0,36.3zM.0,73.4L113.0,73.4L.0,73.4z"/><text style="fill:#ffffff;font-family:Arimo,PingFang SC,Mircrosoft YaHei,Arial;font-size:12.00pt" xml:space="preserve"><tspan y="23.8" style="font-family:Arimo,PingFang SC,Mircrosoft YaHei,Arial" x="9.8">parser.pacrat</tspan></text><text style="fill:#ffffff;font-family:Arimo,PingFang SC,Mircrosoft YaHei,Arial;font-size:8.00pt" xml:space="preserve"><tspan y="58.5" style="font-family:Arimo,PingFang SC,Mircrosoft YaHei,Arial" x="19.3">parse grammar</tspan></text></g><g id="shape44" transform="translate(412.553000,833.013000)"><path fill="url(#lg1)" fill-rule="nonzero" d="M11.3,.0L109.0,.0C115.6,.0,121.0,5.1,121.0,11.3L121.0,98.0C121.0,104.6,115.6,110.0,109.0,110.0L11.3,110.0C5.1,110.0,.0,104.6,.0,98.0L.0,11.3C.0,5.1,5.1,.0,11.3,.0z"/><path fill="none" stroke="#26a1ff" stroke-width="1" d="M11.3,.0L109.0,.0C115.6,.0,121.0,5.1,121.0,11.3L121.0,98.0C121.0,104.6,115.6,110.0,109.0,110.0L11.3,110.0C5.1,110.0,.0,104.6,.0,98.0L.0,11.3C.0,5.1,5.1,.0,11.3,.0zM.0,36.3L121.0,36.3L.0,36.3zM.0,73.4L121.0,73.4L.0,73.4z"/><text style="fill:#ffffff;font-family:Arimo,PingFang SC,Mircrosoft YaHei,Arial;font-size:12.00pt" xml:space="preserve"><tspan y="23.8" style="font-family:Arimo,PingFang SC,Mircrosoft YaHei,Arial" x="15.6">Predicament</tspan></text><text style="fill:#ffffff;font-family:Arimo,PingFang SC,Mircrosoft YaHei,Arial;font-size:8.00pt" xml:space="preserve"><tspan y="52.0" style="font-family:Arimo,PingFang SC,Mircrosoft YaHei,Arial" x="12.6">Exception and error </tspan><tspan y="65.0" style="font-family:Arimo,PingFang SC,Mircrosoft YaHei,Arial" x="36.7">handeling</tspan></text></g><g id="shape45" transform="translate(550.404000,833.013000)"><path fill="url(#lg1)" fill-rule="nonzero" d="M11.3,.0L86.0,.0C92.6,.0,98.0,5.1,98.0,11.3L98.0,98.0C98.0,104.6,92.6,110.0,86.0,110.0L11.3,110.0C5.1,110.0,.0,104.6,.0,98.0L.0,11.3C.0,5.1,5.1,.0,11.3,.0z"/><path fill="none" stroke="#26a1ff" stroke-width="1" d="M11.3,.0L86.0,.0C92.6,.0,98.0,5.1,98.0,11.3L98.0,98.0C98.0,104.6,92.6,110.0,86.0,110.0L11.3,110.0C5.1,110.0,.0,104.6,.0,98.0L.0,11.3C.0,5.1,5.1,.0,11.3,.0zM.0,36.3L98.0,36.3L.0,36.3zM.0,73.4L98.0,73.4L.0,73.4z"/><text style="fill:#ffffff;font-family:Arimo,PingFang SC,Mircrosoft YaHei,Arial;font-size:12.00pt" xml:space="preserve"><tspan y="23.8" style="font-family:Arimo,PingFang SC,Mircrosoft YaHei,Arial" x="30.8">Bouy</tspan></text><text style="fill:#ffffff;font-family:Arimo,PingFang SC,Mircrosoft YaHei,Arial;font-size:8.00pt" xml:space="preserve"><tspan y="52.0" style="font-family:Arimo,PingFang SC,Mircrosoft YaHei,Arial" x="16.0">Floating point </tspan><tspan y="65.0" style="font-family:Arimo,PingFang SC,Mircrosoft YaHei,Arial" x="29.5">routines</tspan></text></g><g id="shape46" transform="translate(297.702000,833.013000)"><path fill="url(#lg1)" fill-rule="nonzero" d="M11.3,.0L86.0,.0C92.6,.0,98.0,5.1,98.0,11.3L98.0,98.0C98.0,104.6,92.6,110.0,86.0,110.0L11.3,110.0C5.1,110.0,.0,104.6,.0,98.0L.0,11.3C.0,5.1,5.1,.0,11.3,.0z"/><path fill="none" stroke="#26a1ff" stroke-width="1" d="M11.3,.0L86.0,.0C92.6,.0,98.0,5.1,98.0,11.3L98.0,98.0C98.0,104.6,92.6,110.0,86.0,110.0L11.3,110.0C5.1,110.0,.0,104.6,.0,98.0L.0,11.3C.0,5.1,5.1,.0,11.3,.0zM.0,36.3L98.0,36.3L.0,36.3zM.0,73.4L98.0,73.4L.0,73.4z"/><text style="fill:#ffffff;font-family:Arimo,PingFang SC,Mircrosoft YaHei,Arial;font-size:12.00pt" xml:space="preserve"><tspan y="23.8" style="font-family:Arimo,PingFang SC,Mircrosoft YaHei,Arial" x="21.9">Regalia</tspan></text><text style="fill:#ffffff;font-family:Arimo,PingFang SC,Mircrosoft YaHei,Arial;font-size:8.00pt" xml:space="preserve"><tspan y="58.5" style="font-family:Arimo,PingFang SC,Mircrosoft YaHei,Arial" x="33.7">arrays</tspan></text></g><g id="shape47" transform="translate(61.000000,827.886900)"><path fill="url(#lg1)" fill-rule="nonzero" d="M11.3,.0L93.0,.0C99.6,.0,105.0,5.1,105.0,11.3L105.0,98.0C105.0,104.6,99.6,110.0,93.0,110.0L11.3,110.0C5.1,110.0,.0,104.6,.0,98.0L.0,11.3C.0,5.1,5.1,.0,11.3,.0z"/><path fill="none" stroke="#26a1ff" stroke-width="1" d="M11.3,.0L93.0,.0C99.6,.0,105.0,5.1,105.0,11.3L105.0,98.0C105.0,104.6,99.6,110.0,93.0,110.0L11.3,110.0C5.1,110.0,.0,104.6,.0,98.0L.0,11.3C.0,5.1,5.1,.0,11.3,.0zM.0,36.3L105.0,36.3L.0,36.3zM.0,73.4L105.0,73.4L.0,73.4z"/><text style="fill:#ffffff;font-family:Arimo,PingFang SC,Mircrosoft YaHei,Arial;font-size:12.00pt" xml:space="preserve"><tspan y="23.8" style="font-family:Arimo,PingFang SC,Mircrosoft YaHei,Arial" x="8.5">Clostrophilia</tspan></text><text style="fill:#ffffff;font-family:Arimo,PingFang SC,Mircrosoft YaHei,Arial;font-size:8.00pt" xml:space="preserve"><tspan y="58.5" style="font-family:Arimo,PingFang SC,Mircrosoft YaHei,Arial" x="37.5">CLOS</tspan></text></g><g id="shape48" transform="translate(550.404000,968.140000)"><path fill="url(#lg1)" fill-rule="nonzero" d="M11.3,.0L102.0,.0C108.6,.0,114.0,5.1,114.0,11.3L114.0,98.0C114.0,104.6,108.6,110.0,102.0,110.0L11.3,110.0C5.1,110.0,.0,104.6,.0,98.0L.0,11.3C.0,5.1,5.1,.0,11.3,.0z"/><path fill="none" stroke="#26a1ff" stroke-width="1" d="M11.3,.0L102.0,.0C108.6,.0,114.0,5.1,114.0,11.3L114.0,98.0C114.0,104.6,108.6,110.0,102.0,110.0L11.3,110.0C5.1,110.0,.0,104.6,.0,98.0L.0,11.3C.0,5.1,5.1,.0,11.3,.0zM.0,36.3L114.0,36.3L.0,36.3zM.0,73.4L114.0,73.4L.0,73.4z"/><text style="fill:#ffffff;font-family:Arimo,PingFang SC,Mircrosoft YaHei,Arial;font-size:12.00pt" xml:space="preserve"><tspan y="23.8" style="font-family:Arimo,PingFang SC,Mircrosoft YaHei,Arial" x="16.1">Acclimation</tspan></text><text style="fill:#ffffff;font-family:Arimo,PingFang SC,Mircrosoft YaHei,Arial;font-size:8.00pt" xml:space="preserve"><tspan y="58.5" style="font-family:Arimo,PingFang SC,Mircrosoft YaHei,Arial" x="10.9">Internationalization</tspan></text></g><g id="shape49" transform="translate(297.274000,523.530000)"><path fill="none" stroke="#26a1ff" stroke-width="2" d="M.0,.0L.0,1.5L-0.9,27.5L-0.9,38.0"/><path stroke-linecap="round" fill="#26a1ff" stroke="#26a1ff" stroke-width="1" d="M3.3,38.0L-0.9,46.5L-5.1,38.0L3.3,38.0"/></g><g id="shape50" transform="translate(198.089000,181.394000)"><path fill="url(#lg1)" fill-rule="nonzero" d="M11.3,.0L113.0,.0C119.6,.0,125.0,5.1,125.0,11.3L125.0,63.2C125.0,69.8,119.6,75.2,113.0,75.2L11.3,75.2C5.1,75.2,.0,69.8,.0,63.2L.0,11.3C.0,5.1,5.1,.0,11.3,.0z"/><path fill="none" stroke="#26a1ff" stroke-width="1" d="M11.3,.0L113.0,.0C119.6,.0,125.0,5.1,125.0,11.3L125.0,63.2C125.0,69.8,119.6,75.2,113.0,75.2L11.3,75.2C5.1,75.2,.0,69.8,.0,63.2L.0,11.3C.0,5.1,5.1,.0,11.3,.0zM.0,24.8L125.0,24.8L.0,24.8zM.0,50.2L125.0,50.2L.0,50.2z"/><text style="fill:#ffffff;font-family:Arimo,PingFang SC,Mircrosoft YaHei,Arial;font-size:12.00pt" xml:space="preserve"><tspan y="18.0" style="font-family:Arimo,PingFang SC,Mircrosoft YaHei,Arial" x="18.9">Boot-shared</tspan></text></g><g id="shape51" transform="translate(359.815000,328.271000)"><path fill="none" stroke="#26a1ff" stroke-width="2" d="M.0,.0L69.4,.0"/><path stroke-linecap="round" fill="#26a1ff" stroke="#26a1ff" stroke-width="1" d="M69.4,-4.2L77.9,.0L69.4,4.2L69.4,-4.2"/></g><g id="shape52" transform="translate(401.548000,468.530000)"><path fill="none" stroke="#26a1ff" stroke-width="2" d="M.0,.0L27.7,.0"/><path stroke-linecap="round" fill="#26a1ff" stroke="#26a1ff" stroke-width="1" d="M27.7,-4.2L36.2,.0L27.7,4.2L27.7,-4.2"/></g><g id="shape53" transform="translate(813.274000,523.530000)"><path fill="none" stroke="#26a1ff" stroke-width="2" d="M.0,.0L.0,101.5L-27.1,101.5"/><path stroke-linecap="round" fill="#26a1ff" stroke="#26a1ff" stroke-width="1" d="M-27.1,105.7L-35.5,101.5L-27.1,97.2L-27.1,105.7"/></g><g id="shape54" transform="translate(181.000000,107.013000)"><path fill="none" stroke="#26a1ff" stroke-width="2" d="M.0,.0L8.6,.0"/><path stroke-linecap="round" fill="#26a1ff" stroke="#26a1ff" stroke-width="1" d="M8.6,-4.2L17.1,.0L8.6,4.2L8.6,-4.2"/></g><g id="shape55" transform="translate(260.589000,153.013000)"><path fill="none" stroke="#26a1ff" stroke-width="2" d="M.0,.0L.0,19.9"/><path stroke-linecap="round" fill="#26a1ff" stroke="#26a1ff" stroke-width="1" d="M4.2,19.9L.0,28.4L-4.2,19.9L4.2,19.9"/></g><g id="shape56" transform="translate(198.089000,219.013000)"><path fill="none" stroke="#26a1ff" stroke-width="2" d="M.0,.0L-35.1,.0L-35.1,109.3L-8.5,109.3"/><path stroke-linecap="round" fill="#26a1ff" stroke="#26a1ff" stroke-width="1" d="M-8.5,105.0L.0,109.3L-8.5,113.5L-8.5,105.0"/></g><g id="shape57" transform="translate(198.089000,219.013000)"><path fill="none" stroke="#26a1ff" stroke-width="2" d="M.0,.0L-35.1,.0L-35.1,249.5L-13.6,249.5"/><path stroke-linecap="round" fill="#26a1ff" stroke="#26a1ff" stroke-width="1" d="M-13.6,245.3L-5.1,249.5L-13.6,253.8L-13.6,245.3"/></g><g id="shape58" transform="translate(198.089000,219.013000)"><path fill="none" stroke="#26a1ff" stroke-width="2" d="M.0,.0L-35.1,.0L-35.1,406.0L40.8,406.0"/><path stroke-linecap="round" fill="#26a1ff" stroke="#26a1ff" stroke-width="1" d="M40.8,401.8L49.3,406.0L40.8,410.2L40.8,401.8"/></g><g id="shape59" transform="translate(650.000000,523.530000)"><path fill="none" stroke="#26a1ff" stroke-width="2" d="M.0,.0L.0,101.5L21.2,101.5"/><path stroke-linecap="round" fill="#26a1ff" stroke="#26a1ff" stroke-width="1" d="M21.2,97.2L29.7,101.5L21.2,105.7L21.2,97.2"/></g></g></svg>