<svg width="1036" xmlns="http://www.w3.org/2000/svg" viewBox="0 0 1036 1652" xmlns:xlink="http://www.w3.org/1999/xlink" xmlns:ev="http://www.w3.org/2001/xml-events" height="1652"><defs><linearGradient x2="0%" id="lg1" x1="0%" y2="100%" y1="0%"><stop offset="0.00" stop-color="#71b3ff"/><stop offset="0.46" stop-color="#26a1ff"/><stop offset="1.00" stop-color="#2191e7"/></linearGradient></defs><g transform="translate(5.5,5.5)" id="page1"><rect width="1026" y="0" fill="#ffffff" height="1642" x="0"/><g id="group1"><path fill-rule="nonzero" fill="#ffffff" id="shape2" d="M.0,.0L1026.0,.0L1026.0,1642.0L.0,1642.0L.0,.0z"/><path fill-opacity="0.10" fill-rule="nonzero" fill="#00aeee" transform="translate(117.931877,469.425633)" id="shape3" d="M.0,109.1C.0,48.9,21.4,.0,47.8,.0C74.1,.0,95.6,48.9,95.6,109.1C95.6,169.4,74.1,218.3,47.8,218.3C21.4,218.3,.0,169.4,.0,109.1z"/><path fill-opacity="0.10" fill-rule="nonzero" fill="#00aeee" transform="translate(132.618195,800.995514)" id="shape4" d="M.0,342.0C.0,153.1,67.1,.0,149.8,.0C232.5,.0,299.5,153.1,299.5,342.0C299.5,530.9,232.5,684.1,149.8,684.1C67.1,684.1,.0,530.9,.0,342.0z"/><path fill-opacity="0.10" fill-rule="nonzero" fill="#00aeee" transform="translate(367.859475,746.405582)" id="shape5" d="M.0,174.2C.0,78.0,34.1,.0,76.3,.0C118.3,.0,152.5,78.0,152.5,174.2C152.5,270.3,118.3,348.4,76.3,348.4C34.1,348.4,.0,270.3,.0,174.2z"/><path fill-opacity="0.10" fill-rule="nonzero" fill="#00aeee" transform="translate(612.134685,557.890846)" id="shape6" d="M.0,127.7C.0,57.2,25.0,.0,55.9,.0C86.8,.0,111.9,57.2,111.9,127.7C111.9,198.2,86.8,255.5,55.9,255.5C25.0,255.5,.0,198.2,.0,127.7z"/><path fill-opacity="0.10" fill-rule="nonzero" fill="#00aeee" transform="translate(650.819399,1057.026006)" id="shape7" d="M.0,94.4C.0,42.2,18.5,.0,41.3,.0C64.2,.0,82.7,42.2,82.7,94.4C82.7,146.5,64.2,188.8,41.3,188.8C18.5,188.8,.0,146.5,.0,94.4z"/><path fill-opacity="0.10" fill-rule="nonzero" fill="#00aeee" transform="translate(897.449946,1042.321239)" id="shape8" d="M.0,67.1C.0,30.0,13.2,.0,29.4,.0C45.6,.0,58.8,30.0,58.8,67.1C58.8,104.2,45.6,134.3,29.4,134.3C13.2,134.3,.0,104.2,.0,67.1z"/><path fill-opacity="0.10" fill-rule="nonzero" fill="#00aeee" transform="translate(941.166011,594.340455)" id="shape9" d="M.0,33.5C.0,15.0,6.6,.0,14.7,.0C22.8,.0,29.4,15.0,29.4,33.5C29.4,52.1,22.8,67.1,14.7,67.1C6.6,67.1,.0,52.1,.0,33.5z"/><path fill-opacity="0.10" fill-rule="nonzero" fill="#00aeee" transform="translate(588.370217,1073.747313)" id="shape10" d="M.0,35.7C.0,16.0,7.0,.0,15.6,.0C24.2,.0,31.2,16.0,31.2,35.7C31.2,55.4,24.2,71.4,15.6,71.4C7.0,71.4,.0,55.4,.0,35.7z"/><path fill-opacity="0.10" fill-rule="nonzero" fill="#00aeee" transform="translate(40.753079,616.375356)" id="shape11" d="M.0,69.2C.0,30.9,13.6,.0,30.3,.0C47.1,.0,60.6,30.9,60.6,69.2C60.6,107.4,47.1,138.5,30.3,138.5C13.6,138.5,.0,107.4,.0,69.2z"/><path fill-opacity="0.10" fill-rule="nonzero" fill="#00aeee" transform="translate(24.214677,1124.106878)" id="shape12" d="M.0,52.5C.0,23.5,10.3,.0,23.0,.0C35.6,.0,46.0,23.5,46.0,52.5C46.0,81.4,35.6,104.9,23.0,104.9C10.3,104.9,.0,81.4,.0,52.5z"/><path fill-opacity="0.10" fill-rule="nonzero" fill="#00aeee" transform="translate(305.366072,687.685199)" id="shape13" d="M.0,37.8C.0,16.9,7.4,.0,16.5,.0C25.7,.0,33.1,16.9,33.1,37.8C33.1,58.6,25.7,75.5,16.5,75.5C7.4,75.5,.0,58.6,.0,37.8z"/><path fill-opacity="0.10" fill-rule="nonzero" fill="#00aeee" transform="translate(468.898006,687.685199)" id="shape14" d="M.0,63.0C.0,28.2,12.3,.0,27.6,.0C42.8,.0,55.1,28.2,55.1,63.0C55.1,97.7,42.8,125.9,27.6,125.9C12.3,125.9,.0,97.7,.0,63.0z"/><path fill-opacity="0.10" fill-rule="nonzero" fill="#00aeee" transform="translate(490.948900,935.257010)" id="shape15" d="M.0,50.4C.0,22.5,9.9,.0,22.1,.0C34.2,.0,44.1,22.5,44.1,50.4C44.1,78.2,34.2,100.7,22.1,100.7C9.9,100.7,.0,78.2,.0,50.4z"/><path fill-opacity="0.10" fill-rule="nonzero" fill="#00aeee" transform="translate(380.694171,1334.005955)" id="shape16" d="M.0,90.2C.0,40.3,17.7,.0,39.5,.0C61.3,.0,79.0,40.3,79.0,90.2C79.0,140.0,61.3,180.4,39.5,180.4C17.7,180.4,.0,140.0,.0,90.2z"/><path fill-opacity="0.10" fill-rule="nonzero" fill="#00aeee" transform="translate(862.758732,92.711425)" id="shape17" d="M.0,109.1C.0,48.9,21.4,.0,47.8,.0C74.1,.0,95.6,48.9,95.6,109.1C95.6,169.4,74.1,218.3,47.8,218.3C21.4,218.3,.0,169.4,.0,109.1z"/><path fill-opacity="0.10" fill-rule="nonzero" fill="#00aeee" transform="translate(940.261541,239.560411)" id="shape18" d="M.0,35.7C.0,16.0,7.0,.0,15.6,.0C24.2,.0,31.2,16.0,31.2,35.7C31.2,55.4,24.2,71.4,15.6,71.4C7.0,71.4,.0,55.4,.0,35.7z"/><path fill-opacity="0.10" fill-rule="nonzero" fill="#00aeee" transform="translate(593.968893,509.310388)" id="shape19" d="M.0,69.2C.0,30.9,13.6,.0,30.3,.0C47.1,.0,60.6,30.9,60.6,69.2C60.6,107.4,47.1,138.5,30.3,138.5C13.6,138.5,.0,107.4,.0,69.2z"/><path fill-opacity="0.10" fill-rule="nonzero" fill="#00aeee" transform="translate(970.299743,1305.229905)" id="shape20" d="M.0,35.7C.0,16.0,7.0,.0,15.6,.0C24.2,.0,31.2,16.0,31.2,35.7C31.2,55.4,24.2,71.4,15.6,71.4C7.0,71.4,.0,55.4,.0,35.7z"/></g><g transform="translate(83.000000,52.513000)" id="shape21"><path fill-rule="nonzero" fill="url(#lg1)" d="M11.3,.0L86.0,.0C92.6,.0,98.0,5.1,98.0,11.3L98.0,97.0C98.0,103.6,92.6,109.0,86.0,109.0L11.3,109.0C5.1,109.0,.0,103.6,.0,97.0L.0,11.3C.0,5.1,5.1,.0,11.3,.0z"/><path stroke="#26a1ff" fill="none" stroke-width="1" d="M11.3,.0L86.0,.0C92.6,.0,98.0,5.1,98.0,11.3L98.0,97.0C98.0,103.6,92.6,109.0,86.0,109.0L11.3,109.0C5.1,109.0,.0,103.6,.0,97.0L.0,11.3C.0,5.1,5.1,.0,11.3,.0zM.0,36.0L98.0,36.0L.0,36.0zM.0,72.7L98.0,72.7L.0,72.7z"/><text xml:space="preserve" style="fill:#ffffff;font-family:Arimo,PingFang SC,Mircrosoft YaHei,Arial;font-size:12.00pt"><tspan style="font-family:Arimo,PingFang SC,Mircrosoft YaHei,Arial" y="23.7" x="31.2">SICL</tspan></text></g><g transform="translate(679.726000,570.013000)" id="shape22"><path fill-rule="nonzero" fill="url(#lg1)" d="M11.3,.0L86.0,.0C92.6,.0,98.0,5.1,98.0,11.3L98.0,98.0C98.0,104.6,92.6,110.0,86.0,110.0L11.3,110.0C5.1,110.0,.0,104.6,.0,98.0L.0,11.3C.0,5.1,5.1,.0,11.3,.0z"/><path stroke="#26a1ff" fill="none" stroke-width="1" d="M11.3,.0L86.0,.0C92.6,.0,98.0,5.1,98.0,11.3L98.0,98.0C98.0,104.6,92.6,110.0,86.0,110.0L11.3,110.0C5.1,110.0,.0,104.6,.0,98.0L.0,11.3C.0,5.1,5.1,.0,11.3,.0zM.0,36.3L98.0,36.3L.0,36.3zM.0,73.4L98.0,73.4L.0,73.4z"/><text xml:space="preserve" style="fill:#ffffff;font-family:Arimo,PingFang SC,Mircrosoft YaHei,Arial;font-size:12.00pt"><tspan style="font-family:Arimo,PingFang SC,Mircrosoft YaHei,Arial" y="23.8" x="17.0">Clappers</tspan></text><text xml:space="preserve" style="fill:#ffffff;font-family:Arimo,PingFang SC,Mircrosoft YaHei,Arial;font-size:8.00pt"><tspan style="font-family:Arimo,PingFang SC,Mircrosoft YaHei,Arial" y="52.0" x="12.1">SSA optimizing </tspan><tspan style="font-family:Arimo,PingFang SC,Mircrosoft YaHei,Arial" y="65.0" x="28.2">compiler</tspan></text></g><g transform="translate(360.096000,135.496258)" id="shape23"><path fill-rule="nonzero" fill="url(#lg1)" d="M11.3,.0L86.0,.0C92.6,.0,98.0,5.1,98.0,11.3L98.0,98.0C98.0,104.6,92.6,110.0,86.0,110.0L11.3,110.0C5.1,110.0,.0,104.6,.0,98.0L.0,11.3C.0,5.1,5.1,.0,11.3,.0z"/><path stroke="#26a1ff" fill="none" stroke-width="1" d="M11.3,.0L86.0,.0C92.6,.0,98.0,5.1,98.0,11.3L98.0,98.0C98.0,104.6,92.6,110.0,86.0,110.0L11.3,110.0C5.1,110.0,.0,104.6,.0,98.0L.0,11.3C.0,5.1,5.1,.0,11.3,.0zM.0,36.3L98.0,36.3L.0,36.3zM.0,73.4L98.0,73.4L.0,73.4z"/><text xml:space="preserve" style="fill:#ffffff;font-family:Arimo,PingFang SC,Mircrosoft YaHei,Arial;font-size:12.00pt"><tspan style="font-family:Arimo,PingFang SC,Mircrosoft YaHei,Arial" y="23.8" x="17.0">Clostrum</tspan></text><text xml:space="preserve" style="fill:#ffffff;font-family:Arimo,PingFang SC,Mircrosoft YaHei,Arial;font-size:8.00pt"><tspan style="font-family:Arimo,PingFang SC,Mircrosoft YaHei,Arial" y="52.0" x="33.1">Global </tspan><tspan style="font-family:Arimo,PingFang SC,Mircrosoft YaHei,Arial" y="65.0" x="18.8">environment</tspan></text></g><g transform="translate(601.000000,413.529742)" id="shape24"><path fill-rule="nonzero" fill="url(#lg1)" d="M11.3,.0L86.0,.0C92.6,.0,98.0,5.1,98.0,11.3L98.0,98.0C98.0,104.6,92.6,110.0,86.0,110.0L11.3,110.0C5.1,110.0,.0,104.6,.0,98.0L.0,11.3C.0,5.1,5.1,.0,11.3,.0z"/><path stroke="#26a1ff" fill="none" stroke-width="1" d="M11.3,.0L86.0,.0C92.6,.0,98.0,5.1,98.0,11.3L98.0,98.0C98.0,104.6,92.6,110.0,86.0,110.0L11.3,110.0C5.1,110.0,.0,104.6,.0,98.0L.0,11.3C.0,5.1,5.1,.0,11.3,.0zM.0,36.3L98.0,36.3L.0,36.3zM.0,73.4L98.0,73.4L.0,73.4z"/><text xml:space="preserve" style="fill:#ffffff;font-family:Arimo,PingFang SC,Mircrosoft YaHei,Arial;font-size:12.00pt"><tspan style="font-family:Arimo,PingFang SC,Mircrosoft YaHei,Arial" y="23.8" x="24.1">Cleavir</tspan></text><text xml:space="preserve" style="fill:#ffffff;font-family:Arimo,PingFang SC,Mircrosoft YaHei,Arial;font-size:8.00pt"><tspan style="font-family:Arimo,PingFang SC,Mircrosoft YaHei,Arial" y="52.0" x="27.0">Compiler </tspan><tspan style="font-family:Arimo,PingFang SC,Mircrosoft YaHei,Arial" y="65.0" x="23.4">framework</tspan></text></g><g transform="translate(698.274000,135.496258)" id="shape25"><path fill-rule="nonzero" fill="url(#lg1)" d="M11.3,.0L86.0,.0C92.6,.0,98.0,5.1,98.0,11.3L98.0,98.0C98.0,104.6,92.6,110.0,86.0,110.0L11.3,110.0C5.1,110.0,.0,104.6,.0,98.0L.0,11.3C.0,5.1,5.1,.0,11.3,.0z"/><path stroke="#26a1ff" fill="none" stroke-width="1" d="M11.3,.0L86.0,.0C92.6,.0,98.0,5.1,98.0,11.3L98.0,98.0C98.0,104.6,92.6,110.0,86.0,110.0L11.3,110.0C5.1,110.0,.0,104.6,.0,98.0L.0,11.3C.0,5.1,5.1,.0,11.3,.0zM.0,36.3L98.0,36.3L.0,36.3zM.0,73.4L98.0,73.4L.0,73.4z"/><text xml:space="preserve" style="fill:#ffffff;font-family:Arimo,PingFang SC,Mircrosoft YaHei,Arial;font-size:12.00pt"><tspan style="font-family:Arimo,PingFang SC,Mircrosoft YaHei,Arial" y="23.8" x="20.1">Eclector</tspan></text><text xml:space="preserve" style="fill:#ffffff;font-family:Arimo,PingFang SC,Mircrosoft YaHei,Arial;font-size:8.00pt"><tspan style="font-family:Arimo,PingFang SC,Mircrosoft YaHei,Arial" y="58.5" x="19.4">Lisp Reader</tspan></text></g><g transform="translate(811.000000,136.496258)" id="shape26"><path fill-rule="nonzero" fill="url(#lg1)" d="M11.3,.0L92.0,.0C98.6,.0,104.0,5.1,104.0,11.3L104.0,98.0C104.0,104.6,98.6,110.0,92.0,110.0L11.3,110.0C5.1,110.0,.0,104.6,.0,98.0L.0,11.3C.0,5.1,5.1,.0,11.3,.0z"/><path stroke="#26a1ff" fill="none" stroke-width="1" d="M11.3,.0L92.0,.0C98.6,.0,104.0,5.1,104.0,11.3L104.0,98.0C104.0,104.6,98.6,110.0,92.0,110.0L11.3,110.0C5.1,110.0,.0,104.6,.0,98.0L.0,11.3C.0,5.1,5.1,.0,11.3,.0zM.0,36.3L104.0,36.3L.0,36.3zM.0,73.4L104.0,73.4L.0,73.4z"/><text xml:space="preserve" style="fill:#ffffff;font-family:Arimo,PingFang SC,Mircrosoft YaHei,Arial;font-size:12.00pt"><tspan style="font-family:Arimo,PingFang SC,Mircrosoft YaHei,Arial" y="23.8" x="11.1">Clordecone</tspan></text><text xml:space="preserve" style="fill:#ffffff;font-family:Arimo,PingFang SC,Mircrosoft YaHei,Arial;font-size:8.00pt"><tspan style="font-family:Arimo,PingFang SC,Mircrosoft YaHei,Arial" y="58.5" x="16.3">Lisp Debugger</tspan></text></g><g transform="translate(929.726000,136.496258)" id="shape27"><path fill-rule="nonzero" fill="url(#lg1)" d="M11.3,.0L86.0,.0C92.6,.0,98.0,5.1,98.0,11.3L98.0,98.0C98.0,104.6,92.6,110.0,86.0,110.0L11.3,110.0C5.1,110.0,.0,104.6,.0,98.0L.0,11.3C.0,5.1,5.1,.0,11.3,.0z"/><path stroke="#26a1ff" fill="none" stroke-width="1" d="M11.3,.0L86.0,.0C92.6,.0,98.0,5.1,98.0,11.3L98.0,98.0C98.0,104.6,92.6,110.0,86.0,110.0L11.3,110.0C5.1,110.0,.0,104.6,.0,98.0L.0,11.3C.0,5.1,5.1,.0,11.3,.0zM.0,36.3L98.0,36.3L.0,36.3zM.0,73.4L98.0,73.4L.0,73.4z"/><text xml:space="preserve" style="fill:#ffffff;font-family:Arimo,PingFang SC,Mircrosoft YaHei,Arial;font-size:12.00pt"><tspan style="font-family:Arimo,PingFang SC,Mircrosoft YaHei,Arial" y="23.8" x="23.7">Tazivor</tspan></text><text xml:space="preserve" style="fill:#ffffff;font-family:Arimo,PingFang SC,Mircrosoft YaHei,Arial;font-size:8.00pt"><tspan style="font-family:Arimo,PingFang SC,Mircrosoft YaHei,Arial" y="58.5" x="26.4">Inspector</tspan></text></g><g transform="translate(764.274000,413.529742)" id="shape28"><path fill-rule="nonzero" fill="url(#lg1)" d="M11.3,.0L86.0,.0C92.6,.0,98.0,5.1,98.0,11.3L98.0,98.0C98.0,104.6,92.6,110.0,86.0,110.0L11.3,110.0C5.1,110.0,.0,104.6,.0,98.0L.0,11.3C.0,5.1,5.1,.0,11.3,.0z"/><path stroke="#26a1ff" fill="none" stroke-width="1" d="M11.3,.0L86.0,.0C92.6,.0,98.0,5.1,98.0,11.3L98.0,98.0C98.0,104.6,92.6,110.0,86.0,110.0L11.3,110.0C5.1,110.0,.0,104.6,.0,98.0L.0,11.3C.0,5.1,5.1,.0,11.3,.0zM.0,36.3L98.0,36.3L.0,36.3zM.0,73.4L98.0,73.4L.0,73.4z"/><text xml:space="preserve" style="fill:#ffffff;font-family:Arimo,PingFang SC,Mircrosoft YaHei,Arial;font-size:12.00pt"><tspan style="font-family:Arimo,PingFang SC,Mircrosoft YaHei,Arial" y="23.8" x="23.7">Cluster</tspan></text><text xml:space="preserve" style="fill:#ffffff;font-family:Arimo,PingFang SC,Mircrosoft YaHei,Arial;font-size:8.00pt"><tspan style="font-family:Arimo,PingFang SC,Mircrosoft YaHei,Arial" y="58.5" x="23.0">Assembler</tspan></text></g><path stroke="#26a1ff" fill="none" transform="translate(824.089000,224.013000)" id="shape29" stroke-width="2" d="M.0,.0L.0,.0"/><g transform="translate(747.274000,135.496258)" id="shape30"><path stroke="#26a1ff" fill="none" stroke-width="2" d="M.0,.0L.0,-28.5L-557.8,-28.5"/><path fill="#26a1ff" stroke="#26a1ff" stroke-width="1" stroke-linecap="round" d="M-557.8,-24.2L-566.3,-28.5L-557.8,-32.7L-557.8,-24.2"/></g><g transform="translate(409.096000,135.496258)" id="shape31"><path stroke="#26a1ff" fill="none" stroke-width="2" d="M.0,.0L.0,-28.5L-219.6,-28.5"/><path fill="#26a1ff" stroke="#26a1ff" stroke-width="1" stroke-linecap="round" d="M-219.6,-24.2L-228.1,-28.5L-219.6,-32.7L-219.6,-24.2"/></g><g transform="translate(345.125000,1082.514871)" id="shape32"><path fill-rule="nonzero" fill="url(#lg1)" d="M11.3,.0L86.0,.0C92.6,.0,98.0,5.1,98.0,11.3L98.0,98.0C98.0,104.6,92.6,110.0,86.0,110.0L11.3,110.0C5.1,110.0,.0,104.6,.0,98.0L.0,11.3C.0,5.1,5.1,.0,11.3,.0z"/><path stroke="#26a1ff" fill="none" stroke-width="1" d="M11.3,.0L86.0,.0C92.6,.0,98.0,5.1,98.0,11.3L98.0,98.0C98.0,104.6,92.6,110.0,86.0,110.0L11.3,110.0C5.1,110.0,.0,104.6,.0,98.0L.0,11.3C.0,5.1,5.1,.0,11.3,.0zM.0,36.3L98.0,36.3L.0,36.3zM.0,73.4L98.0,73.4L.0,73.4z"/><text xml:space="preserve" style="fill:#ffffff;font-family:Arimo,PingFang SC,Mircrosoft YaHei,Arial;font-size:12.00pt"><tspan style="font-family:Arimo,PingFang SC,Mircrosoft YaHei,Arial" y="23.8" x="19.2">Khazern</tspan></text><text xml:space="preserve" style="fill:#ffffff;font-family:Arimo,PingFang SC,Mircrosoft YaHei,Arial;font-size:8.00pt"><tspan style="font-family:Arimo,PingFang SC,Mircrosoft YaHei,Arial" y="58.5" x="38.6">loop</tspan></text></g><g transform="translate(508.375000,1082.514871)" id="shape33"><path fill-rule="nonzero" fill="url(#lg1)" d="M11.3,.0L86.0,.0C92.6,.0,98.0,5.1,98.0,11.3L98.0,98.0C98.0,104.6,92.6,110.0,86.0,110.0L11.3,110.0C5.1,110.0,.0,104.6,.0,98.0L.0,11.3C.0,5.1,5.1,.0,11.3,.0z"/><path stroke="#26a1ff" fill="none" stroke-width="1" d="M11.3,.0L86.0,.0C92.6,.0,98.0,5.1,98.0,11.3L98.0,98.0C98.0,104.6,92.6,110.0,86.0,110.0L11.3,110.0C5.1,110.0,.0,104.6,.0,98.0L.0,11.3C.0,5.1,5.1,.0,11.3,.0zM.0,36.3L98.0,36.3L.0,36.3zM.0,73.4L98.0,73.4L.0,73.4z"/><text xml:space="preserve" style="fill:#ffffff;font-family:Arimo,PingFang SC,Mircrosoft YaHei,Arial;font-size:12.00pt"><tspan style="font-family:Arimo,PingFang SC,Mircrosoft YaHei,Arial" y="23.8" x="16.1">Clonedijk</tspan></text><text xml:space="preserve" style="fill:#ffffff;font-family:Arimo,PingFang SC,Mircrosoft YaHei,Arial;font-size:8.00pt"><tspan style="font-family:Arimo,PingFang SC,Mircrosoft YaHei,Arial" y="52.0" x="35.9">clone </tspan><tspan style="font-family:Arimo,PingFang SC,Mircrosoft YaHei,Arial" y="65.0" x="21.8">information</tspan></text></g><g transform="translate(31.125000,1082.514871)" id="shape34"><path fill-rule="nonzero" fill="url(#lg1)" d="M11.3,.0L86.0,.0C92.6,.0,98.0,5.1,98.0,11.3L98.0,98.0C98.0,104.6,92.6,110.0,86.0,110.0L11.3,110.0C5.1,110.0,.0,104.6,.0,98.0L.0,11.3C.0,5.1,5.1,.0,11.3,.0z"/><path stroke="#26a1ff" fill="none" stroke-width="1" d="M11.3,.0L86.0,.0C92.6,.0,98.0,5.1,98.0,11.3L98.0,98.0C98.0,104.6,92.6,110.0,86.0,110.0L11.3,110.0C5.1,110.0,.0,104.6,.0,98.0L.0,11.3C.0,5.1,5.1,.0,11.3,.0zM.0,36.3L98.0,36.3L.0,36.3zM.0,73.4L98.0,73.4L.0,73.4z"/><text xml:space="preserve" style="fill:#ffffff;font-family:Arimo,PingFang SC,Mircrosoft YaHei,Arial;font-size:12.00pt"><tspan style="font-family:Arimo,PingFang SC,Mircrosoft YaHei,Arial" y="23.8" x="24.1">Incless</tspan></text><text xml:space="preserve" style="fill:#ffffff;font-family:Arimo,PingFang SC,Mircrosoft YaHei,Arial;font-size:8.00pt"><tspan style="font-family:Arimo,PingFang SC,Mircrosoft YaHei,Arial" y="58.5" x="21.8">print-object</tspan></text></g><g transform="translate(247.370000,136.496258)" id="shape35"><path fill-rule="nonzero" fill="url(#lg1)" d="M11.3,.0L86.0,.0C92.6,.0,98.0,5.1,98.0,11.3L98.0,97.0C98.0,103.6,92.6,109.0,86.0,109.0L11.3,109.0C5.1,109.0,.0,103.6,.0,97.0L.0,11.3C.0,5.1,5.1,.0,11.3,.0z"/><path stroke="#26a1ff" fill="none" stroke-width="1" d="M11.3,.0L86.0,.0C92.6,.0,98.0,5.1,98.0,11.3L98.0,97.0C98.0,103.6,92.6,109.0,86.0,109.0L11.3,109.0C5.1,109.0,.0,103.6,.0,97.0L.0,11.3C.0,5.1,5.1,.0,11.3,.0zM.0,36.0L98.0,36.0L.0,36.0zM.0,72.7L98.0,72.7L.0,72.7z"/><text xml:space="preserve" style="fill:#ffffff;font-family:Arimo,PingFang SC,Mircrosoft YaHei,Arial;font-size:12.00pt"><tspan style="font-family:Arimo,PingFang SC,Mircrosoft YaHei,Arial" y="23.7" x="28.1">Ctype</tspan></text><text xml:space="preserve" style="fill:#ffffff;font-family:Arimo,PingFang SC,Mircrosoft YaHei,Arial;font-size:8.00pt"><tspan style="font-family:Arimo,PingFang SC,Mircrosoft YaHei,Arial" y="51.5" x="18.2">common lisp </tspan><tspan style="font-family:Arimo,PingFang SC,Mircrosoft YaHei,Arial" y="64.5" x="19.7">type system</tspan></text></g><g transform="translate(472.822000,135.996258)" id="shape36"><path fill-rule="nonzero" fill="url(#lg1)" d="M11.3,.0L86.0,.0C92.6,.0,98.0,5.1,98.0,11.3L98.0,98.0C98.0,104.6,92.6,110.0,86.0,110.0L11.3,110.0C5.1,110.0,.0,104.6,.0,98.0L.0,11.3C.0,5.1,5.1,.0,11.3,.0z"/><path stroke="#26a1ff" fill="none" stroke-width="1" d="M11.3,.0L86.0,.0C92.6,.0,98.0,5.1,98.0,11.3L98.0,98.0C98.0,104.6,92.6,110.0,86.0,110.0L11.3,110.0C5.1,110.0,.0,104.6,.0,98.0L.0,11.3C.0,5.1,5.1,.0,11.3,.0zM.0,36.3L98.0,36.3L.0,36.3zM.0,73.4L98.0,73.4L.0,73.4z"/><text xml:space="preserve" style="fill:#ffffff;font-family:Arimo,PingFang SC,Mircrosoft YaHei,Arial;font-size:12.00pt"><tspan style="font-family:Arimo,PingFang SC,Mircrosoft YaHei,Arial" y="23.8" x="20.4">Truckler</tspan></text><text xml:space="preserve" style="fill:#ffffff;font-family:Arimo,PingFang SC,Mircrosoft YaHei,Arial;font-size:8.00pt"><tspan style="font-family:Arimo,PingFang SC,Mircrosoft YaHei,Arial" y="45.5" x="18.8">environment </tspan><tspan style="font-family:Arimo,PingFang SC,Mircrosoft YaHei,Arial" y="58.5" x="24.6">query and </tspan><tspan style="font-family:Arimo,PingFang SC,Mircrosoft YaHei,Arial" y="71.5" x="32.2">update</tspan></text></g><g transform="translate(176.125000,1082.514871)" id="shape37"><path fill-rule="nonzero" fill="url(#lg1)" d="M11.3,.0L86.0,.0C92.6,.0,98.0,5.1,98.0,11.3L98.0,98.0C98.0,104.6,92.6,110.0,86.0,110.0L11.3,110.0C5.1,110.0,.0,104.6,.0,98.0L.0,11.3C.0,5.1,5.1,.0,11.3,.0z"/><path stroke="#26a1ff" fill="none" stroke-width="1" d="M11.3,.0L86.0,.0C92.6,.0,98.0,5.1,98.0,11.3L98.0,98.0C98.0,104.6,92.6,110.0,86.0,110.0L11.3,110.0C5.1,110.0,.0,104.6,.0,98.0L.0,11.3C.0,5.1,5.1,.0,11.3,.0zM.0,36.3L98.0,36.3L.0,36.3zM.0,73.4L98.0,73.4L.0,73.4z"/><text xml:space="preserve" style="fill:#ffffff;font-family:Arimo,PingFang SC,Mircrosoft YaHei,Arial;font-size:12.00pt"><tspan style="font-family:Arimo,PingFang SC,Mircrosoft YaHei,Arial" y="23.8" x="23.2">Invistra</tspan></text><text xml:space="preserve" style="fill:#ffffff;font-family:Arimo,PingFang SC,Mircrosoft YaHei,Arial;font-size:8.00pt"><tspan style="font-family:Arimo,PingFang SC,Mircrosoft YaHei,Arial" y="58.5" x="33.4">format</tspan></text></g><g transform="translate(198.089000,273.271371)" id="shape38"><path fill-rule="nonzero" fill="url(#lg1)" d="M11.3,.0L149.7,.0C156.3,.0,161.7,5.1,161.7,11.3L161.7,98.0C161.7,104.6,156.3,110.0,149.7,110.0L11.3,110.0C5.1,110.0,.0,104.6,.0,98.0L.0,11.3C.0,5.1,5.1,.0,11.3,.0z"/><path stroke="#26a1ff" fill="none" stroke-width="1" d="M11.3,.0L149.7,.0C156.3,.0,161.7,5.1,161.7,11.3L161.7,98.0C161.7,104.6,156.3,110.0,149.7,110.0L11.3,110.0C5.1,110.0,.0,104.6,.0,98.0L.0,11.3C.0,5.1,5.1,.0,11.3,.0zM.0,36.3L161.7,36.3L.0,36.3zM.0,73.4L161.7,73.4L.0,73.4z"/><text xml:space="preserve" style="fill:#ffffff;font-family:Arimo,PingFang SC,Mircrosoft YaHei,Arial;font-size:12.00pt"><tspan style="font-family:Arimo,PingFang SC,Mircrosoft YaHei,Arial" y="23.8" x="9.8">s-expression-syntax</tspan></text><text xml:space="preserve" style="fill:#ffffff;font-family:Arimo,PingFang SC,Mircrosoft YaHei,Arial;font-size:8.00pt"><tspan style="font-family:Arimo,PingFang SC,Mircrosoft YaHei,Arial" y="58.5" x="50.2">parse sexp's</tspan></text></g><g transform="translate(193.000000,413.529742)" id="shape39"><path fill-rule="nonzero" fill="url(#lg1)" d="M11.3,.0L196.5,.0C203.1,.0,208.5,5.1,208.5,11.3L208.5,98.0C208.5,104.6,203.1,110.0,196.5,110.0L11.3,110.0C5.1,110.0,.0,104.6,.0,98.0L.0,11.3C.0,5.1,5.1,.0,11.3,.0z"/><path stroke="#26a1ff" fill="none" stroke-width="1" d="M11.3,.0L196.5,.0C203.1,.0,208.5,5.1,208.5,11.3L208.5,98.0C208.5,104.6,203.1,110.0,196.5,110.0L11.3,110.0C5.1,110.0,.0,104.6,.0,98.0L.0,11.3C.0,5.1,5.1,.0,11.3,.0zM.0,36.3L208.5,36.3L.0,36.3zM.0,73.4L208.5,73.4L.0,73.4z"/><text xml:space="preserve" style="fill:#ffffff;font-family:Arimo,PingFang SC,Mircrosoft YaHei,Arial;font-size:12.00pt"><tspan style="font-family:Arimo,PingFang SC,Mircrosoft YaHei,Arial" y="23.8" x="9.6">arcitecture.builder-protocol</tspan></text><text xml:space="preserve" style="fill:#ffffff;font-family:Arimo,PingFang SC,Mircrosoft YaHei,Arial;font-size:8.00pt"><tspan style="font-family:Arimo,PingFang SC,Mircrosoft YaHei,Arial" y="58.5" x="75.7">AST builder</tspan></text></g><g transform="translate(247.370000,570.013000)" id="shape40"><path fill-rule="nonzero" fill="url(#lg1)" d="M11.3,.0L86.0,.0C92.6,.0,98.0,5.1,98.0,11.3L98.0,98.0C98.0,104.6,92.6,110.0,86.0,110.0L11.3,110.0C5.1,110.0,.0,104.6,.0,98.0L.0,11.3C.0,5.1,5.1,.0,11.3,.0z"/><path stroke="#26a1ff" fill="none" stroke-width="1" d="M11.3,.0L86.0,.0C92.6,.0,98.0,5.1,98.0,11.3L98.0,98.0C98.0,104.6,92.6,110.0,86.0,110.0L11.3,110.0C5.1,110.0,.0,104.6,.0,98.0L.0,11.3C.0,5.1,5.1,.0,11.3,.0zM.0,36.3L98.0,36.3L.0,36.3zM.0,73.4L98.0,73.4L.0,73.4z"/><text xml:space="preserve" style="fill:#ffffff;font-family:Arimo,PingFang SC,Mircrosoft YaHei,Arial;font-size:12.00pt"><tspan style="font-family:Arimo,PingFang SC,Mircrosoft YaHei,Arial" y="23.8" x="13.0">Iconoclast</tspan></text><text xml:space="preserve" style="fill:#ffffff;font-family:Arimo,PingFang SC,Mircrosoft YaHei,Arial;font-size:8.00pt"><tspan style="font-family:Arimo,PingFang SC,Mircrosoft YaHei,Arial" y="58.5" x="13.9">represent AST</tspan></text></g><g transform="translate(162.625000,804.481387)" id="shape41"><path fill-rule="nonzero" fill="url(#lg1)" d="M11.3,.0L113.0,.0C119.6,.0,125.0,5.1,125.0,11.3L125.0,80.0C125.0,86.6,119.6,92.0,113.0,92.0L11.3,92.0C5.1,92.0,.0,86.6,.0,80.0L.0,11.3C.0,5.1,5.1,.0,11.3,.0z"/><path stroke="#26a1ff" fill="none" stroke-width="1" d="M11.3,.0L113.0,.0C119.6,.0,125.0,5.1,125.0,11.3L125.0,80.0C125.0,86.6,119.6,92.0,113.0,92.0L11.3,92.0C5.1,92.0,.0,86.6,.0,80.0L.0,11.3C.0,5.1,5.1,.0,11.3,.0zM.0,30.4L125.0,30.4L.0,30.4zM.0,61.4L125.0,61.4L.0,61.4z"/><text xml:space="preserve" style="fill:#ffffff;font-family:Arimo,PingFang SC,Mircrosoft YaHei,Arial;font-size:12.00pt"><tspan style="font-family:Arimo,PingFang SC,Mircrosoft YaHei,Arial" y="20.8" x="14.1">common boot</tspan></text></g><g transform="translate(777.875000,942.256500)" id="shape42"><path fill-rule="nonzero" fill="url(#lg1)" d="M11.3,.0L139.0,.0C145.6,.0,151.0,5.1,151.0,11.3L151.0,82.3C151.0,88.9,145.6,94.3,139.0,94.3L11.3,94.3C5.1,94.3,.0,88.9,.0,82.3L.0,11.3C.0,5.1,5.1,.0,11.3,.0z"/><path stroke="#26a1ff" fill="none" stroke-width="1" d="M11.3,.0L139.0,.0C145.6,.0,151.0,5.1,151.0,11.3L151.0,82.3C151.0,88.9,145.6,94.3,139.0,94.3L11.3,94.3C5.1,94.3,.0,88.9,.0,82.3L.0,11.3C.0,5.1,5.1,.0,11.3,.0zM.0,31.1L151.0,31.1L.0,31.1zM.0,62.9L151.0,62.9L.0,62.9z"/><text xml:space="preserve" style="fill:#ffffff;font-family:Arimo,PingFang SC,Mircrosoft YaHei,Arial;font-size:12.00pt"><tspan style="font-family:Arimo,PingFang SC,Mircrosoft YaHei,Arial" y="21.2" x="14.2">Common-macros</tspan></text></g><g transform="translate(585.548000,135.996258)" id="shape43"><path fill-rule="nonzero" fill="url(#lg1)" d="M11.3,.0L86.0,.0C92.6,.0,98.0,5.1,98.0,11.3L98.0,98.0C98.0,104.6,92.6,110.0,86.0,110.0L11.3,110.0C5.1,110.0,.0,104.6,.0,98.0L.0,11.3C.0,5.1,5.1,.0,11.3,.0z"/><path stroke="#26a1ff" fill="none" stroke-width="1" d="M11.3,.0L86.0,.0C92.6,.0,98.0,5.1,98.0,11.3L98.0,98.0C98.0,104.6,92.6,110.0,86.0,110.0L11.3,110.0C5.1,110.0,.0,104.6,.0,98.0L.0,11.3C.0,5.1,5.1,.0,11.3,.0zM.0,36.3L98.0,36.3L.0,36.3zM.0,73.4L98.0,73.4L.0,73.4z"/><text xml:space="preserve" style="fill:#ffffff;font-family:Arimo,PingFang SC,Mircrosoft YaHei,Arial;font-size:12.00pt"><tspan style="font-family:Arimo,PingFang SC,Mircrosoft YaHei,Arial" y="23.8" x="30.8">Parcl</tspan></text><text xml:space="preserve" style="fill:#ffffff;font-family:Arimo,PingFang SC,Mircrosoft YaHei,Arial;font-size:8.00pt"><tspan style="font-family:Arimo,PingFang SC,Mircrosoft YaHei,Arial" y="58.5" x="9.3">package system</tspan></text></g><g transform="translate(437.726000,413.529742)" id="shape44"><path fill-rule="nonzero" fill="url(#lg1)" d="M11.3,.0L86.0,.0C92.6,.0,98.0,5.1,98.0,11.3L98.0,98.0C98.0,104.6,92.6,110.0,86.0,110.0L11.3,110.0C5.1,110.0,.0,104.6,.0,98.0L.0,11.3C.0,5.1,5.1,.0,11.3,.0z"/><path stroke="#26a1ff" fill="none" stroke-width="1" d="M11.3,.0L86.0,.0C92.6,.0,98.0,5.1,98.0,11.3L98.0,98.0C98.0,104.6,92.6,110.0,86.0,110.0L11.3,110.0C5.1,110.0,.0,104.6,.0,98.0L.0,11.3C.0,5.1,5.1,.0,11.3,.0zM.0,36.3L98.0,36.3L.0,36.3zM.0,73.4L98.0,73.4L.0,73.4z"/><text xml:space="preserve" style="fill:#ffffff;font-family:Arimo,PingFang SC,Mircrosoft YaHei,Arial;font-size:12.00pt"><tspan style="font-family:Arimo,PingFang SC,Mircrosoft YaHei,Arial" y="23.8" x="19.2">Ecclesia</tspan></text><text xml:space="preserve" style="fill:#ffffff;font-family:Arimo,PingFang SC,Mircrosoft YaHei,Arial;font-size:8.00pt"><tspan style="font-family:Arimo,PingFang SC,Mircrosoft YaHei,Arial" y="58.5" x="17.6">code utillities</tspan></text></g><g transform="translate(437.726000,273.271371)" id="shape45"><path fill-rule="nonzero" fill="url(#lg1)" d="M11.3,.0L101.0,.0C107.6,.0,113.0,5.1,113.0,11.3L113.0,98.0C113.0,104.6,107.6,110.0,101.0,110.0L11.3,110.0C5.1,110.0,.0,104.6,.0,98.0L.0,11.3C.0,5.1,5.1,.0,11.3,.0z"/><path stroke="#26a1ff" fill="none" stroke-width="1" d="M11.3,.0L101.0,.0C107.6,.0,113.0,5.1,113.0,11.3L113.0,98.0C113.0,104.6,107.6,110.0,101.0,110.0L11.3,110.0C5.1,110.0,.0,104.6,.0,98.0L.0,11.3C.0,5.1,5.1,.0,11.3,.0zM.0,36.3L113.0,36.3L.0,36.3zM.0,73.4L113.0,73.4L.0,73.4z"/><text xml:space="preserve" style="fill:#ffffff;font-family:Arimo,PingFang SC,Mircrosoft YaHei,Arial;font-size:12.00pt"><tspan style="font-family:Arimo,PingFang SC,Mircrosoft YaHei,Arial" y="23.8" x="9.8">parser.pacrat</tspan></text><text xml:space="preserve" style="fill:#ffffff;font-family:Arimo,PingFang SC,Mircrosoft YaHei,Arial;font-size:8.00pt"><tspan style="font-family:Arimo,PingFang SC,Mircrosoft YaHei,Arial" y="58.5" x="19.3">parse grammar</tspan></text></g><g transform="translate(246.125000,942.256500)" id="shape46"><path fill-rule="nonzero" fill="url(#lg1)" d="M11.3,.0L109.0,.0C115.6,.0,121.0,5.1,121.0,11.3L121.0,98.0C121.0,104.6,115.6,110.0,109.0,110.0L11.3,110.0C5.1,110.0,.0,104.6,.0,98.0L.0,11.3C.0,5.1,5.1,.0,11.3,.0z"/><path stroke="#26a1ff" fill="none" stroke-width="1" d="M11.3,.0L109.0,.0C115.6,.0,121.0,5.1,121.0,11.3L121.0,98.0C121.0,104.6,115.6,110.0,109.0,110.0L11.3,110.0C5.1,110.0,.0,104.6,.0,98.0L.0,11.3C.0,5.1,5.1,.0,11.3,.0zM.0,36.3L121.0,36.3L.0,36.3zM.0,73.4L121.0,73.4L.0,73.4z"/><text xml:space="preserve" style="fill:#ffffff;font-family:Arimo,PingFang SC,Mircrosoft YaHei,Arial;font-size:12.00pt"><tspan style="font-family:Arimo,PingFang SC,Mircrosoft YaHei,Arial" y="23.8" x="15.6">Predicament</tspan></text><text xml:space="preserve" style="fill:#ffffff;font-family:Arimo,PingFang SC,Mircrosoft YaHei,Arial;font-size:8.00pt"><tspan style="font-family:Arimo,PingFang SC,Mircrosoft YaHei,Arial" y="52.0" x="12.6">Exception and error </tspan><tspan style="font-family:Arimo,PingFang SC,Mircrosoft YaHei,Arial" y="65.0" x="36.7">handeling</tspan></text></g><g transform="translate(637.875000,942.256500)" id="shape47"><path fill-rule="nonzero" fill="url(#lg1)" d="M11.3,.0L86.0,.0C92.6,.0,98.0,5.1,98.0,11.3L98.0,98.0C98.0,104.6,92.6,110.0,86.0,110.0L11.3,110.0C5.1,110.0,.0,104.6,.0,98.0L.0,11.3C.0,5.1,5.1,.0,11.3,.0z"/><path stroke="#26a1ff" fill="none" stroke-width="1" d="M11.3,.0L86.0,.0C92.6,.0,98.0,5.1,98.0,11.3L98.0,98.0C98.0,104.6,92.6,110.0,86.0,110.0L11.3,110.0C5.1,110.0,.0,104.6,.0,98.0L.0,11.3C.0,5.1,5.1,.0,11.3,.0zM.0,36.3L98.0,36.3L.0,36.3zM.0,73.4L98.0,73.4L.0,73.4z"/><text xml:space="preserve" style="fill:#ffffff;font-family:Arimo,PingFang SC,Mircrosoft YaHei,Arial;font-size:12.00pt"><tspan style="font-family:Arimo,PingFang SC,Mircrosoft YaHei,Arial" y="23.8" x="30.8">Bouy</tspan></text><text xml:space="preserve" style="fill:#ffffff;font-family:Arimo,PingFang SC,Mircrosoft YaHei,Arial;font-size:8.00pt"><tspan style="font-family:Arimo,PingFang SC,Mircrosoft YaHei,Arial" y="52.0" x="16.0">Floating point </tspan><tspan style="font-family:Arimo,PingFang SC,Mircrosoft YaHei,Arial" y="65.0" x="29.5">routines</tspan></text></g><g transform="translate(420.125000,942.256500)" id="shape48"><path fill-rule="nonzero" fill="url(#lg1)" d="M11.3,.0L86.0,.0C92.6,.0,98.0,5.1,98.0,11.3L98.0,98.0C98.0,104.6,92.6,110.0,86.0,110.0L11.3,110.0C5.1,110.0,.0,104.6,.0,98.0L.0,11.3C.0,5.1,5.1,.0,11.3,.0z"/><path stroke="#26a1ff" fill="none" stroke-width="1" d="M11.3,.0L86.0,.0C92.6,.0,98.0,5.1,98.0,11.3L98.0,98.0C98.0,104.6,92.6,110.0,86.0,110.0L11.3,110.0C5.1,110.0,.0,104.6,.0,98.0L.0,11.3C.0,5.1,5.1,.0,11.3,.0zM.0,36.3L98.0,36.3L.0,36.3zM.0,73.4L98.0,73.4L.0,73.4z"/><text xml:space="preserve" style="fill:#ffffff;font-family:Arimo,PingFang SC,Mircrosoft YaHei,Arial;font-size:12.00pt"><tspan style="font-family:Arimo,PingFang SC,Mircrosoft YaHei,Arial" y="23.8" x="21.9">Regalia</tspan></text><text xml:space="preserve" style="fill:#ffffff;font-family:Arimo,PingFang SC,Mircrosoft YaHei,Arial;font-size:8.00pt"><tspan style="font-family:Arimo,PingFang SC,Mircrosoft YaHei,Arial" y="58.5" x="33.7">arrays</tspan></text></g><g transform="translate(103.125000,942.256500)" id="shape49"><path fill-rule="nonzero" fill="url(#lg1)" d="M11.3,.0L93.0,.0C99.6,.0,105.0,5.1,105.0,11.3L105.0,98.0C105.0,104.6,99.6,110.0,93.0,110.0L11.3,110.0C5.1,110.0,.0,104.6,.0,98.0L.0,11.3C.0,5.1,5.1,.0,11.3,.0z"/><path stroke="#26a1ff" fill="none" stroke-width="1" d="M11.3,.0L93.0,.0C99.6,.0,105.0,5.1,105.0,11.3L105.0,98.0C105.0,104.6,99.6,110.0,93.0,110.0L11.3,110.0C5.1,110.0,.0,104.6,.0,98.0L.0,11.3C.0,5.1,5.1,.0,11.3,.0zM.0,36.3L105.0,36.3L.0,36.3zM.0,73.4L105.0,73.4L.0,73.4z"/><text xml:space="preserve" style="fill:#ffffff;font-family:Arimo,PingFang SC,Mircrosoft YaHei,Arial;font-size:12.00pt"><tspan style="font-family:Arimo,PingFang SC,Mircrosoft YaHei,Arial" y="23.8" x="8.5">Clostrophilia</tspan></text><text xml:space="preserve" style="fill:#ffffff;font-family:Arimo,PingFang SC,Mircrosoft YaHei,Arial;font-size:8.00pt"><tspan style="font-family:Arimo,PingFang SC,Mircrosoft YaHei,Arial" y="58.5" x="37.5">CLOS</tspan></text></g><g transform="translate(643.625000,1082.514871)" id="shape50"><path fill-rule="nonzero" fill="url(#lg1)" d="M11.3,.0L102.0,.0C108.6,.0,114.0,5.1,114.0,11.3L114.0,98.0C114.0,104.6,108.6,110.0,102.0,110.0L11.3,110.0C5.1,110.0,.0,104.6,.0,98.0L.0,11.3C.0,5.1,5.1,.0,11.3,.0z"/><path stroke="#26a1ff" fill="none" stroke-width="1" d="M11.3,.0L102.0,.0C108.6,.0,114.0,5.1,114.0,11.3L114.0,98.0C114.0,104.6,108.6,110.0,102.0,110.0L11.3,110.0C5.1,110.0,.0,104.6,.0,98.0L.0,11.3C.0,5.1,5.1,.0,11.3,.0zM.0,36.3L114.0,36.3L.0,36.3zM.0,73.4L114.0,73.4L.0,73.4z"/><text xml:space="preserve" style="fill:#ffffff;font-family:Arimo,PingFang SC,Mircrosoft YaHei,Arial;font-size:12.00pt"><tspan style="font-family:Arimo,PingFang SC,Mircrosoft YaHei,Arial" y="23.8" x="16.1">Acclimation</tspan></text><text xml:space="preserve" style="fill:#ffffff;font-family:Arimo,PingFang SC,Mircrosoft YaHei,Arial;font-size:8.00pt"><tspan style="font-family:Arimo,PingFang SC,Mircrosoft YaHei,Arial" y="58.5" x="10.9">Internationalization</tspan></text></g><g transform="translate(521.822000,135.996258)" id="shape51"><path stroke="#26a1ff" fill="none" stroke-width="2" d="M.0,.0L.0,-29.0L-332.3,-29.0"/><path fill="#26a1ff" stroke="#26a1ff" stroke-width="1" stroke-linecap="round" d="M-332.3,-24.7L-340.8,-29.0L-332.3,-33.2L-332.3,-24.7"/></g><g transform="translate(296.370000,136.496258)" id="shape52"><path stroke="#26a1ff" fill="none" stroke-width="2" d="M.0,.0L.0,-29.5L-106.9,-29.5"/><path fill="#26a1ff" stroke="#26a1ff" stroke-width="1" stroke-linecap="round" d="M-106.9,-25.2L-115.4,-29.5L-106.9,-33.7L-106.9,-25.2"/></g><g transform="translate(297.274000,523.529742)" id="shape53"><path stroke="#26a1ff" fill="none" stroke-width="2" d="M.0,.0L.0,1.5L-0.9,27.5L-0.9,38.0"/><path fill="#26a1ff" stroke="#26a1ff" stroke-width="1" stroke-linecap="round" d="M3.3,38.0L-0.9,46.5L-5.1,38.0L3.3,38.0"/></g><g transform="translate(437.726000,328.271371)" id="shape54"><path stroke="#26a1ff" fill="none" stroke-width="2" d="M.0,.0L-69.4,.0"/><path fill="#26a1ff" stroke="#26a1ff" stroke-width="1" stroke-linecap="round" d="M-69.4,4.2L-77.9,.0L-69.4,-4.2L-69.4,4.2"/></g><g transform="translate(679.726000,625.013000)" id="shape55"><path stroke="#26a1ff" fill="none" stroke-width="2" d="M.0,.0L-29.7,.0L-29.7,-92.5"/><path fill="#26a1ff" stroke="#26a1ff" stroke-width="1" stroke-linecap="round" d="M-34.0,-92.5L-29.7,-101.0L-25.5,-92.5L-34.0,-92.5"/></g><g transform="translate(437.726000,468.529742)" id="shape56"><path stroke="#26a1ff" fill="none" stroke-width="2" d="M.0,.0L-27.2,-0.0"/><path fill="#26a1ff" stroke="#26a1ff" stroke-width="1" stroke-linecap="round" d="M-27.2,4.2L-35.7,-0.0L-27.2,-4.2L-27.2,4.2"/></g><g transform="translate(198.089000,328.271371)" id="shape57"><path stroke="#26a1ff" fill="none" stroke-width="2" d="M.0,.0L-66.1,.0L-66.1,-157.8"/><path fill="#26a1ff" stroke="#26a1ff" stroke-width="1" stroke-linecap="round" d="M-70.3,-157.8L-66.1,-166.3L-61.8,-157.8L-70.3,-157.8"/></g><g transform="translate(193.000000,468.529742)" id="shape58"><path stroke="#26a1ff" fill="none" stroke-width="2" d="M.0,.0L-61.0,.0L-61.0,-298.0"/><path fill="#26a1ff" stroke="#26a1ff" stroke-width="1" stroke-linecap="round" d="M-65.2,-298.0L-61.0,-306.5L-56.8,-298.0L-65.2,-298.0"/></g><g transform="translate(700.625000,1082.514871)" id="shape59"><path stroke="#26a1ff" fill="none" stroke-width="2" d="M.0,.0L.0,-16.5L-96.8,-16.5L-96.8,-232.0L-404.5,-232.0"/><path fill="#26a1ff" stroke="#26a1ff" stroke-width="1" stroke-linecap="round" d="M-404.5,-227.8L-413.0,-232.0L-404.5,-236.3L-404.5,-227.8"/></g><g transform="translate(686.875000,942.256500)" id="shape60"><path stroke="#26a1ff" fill="none" stroke-width="2" d="M.0,.0L.0,-91.8L-390.8,-91.8"/><path fill="#26a1ff" stroke="#26a1ff" stroke-width="1" stroke-linecap="round" d="M-390.8,-87.5L-399.3,-91.8L-390.8,-96.0L-390.8,-87.5"/></g><g transform="translate(853.375000,942.256500)" id="shape61"><path stroke="#26a1ff" fill="none" stroke-width="2" d="M.0,.0L.0,-91.8L-557.3,-91.8"/><path fill="#26a1ff" stroke="#26a1ff" stroke-width="1" stroke-linecap="round" d="M-557.3,-87.5L-565.8,-91.8L-557.3,-96.0L-557.3,-87.5"/></g><g transform="translate(557.375000,1082.514871)" id="shape62"><path stroke="#26a1ff" fill="none" stroke-width="2" d="M.0,.0L.0,-232.0L-261.3,-232.0"/><path fill="#26a1ff" stroke="#26a1ff" stroke-width="1" stroke-linecap="round" d="M-261.3,-227.8L-269.8,-232.0L-261.3,-236.3L-261.3,-227.8"/></g><g transform="translate(80.125000,1082.514871)" id="shape63"><path stroke="#26a1ff" fill="none" stroke-width="2" d="M.0,.0L.0,-232.0L74.0,-232.0"/><path fill="#26a1ff" stroke="#26a1ff" stroke-width="1" stroke-linecap="round" d="M74.0,-236.3L82.5,-232.0L74.0,-227.8L74.0,-236.3"/></g><g transform="translate(225.125000,1082.514871)" id="shape64"><path stroke="#26a1ff" fill="none" stroke-width="2" d="M.0,.0L.0,-177.5"/><path fill="#26a1ff" stroke="#26a1ff" stroke-width="1" stroke-linecap="round" d="M-4.2,-177.5L.0,-186.0L4.2,-177.5L-4.2,-177.5"/></g><g transform="translate(155.625000,942.256500)" id="shape65"><path stroke="#26a1ff" fill="none" stroke-width="2" d="M.0,.0L.0,-27.3L69.5,-27.3L69.5,-37.3"/><path fill="#26a1ff" stroke="#26a1ff" stroke-width="1" stroke-linecap="round" d="M65.3,-37.3L69.5,-45.8L73.7,-37.3L65.3,-37.3"/></g><g transform="translate(394.125000,1082.514871)" id="shape66"><path stroke="#26a1ff" fill="none" stroke-width="2" d="M.0,.0L.0,-167.5L-169.0,-167.5L-169.0,-177.5"/><path fill="#26a1ff" stroke="#26a1ff" stroke-width="1" stroke-linecap="round" d="M-173.2,-177.5L-169.0,-186.0L-164.8,-177.5L-173.2,-177.5"/></g><g transform="translate(469.125000,942.256500)" id="shape67"><path stroke="#26a1ff" fill="none" stroke-width="2" d="M.0,.0L.0,-27.3L-69.0,-27.3C-69.0,-30.6,-71.7,-33.3,-75.0,-33.3C-78.3,-33.3,-81.0,-30.6,-81.0,-27.3L-244.0,-27.3L-244.0,-37.3"/><path fill="#26a1ff" stroke="#26a1ff" stroke-width="1" stroke-linecap="round" d="M-248.2,-37.3L-244.0,-45.8L-239.8,-37.3L-248.2,-37.3"/></g><g transform="translate(306.625000,942.256500)" id="shape68"><path stroke="#26a1ff" fill="none" stroke-width="2" d="M.0,.0L-0.0,-18.8"/><path fill="#26a1ff" stroke="#26a1ff" stroke-width="1" stroke-linecap="round" d="M-4.2,-18.8L-0.0,-27.3L4.2,-18.8L-4.2,-18.8"/></g><g transform="translate(431.125000,745.248129)" id="shape69"><path fill-rule="nonzero" fill="url(#lg1)" d="M11.3,.0L52.0,.0C58.6,.0,64.0,5.1,64.0,11.3L64.0,49.5C64.0,56.1,58.6,61.5,52.0,61.5L11.3,61.5C5.1,61.5,.0,56.1,.0,49.5L.0,11.3C.0,5.1,5.1,.0,11.3,.0z"/><path stroke="#26a1ff" fill="none" stroke-width="1" d="M11.3,.0L52.0,.0C58.6,.0,64.0,5.1,64.0,11.3L64.0,49.5C64.0,56.1,58.6,61.5,52.0,61.5L11.3,61.5C5.1,61.5,.0,56.1,.0,49.5L.0,11.3C.0,5.1,5.1,.0,11.3,.0zM.0,20.3L64.0,20.3L.0,20.3zM.0,41.0L64.0,41.0L.0,41.0z"/><text xml:space="preserve" style="fill:#ffffff;font-family:Arimo,PingFang SC,Mircrosoft YaHei,Arial;font-size:12.00pt"><tspan style="font-family:Arimo,PingFang SC,Mircrosoft YaHei,Arial" y="15.8" x="8.4">Boot-1</tspan></text></g><g transform="translate(508.375000,745.248129)" id="shape70"><path fill-rule="nonzero" fill="url(#lg1)" d="M11.3,.0L52.0,.0C58.6,.0,64.0,5.1,64.0,11.3L64.0,49.5C64.0,56.1,58.6,61.5,52.0,61.5L11.3,61.5C5.1,61.5,.0,56.1,.0,49.5L.0,11.3C.0,5.1,5.1,.0,11.3,.0z"/><path stroke="#26a1ff" fill="none" stroke-width="1" d="M11.3,.0L52.0,.0C58.6,.0,64.0,5.1,64.0,11.3L64.0,49.5C64.0,56.1,58.6,61.5,52.0,61.5L11.3,61.5C5.1,61.5,.0,56.1,.0,49.5L.0,11.3C.0,5.1,5.1,.0,11.3,.0zM.0,20.3L64.0,20.3L.0,20.3zM.0,41.0L64.0,41.0L.0,41.0z"/><text xml:space="preserve" style="fill:#ffffff;font-family:Arimo,PingFang SC,Mircrosoft YaHei,Arial;font-size:12.00pt"><tspan style="font-family:Arimo,PingFang SC,Mircrosoft YaHei,Arial" y="15.8" x="8.4">Boot-2</tspan></text></g><g transform="translate(662.875000,745.248129)" id="shape71"><path fill-rule="nonzero" fill="url(#lg1)" d="M11.3,.0L52.0,.0C58.6,.0,64.0,5.1,64.0,11.3L64.0,49.5C64.0,56.1,58.6,61.5,52.0,61.5L11.3,61.5C5.1,61.5,.0,56.1,.0,49.5L.0,11.3C.0,5.1,5.1,.0,11.3,.0z"/><path stroke="#26a1ff" fill="none" stroke-width="1" d="M11.3,.0L52.0,.0C58.6,.0,64.0,5.1,64.0,11.3L64.0,49.5C64.0,56.1,58.6,61.5,52.0,61.5L11.3,61.5C5.1,61.5,.0,56.1,.0,49.5L.0,11.3C.0,5.1,5.1,.0,11.3,.0zM.0,20.3L64.0,20.3L.0,20.3zM.0,41.0L64.0,41.0L.0,41.0z"/><text xml:space="preserve" style="fill:#ffffff;font-family:Arimo,PingFang SC,Mircrosoft YaHei,Arial;font-size:12.00pt"><tspan style="font-family:Arimo,PingFang SC,Mircrosoft YaHei,Arial" y="15.8" x="8.4">Boot-4</tspan></text></g><g transform="translate(821.375000,745.248129)" id="shape72"><path fill-rule="nonzero" fill="url(#lg1)" d="M11.3,.0L52.0,.0C58.6,.0,64.0,5.1,64.0,11.3L64.0,49.5C64.0,56.1,58.6,61.5,52.0,61.5L11.3,61.5C5.1,61.5,.0,56.1,.0,49.5L.0,11.3C.0,5.1,5.1,.0,11.3,.0z"/><path stroke="#26a1ff" fill="none" stroke-width="1" d="M11.3,.0L52.0,.0C58.6,.0,64.0,5.1,64.0,11.3L64.0,49.5C64.0,56.1,58.6,61.5,52.0,61.5L11.3,61.5C5.1,61.5,.0,56.1,.0,49.5L.0,11.3C.0,5.1,5.1,.0,11.3,.0zM.0,20.3L64.0,20.3L.0,20.3zM.0,41.0L64.0,41.0L.0,41.0z"/><text xml:space="preserve" style="fill:#ffffff;font-family:Arimo,PingFang SC,Mircrosoft YaHei,Arial;font-size:12.00pt"><tspan style="font-family:Arimo,PingFang SC,Mircrosoft YaHei,Arial" y="15.8" x="8.4">Boot-6</tspan></text></g><g transform="translate(742.125000,745.248129)" id="shape73"><path fill-rule="nonzero" fill="url(#lg1)" d="M11.3,.0L52.0,.0C58.6,.0,64.0,5.1,64.0,11.3L64.0,49.5C64.0,56.1,58.6,61.5,52.0,61.5L11.3,61.5C5.1,61.5,.0,56.1,.0,49.5L.0,11.3C.0,5.1,5.1,.0,11.3,.0z"/><path stroke="#26a1ff" fill="none" stroke-width="1" d="M11.3,.0L52.0,.0C58.6,.0,64.0,5.1,64.0,11.3L64.0,49.5C64.0,56.1,58.6,61.5,52.0,61.5L11.3,61.5C5.1,61.5,.0,56.1,.0,49.5L.0,11.3C.0,5.1,5.1,.0,11.3,.0zM.0,20.3L64.0,20.3L.0,20.3zM.0,41.0L64.0,41.0L.0,41.0z"/><text xml:space="preserve" style="fill:#ffffff;font-family:Arimo,PingFang SC,Mircrosoft YaHei,Arial;font-size:12.00pt"><tspan style="font-family:Arimo,PingFang SC,Mircrosoft YaHei,Arial" y="15.8" x="8.4">Boot-5</tspan></text></g><g transform="translate(585.625000,745.248129)" id="shape74"><path fill-rule="nonzero" fill="url(#lg1)" d="M11.3,.0L52.0,.0C58.6,.0,64.0,5.1,64.0,11.3L64.0,49.5C64.0,56.1,58.6,61.5,52.0,61.5L11.3,61.5C5.1,61.5,.0,56.1,.0,49.5L.0,11.3C.0,5.1,5.1,.0,11.3,.0z"/><path stroke="#26a1ff" fill="none" stroke-width="1" d="M11.3,.0L52.0,.0C58.6,.0,64.0,5.1,64.0,11.3L64.0,49.5C64.0,56.1,58.6,61.5,52.0,61.5L11.3,61.5C5.1,61.5,.0,56.1,.0,49.5L.0,11.3C.0,5.1,5.1,.0,11.3,.0zM.0,20.3L64.0,20.3L.0,20.3zM.0,41.0L64.0,41.0L.0,41.0z"/><text xml:space="preserve" style="fill:#ffffff;font-family:Arimo,PingFang SC,Mircrosoft YaHei,Arial;font-size:12.00pt"><tspan style="font-family:Arimo,PingFang SC,Mircrosoft YaHei,Arial" y="15.8" x="8.4">Boot-3</tspan></text></g><g transform="translate(508.375000,775.998129)" id="shape75"><path stroke="#26a1ff" fill="none" stroke-width="2" d="M.0,.0L-4.8,.0"/><path fill="#26a1ff" stroke="#26a1ff" stroke-width="1" stroke-linecap="round" d="M-4.8,4.2L-13.3,.0L-4.8,-4.2L-4.8,4.2"/></g><path stroke="#26a1ff" fill="none" transform="translate(572.375000,775.998129)" id="shape76" stroke-width="2" d="M.0,.0L.0,.0"/><g transform="translate(310.125000,745.248129)" id="shape77"><path fill-rule="nonzero" fill="url(#lg1)" d="M11.3,.0L96.0,.0C102.6,.0,108.0,5.1,108.0,11.3L108.0,49.5C108.0,56.1,102.6,61.5,96.0,61.5L11.3,61.5C5.1,61.5,.0,56.1,.0,49.5L.0,11.3C.0,5.1,5.1,.0,11.3,.0z"/><path stroke="#26a1ff" fill="none" stroke-width="1" d="M11.3,.0L96.0,.0C102.6,.0,108.0,5.1,108.0,11.3L108.0,49.5C108.0,56.1,102.6,61.5,96.0,61.5L11.3,61.5C5.1,61.5,.0,56.1,.0,49.5L.0,11.3C.0,5.1,5.1,.0,11.3,.0zM.0,20.3L108.0,20.3L.0,20.3zM.0,41.0L108.0,41.0L.0,41.0z"/><text xml:space="preserve" style="fill:#ffffff;font-family:Arimo,PingFang SC,Mircrosoft YaHei,Arial;font-size:12.00pt"><tspan style="font-family:Arimo,PingFang SC,Mircrosoft YaHei,Arial" y="15.8" x="10.4">Boot-shared</tspan></text></g><g transform="translate(431.125000,775.998129)" id="shape78"><path stroke="#26a1ff" fill="none" stroke-width="2" d="M.0,.0L-4.5,-0.0"/><path fill="#26a1ff" stroke="#26a1ff" stroke-width="1" stroke-linecap="round" d="M-4.5,4.2L-13.0,-0.0L-4.5,-4.2L-4.5,4.2"/></g><g transform="translate(694.875000,745.248129)" id="shape79"><path stroke="#26a1ff" fill="none" stroke-width="2" d="M.0,.0L.0,-17.7L-330.8,-17.7L-330.8,-8.5"/><path fill="#26a1ff" stroke="#26a1ff" stroke-width="1" stroke-linecap="round" d="M-326.5,-8.5L-330.8,-0.0L-335.0,-8.5L-326.5,-8.5"/></g><g transform="translate(634.548000,135.996258)" id="shape80"><path stroke="#26a1ff" fill="none" stroke-width="2" d="M.0,.0L.0,-29.0L-445.1,-29.0"/><path fill="#26a1ff" stroke="#26a1ff" stroke-width="1" stroke-linecap="round" d="M-445.1,-24.7L-453.5,-29.0L-445.1,-33.2L-445.1,-24.7"/></g><g transform="translate(679.726000,625.013000)" id="shape81"><path stroke="#26a1ff" fill="none" stroke-width="2" d="M.0,.0L-325.9,.0"/><path fill="#26a1ff" stroke="#26a1ff" stroke-width="1" stroke-linecap="round" d="M-325.9,4.2L-334.4,.0L-325.9,-4.2L-325.9,4.2"/></g><g transform="translate(777.726000,625.013000)" id="shape82"><path stroke="#26a1ff" fill="none" stroke-width="2" d="M.0,.0L35.5,.0L35.5,-93.0"/><path fill="#26a1ff" stroke="#26a1ff" stroke-width="1" stroke-linecap="round" d="M31.3,-93.0L35.5,-101.5L39.8,-93.0L31.3,-93.0"/></g><g transform="translate(585.625000,775.998129)" id="shape83"><path stroke="#26a1ff" fill="none" stroke-width="2" d="M.0,.0L-4.8,-0.0"/><path fill="#26a1ff" stroke="#26a1ff" stroke-width="1" stroke-linecap="round" d="M-4.8,4.2L-13.3,-0.0L-4.8,-4.2L-4.8,4.2"/></g><g transform="translate(364.125000,806.748129)" id="shape84"><path stroke="#26a1ff" fill="none" stroke-width="2" d="M.0,.0L.0,43.7L-68.0,43.7"/><path fill="#26a1ff" stroke="#26a1ff" stroke-width="1" stroke-linecap="round" d="M-68.0,48.0L-76.5,43.7L-68.0,39.5L-68.0,48.0"/></g><g transform="translate(863.000000,136.496258)" id="shape85"><path stroke="#26a1ff" fill="none" stroke-width="2" d="M.0,.0L.0,-29.5L-673.5,-29.5"/><path fill="#26a1ff" stroke="#26a1ff" stroke-width="1" stroke-linecap="round" d="M-673.5,-25.2L-682.0,-29.5L-673.5,-33.7L-673.5,-25.2"/></g><g transform="translate(978.726000,136.496258)" id="shape86"><path stroke="#26a1ff" fill="none" stroke-width="2" d="M.0,.0L.0,-29.5L-789.2,-29.5"/><path fill="#26a1ff" stroke="#26a1ff" stroke-width="1" stroke-linecap="round" d="M-789.2,-25.2L-797.7,-29.5L-789.2,-33.7L-789.2,-25.2"/></g><g transform="translate(225.125000,804.481387)" id="shape87"><path stroke="#26a1ff" fill="none" stroke-width="2" d="M.0,.0L.0,-262.5L-93.1,-262.5L-93.1,-634.0"/><path fill="#26a1ff" stroke="#26a1ff" stroke-width="1" stroke-linecap="round" d="M-97.4,-634.0L-93.1,-642.5L-88.9,-634.0L-97.4,-634.0"/></g></g></svg>