<svg width="1036" height="831" xmlns:xlink="http://www.w3.org/1999/xlink" xmlns:ev="http://www.w3.org/2001/xml-events" viewBox="0 0 1036 831" xmlns="http://www.w3.org/2000/svg"><defs/><g id="page1" transform="translate(5.5,5.5)"><rect y="0" width="1026" height="821" x="0" fill="#ffffff"/><g id="shape1" transform="translate(285.000000,39.013000)"><path fill="#b8e366" d="M11.3,.0L86.0,.0C92.6,.0,98.0,5.1,98.0,11.3L98.0,124.0C98.0,130.6,92.6,136.0,86.0,136.0L11.3,136.0C5.1,136.0,.0,130.6,.0,124.0L.0,11.3C.0,5.1,5.1,.0,11.3,.0z" fill-rule="nonzero"/><path fill="none" d="M11.3,.0L86.0,.0C92.6,.0,98.0,5.1,98.0,11.3L98.0,124.0C98.0,130.6,92.6,136.0,86.0,136.0L11.3,136.0C5.1,136.0,.0,130.6,.0,124.0L.0,11.3C.0,5.1,5.1,.0,11.3,.0zM.0,44.9L98.0,44.9L.0,44.9zM.0,90.7L98.0,90.7L.0,90.7z" stroke="#6a8438" stroke-width="2"/><text xml:space="preserve" style="fill:#303030;font-family:Microsoft YaHei,PingFang SC,Mircrosoft YaHei,Arial;font-size:12.00pt"><tspan y="28.7" x="32.6" style="font-family:Microsoft YaHei,PingFang SC,Mircrosoft YaHei,Arial">SICL</tspan></text></g><g id="shape2" transform="translate(190.000000,474.513000)"><path fill="#b8e366" d="M11.3,.0L86.0,.0C92.6,.0,98.0,5.1,98.0,11.3L98.0,124.0C98.0,130.6,92.6,136.0,86.0,136.0L11.3,136.0C5.1,136.0,.0,130.6,.0,124.0L.0,11.3C.0,5.1,5.1,.0,11.3,.0z" fill-rule="nonzero"/><path fill="none" d="M11.3,.0L86.0,.0C92.6,.0,98.0,5.1,98.0,11.3L98.0,124.0C98.0,130.6,92.6,136.0,86.0,136.0L11.3,136.0C5.1,136.0,.0,130.6,.0,124.0L.0,11.3C.0,5.1,5.1,.0,11.3,.0zM.0,44.9L98.0,44.9L.0,44.9zM.0,90.7L98.0,90.7L.0,90.7z" stroke="#6a8438" stroke-width="2"/><text xml:space="preserve" style="fill:#303030;font-family:Microsoft YaHei,PingFang SC,Mircrosoft YaHei,Arial;font-size:12.00pt"><tspan y="28.7" x="15.6" style="font-family:Microsoft YaHei,PingFang SC,Mircrosoft YaHei,Arial">Clappers</tspan></text><text xml:space="preserve" style="fill:#303030;font-family:Microsoft YaHei,PingFang SC,Mircrosoft YaHei,Arial;font-size:8.00pt"><tspan y="65.0" x="9.0" style="font-family:Microsoft YaHei,PingFang SC,Mircrosoft YaHei,Arial">SSA optimizing </tspan><tspan y="80.0" x="26.0" style="font-family:Microsoft YaHei,PingFang SC,Mircrosoft YaHei,Arial">compiler</tspan></text></g><g id="shape3" transform="translate(190.000000,646.013000)"><path fill="#b8e366" d="M11.3,.0L86.0,.0C92.6,.0,98.0,5.1,98.0,11.3L98.0,124.0C98.0,130.6,92.6,136.0,86.0,136.0L11.3,136.0C5.1,136.0,.0,130.6,.0,124.0L.0,11.3C.0,5.1,5.1,.0,11.3,.0z" fill-rule="nonzero"/><path fill="none" d="M11.3,.0L86.0,.0C92.6,.0,98.0,5.1,98.0,11.3L98.0,124.0C98.0,130.6,92.6,136.0,86.0,136.0L11.3,136.0C5.1,136.0,.0,130.6,.0,124.0L.0,11.3C.0,5.1,5.1,.0,11.3,.0zM.0,44.9L98.0,44.9L.0,44.9zM.0,90.7L98.0,90.7L.0,90.7z" stroke="#6a8438" stroke-width="2"/><text xml:space="preserve" style="fill:#303030;font-family:Microsoft YaHei,PingFang SC,Mircrosoft YaHei,Arial;font-size:12.00pt"><tspan y="28.7" x="21.9" style="font-family:Microsoft YaHei,PingFang SC,Mircrosoft YaHei,Arial">Clector</tspan></text><text xml:space="preserve" style="fill:#303030;font-family:Microsoft YaHei,PingFang SC,Mircrosoft YaHei,Arial;font-size:8.00pt"><tspan y="57.5" x="24.2" style="font-family:Microsoft YaHei,PingFang SC,Mircrosoft YaHei,Arial">SSE, AVX, </tspan><tspan y="72.5" x="13.0" style="font-family:Microsoft YaHei,PingFang SC,Mircrosoft YaHei,Arial">Neon.. Vector </tspan><tspan y="87.5" x="31.8" style="font-family:Microsoft YaHei,PingFang SC,Mircrosoft YaHei,Arial">Fusion</tspan></text></g><g id="shape4" transform="translate(39.000000,646.013000)"><path fill="#b8e366" d="M11.3,.0L86.0,.0C92.6,.0,98.0,5.1,98.0,11.3L98.0,124.0C98.0,130.6,92.6,136.0,86.0,136.0L11.3,136.0C5.1,136.0,.0,130.6,.0,124.0L.0,11.3C.0,5.1,5.1,.0,11.3,.0z" fill-rule="nonzero"/><path fill="none" d="M11.3,.0L86.0,.0C92.6,.0,98.0,5.1,98.0,11.3L98.0,124.0C98.0,130.6,92.6,136.0,86.0,136.0L11.3,136.0C5.1,136.0,.0,130.6,.0,124.0L.0,11.3C.0,5.1,5.1,.0,11.3,.0zM.0,44.9L98.0,44.9L.0,44.9zM.0,90.7L98.0,90.7L.0,90.7z" stroke="#6a8438" stroke-width="2"/><text xml:space="preserve" style="fill:#303030;font-family:Microsoft YaHei,PingFang SC,Mircrosoft YaHei,Arial;font-size:12.00pt"><tspan y="28.7" x="24.9" style="font-family:Microsoft YaHei,PingFang SC,Mircrosoft YaHei,Arial">Massa</tspan></text><text xml:space="preserve" style="fill:#303030;font-family:Microsoft YaHei,PingFang SC,Mircrosoft YaHei,Arial;font-size:8.00pt"><tspan y="65.0" x="13.7" style="font-family:Microsoft YaHei,PingFang SC,Mircrosoft YaHei,Arial">SSA structure </tspan><tspan y="80.0" x="14.2" style="font-family:Microsoft YaHei,PingFang SC,Mircrosoft YaHei,Arial">and methods</tspan></text></g><g id="shape5" transform="translate(585.000000,136.013000)"><path fill="#b8e366" d="M11.3,.0L86.0,.0C92.6,.0,98.0,5.1,98.0,11.3L98.0,124.0C98.0,130.6,92.6,136.0,86.0,136.0L11.3,136.0C5.1,136.0,.0,130.6,.0,124.0L.0,11.3C.0,5.1,5.1,.0,11.3,.0z" fill-rule="nonzero"/><path fill="none" d="M11.3,.0L86.0,.0C92.6,.0,98.0,5.1,98.0,11.3L98.0,124.0C98.0,130.6,92.6,136.0,86.0,136.0L11.3,136.0C5.1,136.0,.0,130.6,.0,124.0L.0,11.3C.0,5.1,5.1,.0,11.3,.0zM.0,44.9L98.0,44.9L.0,44.9zM.0,90.7L98.0,90.7L.0,90.7z" stroke="#6a8438" stroke-width="2"/><text xml:space="preserve" style="fill:#303030;font-family:Microsoft YaHei,PingFang SC,Mircrosoft YaHei,Arial;font-size:12.00pt"><tspan y="28.7" x="14.3" style="font-family:Microsoft YaHei,PingFang SC,Mircrosoft YaHei,Arial">Clostrum</tspan></text><text xml:space="preserve" style="fill:#303030;font-family:Microsoft YaHei,PingFang SC,Mircrosoft YaHei,Arial;font-size:8.00pt"><tspan y="65.0" x="32.0" style="font-family:Microsoft YaHei,PingFang SC,Mircrosoft YaHei,Arial">Global </tspan><tspan y="80.0" x="15.5" style="font-family:Microsoft YaHei,PingFang SC,Mircrosoft YaHei,Arial">environment</tspan></text></g><g id="shape6" transform="translate(46.274000,295.013000)"><path fill="#b8e366" d="M11.3,.0L86.0,.0C92.6,.0,98.0,5.1,98.0,11.3L98.0,124.0C98.0,130.6,92.6,136.0,86.0,136.0L11.3,136.0C5.1,136.0,.0,130.6,.0,124.0L.0,11.3C.0,5.1,5.1,.0,11.3,.0z" fill-rule="nonzero"/><path fill="none" d="M11.3,.0L86.0,.0C92.6,.0,98.0,5.1,98.0,11.3L98.0,124.0C98.0,130.6,92.6,136.0,86.0,136.0L11.3,136.0C5.1,136.0,.0,130.6,.0,124.0L.0,11.3C.0,5.1,5.1,.0,11.3,.0zM.0,44.9L98.0,44.9L.0,44.9zM.0,90.7L98.0,90.7L.0,90.7z" stroke="#6a8438" stroke-width="2"/><text xml:space="preserve" style="fill:#303030;font-family:Microsoft YaHei,PingFang SC,Mircrosoft YaHei,Arial;font-size:12.00pt"><tspan y="28.7" x="23.2" style="font-family:Microsoft YaHei,PingFang SC,Mircrosoft YaHei,Arial">Cleavir</tspan></text><text xml:space="preserve" style="fill:#303030;font-family:Microsoft YaHei,PingFang SC,Mircrosoft YaHei,Arial;font-size:8.00pt"><tspan y="65.0" x="25.0" style="font-family:Microsoft YaHei,PingFang SC,Mircrosoft YaHei,Arial">Compiler </tspan><tspan y="80.0" x="20.8" style="font-family:Microsoft YaHei,PingFang SC,Mircrosoft YaHei,Arial">framework</tspan></text></g><g id="shape7" transform="translate(735.000000,136.013000)"><path fill="#b8e366" d="M11.3,.0L86.0,.0C92.6,.0,98.0,5.1,98.0,11.3L98.0,124.0C98.0,130.6,92.6,136.0,86.0,136.0L11.3,136.0C5.1,136.0,.0,130.6,.0,124.0L.0,11.3C.0,5.1,5.1,.0,11.3,.0z" fill-rule="nonzero"/><path fill="none" d="M11.3,.0L86.0,.0C92.6,.0,98.0,5.1,98.0,11.3L98.0,124.0C98.0,130.6,92.6,136.0,86.0,136.0L11.3,136.0C5.1,136.0,.0,130.6,.0,124.0L.0,11.3C.0,5.1,5.1,.0,11.3,.0zM.0,44.9L98.0,44.9L.0,44.9zM.0,90.7L98.0,90.7L.0,90.7z" stroke="#6a8438" stroke-width="2"/><text xml:space="preserve" style="fill:#303030;font-family:Microsoft YaHei,PingFang SC,Mircrosoft YaHei,Arial;font-size:12.00pt"><tspan y="28.7" x="18.8" style="font-family:Microsoft YaHei,PingFang SC,Mircrosoft YaHei,Arial">Eclector</tspan></text><text xml:space="preserve" style="fill:#303030;font-family:Microsoft YaHei,PingFang SC,Mircrosoft YaHei,Arial;font-size:8.00pt"><tspan y="72.5" x="18.6" style="font-family:Microsoft YaHei,PingFang SC,Mircrosoft YaHei,Arial">Lisp Reader</tspan></text></g><g id="shape8" transform="translate(308.637000,295.013000)"><path fill="#b8e366" d="M11.3,.0L92.0,.0C98.6,.0,104.0,5.1,104.0,11.3L104.0,124.0C104.0,130.6,98.6,136.0,92.0,136.0L11.3,136.0C5.1,136.0,.0,130.6,.0,124.0L.0,11.3C.0,5.1,5.1,.0,11.3,.0z" fill-rule="nonzero"/><path fill="none" d="M11.3,.0L92.0,.0C98.6,.0,104.0,5.1,104.0,11.3L104.0,124.0C104.0,130.6,98.6,136.0,92.0,136.0L11.3,136.0C5.1,136.0,.0,130.6,.0,124.0L.0,11.3C.0,5.1,5.1,.0,11.3,.0zM.0,44.9L104.0,44.9L.0,44.9zM.0,90.7L104.0,90.7L.0,90.7z" stroke="#6a8438" stroke-width="2"/><text xml:space="preserve" style="fill:#303030;font-family:Microsoft YaHei,PingFang SC,Mircrosoft YaHei,Arial;font-size:12.00pt"><tspan y="28.7" x="8.2" style="font-family:Microsoft YaHei,PingFang SC,Mircrosoft YaHei,Arial">Clordecone</tspan></text><text xml:space="preserve" style="fill:#303030;font-family:Microsoft YaHei,PingFang SC,Mircrosoft YaHei,Arial;font-size:8.00pt"><tspan y="72.5" x="13.6" style="font-family:Microsoft YaHei,PingFang SC,Mircrosoft YaHei,Arial">Lisp Debugger</tspan></text></g><g id="shape9" transform="translate(435.000000,136.013000)"><path fill="#b8e366" d="M11.3,.0L86.0,.0C92.6,.0,98.0,5.1,98.0,11.3L98.0,124.0C98.0,130.6,92.6,136.0,86.0,136.0L11.3,136.0C5.1,136.0,.0,130.6,.0,124.0L.0,11.3C.0,5.1,5.1,.0,11.3,.0z" fill-rule="nonzero"/><path fill="none" d="M11.3,.0L86.0,.0C92.6,.0,98.0,5.1,98.0,11.3L98.0,124.0C98.0,130.6,92.6,136.0,86.0,136.0L11.3,136.0C5.1,136.0,.0,130.6,.0,124.0L.0,11.3C.0,5.1,5.1,.0,11.3,.0zM.0,44.9L98.0,44.9L.0,44.9zM.0,90.7L98.0,90.7L.0,90.7z" stroke="#6a8438" stroke-width="2"/><text xml:space="preserve" style="fill:#303030;font-family:Microsoft YaHei,PingFang SC,Mircrosoft YaHei,Arial;font-size:12.00pt"><tspan y="28.7" x="28.5" style="font-family:Microsoft YaHei,PingFang SC,Mircrosoft YaHei,Arial">Clash</tspan></text><text xml:space="preserve" style="fill:#303030;font-family:Microsoft YaHei,PingFang SC,Mircrosoft YaHei,Arial;font-size:8.00pt"><tspan y="65.0" x="26.6" style="font-family:Microsoft YaHei,PingFang SC,Mircrosoft YaHei,Arial">Garbage </tspan><tspan y="80.0" x="25.4" style="font-family:Microsoft YaHei,PingFang SC,Mircrosoft YaHei,Arial">Collector</tspan></text></g><g id="shape10" transform="translate(469.000000,295.013000)"><path fill="#b8e366" d="M11.3,.0L86.0,.0C92.6,.0,98.0,5.1,98.0,11.3L98.0,124.0C98.0,130.6,92.6,136.0,86.0,136.0L11.3,136.0C5.1,136.0,.0,130.6,.0,124.0L.0,11.3C.0,5.1,5.1,.0,11.3,.0z" fill-rule="nonzero"/><path fill="none" d="M11.3,.0L86.0,.0C92.6,.0,98.0,5.1,98.0,11.3L98.0,124.0C98.0,130.6,92.6,136.0,86.0,136.0L11.3,136.0C5.1,136.0,.0,130.6,.0,124.0L.0,11.3C.0,5.1,5.1,.0,11.3,.0zM.0,44.9L98.0,44.9L.0,44.9zM.0,90.7L98.0,90.7L.0,90.7z" stroke="#6a8438" stroke-width="2"/><text xml:space="preserve" style="fill:#303030;font-family:Microsoft YaHei,PingFang SC,Mircrosoft YaHei,Arial;font-size:12.00pt"><tspan y="28.7" x="21.6" style="font-family:Microsoft YaHei,PingFang SC,Mircrosoft YaHei,Arial">Tazivor</tspan></text><text xml:space="preserve" style="fill:#303030;font-family:Microsoft YaHei,PingFang SC,Mircrosoft YaHei,Arial;font-size:8.00pt"><tspan y="72.5" x="24.5" style="font-family:Microsoft YaHei,PingFang SC,Mircrosoft YaHei,Arial">Inspector</tspan></text></g><g id="shape11" transform="translate(341.000000,646.013000)"><path fill="#b8e366" d="M11.3,.0L86.0,.0C92.6,.0,98.0,5.1,98.0,11.3L98.0,124.0C98.0,130.6,92.6,136.0,86.0,136.0L11.3,136.0C5.1,136.0,.0,130.6,.0,124.0L.0,11.3C.0,5.1,5.1,.0,11.3,.0z" fill-rule="nonzero"/><path fill="none" d="M11.3,.0L86.0,.0C92.6,.0,98.0,5.1,98.0,11.3L98.0,124.0C98.0,130.6,92.6,136.0,86.0,136.0L11.3,136.0C5.1,136.0,.0,130.6,.0,124.0L.0,11.3C.0,5.1,5.1,.0,11.3,.0zM.0,44.9L98.0,44.9L.0,44.9zM.0,90.7L98.0,90.7L.0,90.7z" stroke="#6a8438" stroke-width="2"/><text xml:space="preserve" style="fill:#303030;font-family:Microsoft YaHei,PingFang SC,Mircrosoft YaHei,Arial;font-size:12.00pt"><tspan y="28.7" x="22.3" style="font-family:Microsoft YaHei,PingFang SC,Mircrosoft YaHei,Arial">Cluster</tspan></text><text xml:space="preserve" style="fill:#303030;font-family:Microsoft YaHei,PingFang SC,Mircrosoft YaHei,Arial;font-size:8.00pt"><tspan y="72.5" x="21.6" style="font-family:Microsoft YaHei,PingFang SC,Mircrosoft YaHei,Arial">Assembler</tspan></text></g><path fill="none" id="shape12" d="M.0,.0L.0,.0" transform="translate(518.000000,431.013000)" stroke="#6a8438" stroke-width="1"/><g id="shape13" transform="translate(869.000000,136.013000)"><path fill="#b8e366" d="M11.3,.0L86.0,.0C92.6,.0,98.0,5.1,98.0,11.3L98.0,124.0C98.0,130.6,92.6,136.0,86.0,136.0L11.3,136.0C5.1,136.0,.0,130.6,.0,124.0L.0,11.3C.0,5.1,5.1,.0,11.3,.0z" fill-rule="nonzero"/><path fill="none" d="M11.3,.0L86.0,.0C92.6,.0,98.0,5.1,98.0,11.3L98.0,124.0C98.0,130.6,92.6,136.0,86.0,136.0L11.3,136.0C5.1,136.0,.0,130.6,.0,124.0L.0,11.3C.0,5.1,5.1,.0,11.3,.0zM.0,44.9L98.0,44.9L.0,44.9zM.0,90.7L98.0,90.7L.0,90.7z" stroke="#6a8438" stroke-width="2"/><text xml:space="preserve" style="fill:#303030;font-family:Microsoft YaHei,PingFang SC,Mircrosoft YaHei,Arial;font-size:12.00pt"><tspan y="28.7" x="29.5" style="font-family:Microsoft YaHei,PingFang SC,Mircrosoft YaHei,Arial">Clear</tspan></text><text xml:space="preserve" style="fill:#303030;font-family:Microsoft YaHei,PingFang SC,Mircrosoft YaHei,Arial;font-size:8.00pt"><tspan y="72.5" x="16.5" style="font-family:Microsoft YaHei,PingFang SC,Mircrosoft YaHei,Arial">Lisp Listener</tspan></text></g><g id="shape14" transform="translate(918.000000,136.013000)"><path fill="none" d="M.0,.0L.0,-29.0L-527.0,-29.0" stroke="#6a8438" stroke-width="1"/><path fill="#6a8438" stroke-linecap="round" d="M-527.0,-25.0L-535.0,-29.0L-527.0,-33.0L-527.0,-25.0" stroke="#6a8438" stroke-width="1"/></g><g id="shape15" transform="translate(784.000000,136.013000)"><path fill="none" d="M.0,.0L.0,-29.0L-393.0,-29.0" stroke="#6a8438" stroke-width="1"/><path fill="#6a8438" stroke-linecap="round" d="M-393.0,-25.0L-401.0,-29.0L-393.0,-33.0L-393.0,-25.0" stroke="#6a8438" stroke-width="1"/></g><g id="shape16" transform="translate(634.000000,136.013000)"><path fill="none" d="M.0,.0L.0,-29.0L-243.0,-29.0" stroke="#6a8438" stroke-width="1"/><path fill="#6a8438" stroke-linecap="round" d="M-243.0,-25.0L-251.0,-29.0L-243.0,-33.0L-243.0,-25.0" stroke="#6a8438" stroke-width="1"/></g><g id="shape17" transform="translate(484.000000,136.013000)"><path fill="none" d="M.0,.0L.0,-29.0L-93.0,-29.0" stroke="#6a8438" stroke-width="1"/><path fill="#6a8438" stroke-linecap="round" d="M-93.0,-25.0L-101.0,-29.0L-93.0,-33.0L-93.0,-25.0" stroke="#6a8438" stroke-width="1"/></g><g id="shape18" transform="translate(518.000000,295.013000)"><path fill="none" d="M.0,.0L.0,-19.0L-184.0,-19.0L-184.0,-112.0" stroke="#6a8438" stroke-width="1"/><path fill="#6a8438" stroke-linecap="round" d="M-188.0,-112.0L-184.0,-120.0L-180.0,-112.0L-188.0,-112.0" stroke="#6a8438" stroke-width="1"/></g><g id="shape19" transform="translate(95.274000,295.013000)"><path fill="none" d="M.0,.0L.0,-19.0L238.7,-19.0L238.7,-112.0" stroke="#6a8438" stroke-width="1"/><path fill="#6a8438" stroke-linecap="round" d="M234.7,-112.0L238.7,-120.0L242.7,-112.0L234.7,-112.0" stroke="#6a8438" stroke-width="1"/></g><g id="shape20" transform="translate(239.000000,474.513000)"><path fill="none" d="M.0,.0L.0,-17.5L-143.7,-17.5L-143.7,-35.5" stroke="#6a8438" stroke-width="1"/><path fill="#6a8438" stroke-linecap="round" d="M-147.7,-35.5L-143.7,-43.5L-139.7,-35.5L-147.7,-35.5" stroke="#6a8438" stroke-width="1"/></g><g id="shape21" transform="translate(88.000000,646.013000)"><path fill="none" d="M.0,.0L.0,-15.0L151.0,-15.0L151.0,-27.5" stroke="#6a8438" stroke-width="1"/><path fill="#6a8438" stroke-linecap="round" d="M147.0,-27.5L151.0,-35.5L155.0,-27.5L147.0,-27.5" stroke="#6a8438" stroke-width="1"/></g><g id="shape22" transform="translate(390.000000,646.013000)"><path fill="none" d="M.0,.0L.0,-15.0L-151.0,-15.0L-151.0,-27.5" stroke="#6a8438" stroke-width="1"/><path fill="#6a8438" stroke-linecap="round" d="M-155.0,-27.5L-151.0,-35.5L-147.0,-27.5L-155.0,-27.5" stroke="#6a8438" stroke-width="1"/></g><g id="shape23" transform="translate(239.000000,646.013000)"><path fill="none" d="M.0,.0L.0,-27.5" stroke="#6a8438" stroke-width="1"/><path fill="#6a8438" stroke-linecap="round" d="M-4.0,-27.5L.0,-35.5L4.0,-27.5L-4.0,-27.5" stroke="#6a8438" stroke-width="1"/></g><g id="shape24" transform="translate(177.455500,295.013000)"><path fill="#b8e366" d="M11.3,.0L86.0,.0C92.6,.0,98.0,5.1,98.0,11.3L98.0,124.0C98.0,130.6,92.6,136.0,86.0,136.0L11.3,136.0C5.1,136.0,.0,130.6,.0,124.0L.0,11.3C.0,5.1,5.1,.0,11.3,.0z" fill-rule="nonzero"/><path fill="none" d="M11.3,.0L86.0,.0C92.6,.0,98.0,5.1,98.0,11.3L98.0,124.0C98.0,130.6,92.6,136.0,86.0,136.0L11.3,136.0C5.1,136.0,.0,130.6,.0,124.0L.0,11.3C.0,5.1,5.1,.0,11.3,.0zM.0,44.9L98.0,44.9L.0,44.9zM.0,90.7L98.0,90.7L.0,90.7z" stroke="#6a8438" stroke-width="2"/><text xml:space="preserve" style="fill:#303030;font-family:Arimo,PingFang SC,Mircrosoft YaHei,Arial;font-size:12.00pt"><tspan y="28.2" x="21.5" style="font-family:Arimo,PingFang SC,Mircrosoft YaHei,Arial">Maclina</tspan></text><text xml:space="preserve" style="fill:#303030;font-family:Arimo,PingFang SC,Mircrosoft YaHei,Arial;font-size:8.00pt"><tspan y="65.0" x="24.9" style="font-family:Arimo,PingFang SC,Mircrosoft YaHei,Arial">byte-code </tspan><tspan y="78.0" x="24.0" style="font-family:Arimo,PingFang SC,Mircrosoft YaHei,Arial">interpreter</tspan></text></g><g id="shape25" transform="translate(360.637000,295.013000)"><path fill="none" d="M.0,.0L.0,-19.0L-26.6,-19.0L-26.6,-112.0" stroke="#6a8438" stroke-width="1"/><path fill="#6a8438" stroke-linecap="round" d="M-30.6,-112.0L-26.6,-120.0L-22.6,-112.0L-30.6,-112.0" stroke="#6a8438" stroke-width="1"/></g><g id="shape26" transform="translate(226.455500,295.013000)"><path fill="none" d="M.0,.0L.0,-19.0L107.5,-19.0L107.5,-112.0" stroke="#6a8438" stroke-width="1"/><path fill="#6a8438" stroke-linecap="round" d="M103.5,-112.0L107.5,-120.0L111.5,-112.0L103.5,-112.0" stroke="#6a8438" stroke-width="1"/></g></g></svg>