<svg width="1132" height="804" xmlns:ev="http://www.w3.org/2001/xml-events" xmlns="http://www.w3.org/2000/svg" viewBox="0 0 1132 804" xmlns:xlink="http://www.w3.org/1999/xlink"><defs/><g id="page1" transform="translate(5.5,5.5)"><rect width="1123" height="794" fill="none" x="0" y="0"/><g id="shape1" transform="translate(408.000000,438.000000)"><path fill="#ffffff" d="M106.0,.0L.0,.0L.0,30.0L106.0,30.0M26.5,.0L26.5,30.0L.0,30.0L.0,.0L106.0,.0L26.5,.0z" stroke-width="1" fill-rule="nonzero" stroke="#000000"/><text xml:space="preserve" style="fill:#191919;font-family:Liberation Sans;font-size:8.00pt"><tspan x="9.3" y="12.0">U</tspan><tspan x="9.6" y="25.0">A</tspan></text></g><g id="shape2" transform="translate(412.000000,76.000000)"><path fill="#ffffff" d="M98.0,.0L.0,.0L.0,30.0L98.0,30.0M24.5,.0L24.5,30.0L.0,30.0L.0,.0L98.0,.0L24.5,.0z" stroke-width="1" fill-rule="nonzero" stroke="#000000"/><text xml:space="preserve" style="fill:#191919;font-family:Liberation Sans;font-size:8.00pt"><tspan x="10.7" y="12.0">I</tspan><tspan x="8.3" y="25.0">R</tspan></text></g><g id="shape3" transform="translate(412.000000,688.000000)"><path fill="#ffffff" d="M98.0,.0L.0,.0L.0,30.0L98.0,30.0M24.5,.0L24.5,30.0L.0,30.0L.0,.0L98.0,.0L24.5,.0z" stroke-width="1" fill-rule="nonzero" stroke="#000000"/><text xml:space="preserve" style="fill:#191919;font-family:Liberation Sans;font-size:8.00pt"><tspan x="7.7" y="12.0">M</tspan><tspan x="8.3" y="25.0">C</tspan></text></g><g id="shape4" transform="translate(870.000000,378.000000)"><path fill="#ffffff" d="M82.8,90.0C86.8,90.0,90.0,86.8,90.0,82.8L90.0,7.2C90.0,3.2,86.8,.0,82.8,.0L7.2,.0C3.2,.0,.0,3.2,.0,7.2L.0,82.8C.0,86.8,3.2,90.0,7.2,90.0L82.8,90.0z" fill-rule="nonzero"/><path d="M82.8,90.0C86.8,90.0,90.0,86.8,90.0,82.8L90.0,7.2C90.0,3.2,86.8,.0,82.8,.0L7.2,.0C3.2,.0,.0,3.2,.0,7.2L.0,82.8C.0,86.8,3.2,90.0,7.2,90.0L82.8,90.0zM.0,22.5L90.0,22.5" fill="none" stroke-width="1" stroke="#000000"/><text xml:space="preserve" style="fill:#191919;font-family:Liberation Sans;font-size:8.00pt"><tspan x="24.5" y="14.3">Runtime</tspan></text></g><g id="shape5" transform="translate(416.000000,204.500000)"><path fill="#ffffff" d="M82.8,90.0C86.8,90.0,90.0,86.8,90.0,82.8L90.0,7.2C90.0,3.2,86.8,.0,82.8,.0L7.2,.0C3.2,.0,.0,3.2,.0,7.2L.0,82.8C.0,86.8,3.2,90.0,7.2,90.0L82.8,90.0z" stroke-width="1" fill-rule="nonzero" stroke="#000000"/><text xml:space="preserve" style="fill:#191919;font-family:Liberation Sans;font-size:12.00pt"><tspan x="10.8" y="50.5">Optimizer</tspan></text></g><g id="shape6" transform="translate(412.000000,521.500000)"><path fill="#ffffff" d="M90.2,90.0C94.5,90.0,98.0,86.5,98.0,82.2L98.0,7.8C98.0,3.5,94.5,.0,90.2,.0L7.8,.0C3.5,.0,.0,3.5,.0,7.8L.0,82.2C.0,86.5,3.5,90.0,7.8,90.0L90.2,90.0z" stroke-width="1" fill-rule="nonzero" stroke="#000000"/><text xml:space="preserve" style="fill:#191919;font-family:Liberation Sans;font-size:12.00pt"><tspan x="11.2" y="50.5">Assembler</tspan></text></g><g id="shape7" transform="translate(461.000000,106.000000)"><path d="M.0,.0L.0,98.0" fill="none" stroke-width="1" stroke="#191919"/><path stroke-linecap="round" fill="#191919" d="M-2.0,95.0L4.0,98.0L-2.0,101.0L-2.0,95.0" stroke-width="1" stroke="#191919"/></g><g id="shape8" transform="matrix(-0.870239,0.492629,-0.492629,-0.870239,915.000000,476.000000)"><path d="M7.4,-3.0C124.8,-48.1,348.0,-47.1,460.8,.0" fill="none" stroke-width="1" stroke="#000000"/><path stroke-linecap="round" fill="#000000" d="M8.9,.7L.0,.0L5.9,-6.7L8.9,.7" stroke-width="1" stroke="#000000"/></g><g id="shape9" transform="translate(779.000000,568.500000)"><text xml:space="preserve" style="fill:#191919;font-family:Liberation Sans;font-size:8.00pt"><tspan x="23.1" y="17.0">instruction blob</tspan></text></g><g id="shape10" transform="translate(816.500000,272.000000)"><path fill="#ffffff" d="M197.0,.0L.0,.0L.0,30.0L197.0,30.0M49.3,.0L49.3,30.0L.0,30.0L.0,.0L197.0,.0L49.3,.0z" stroke-width="1" fill-rule="nonzero" stroke="#000000"/><text xml:space="preserve" style="fill:#191919;font-family:Liberation Sans;font-size:8.00pt"><tspan x="11.5" y="18.5">Heap</tspan></text></g><g id="shape11" transform="translate(915.000000,378.000000)"><path d="M.0,.0L.0,-70.0" fill="none" stroke-width="1" stroke="#191919"/><path stroke-linecap="round" fill="#191919" d="M-3.0,-70.0L.0,-76.0L3.0,-70.0L-3.0,-70.0" stroke-width="1" stroke="#191919"/></g><g id="shape12" transform="translate(216.000000,469.000000)"><path fill="#ffffff" d="M128.0,74.0L128.0,.0L.0,.0L.0,74.0L128.0,74.0z" stroke-width="1" fill-rule="nonzero" stroke="#000000"/><text xml:space="preserve" style="fill:#191919;font-family:Liberation Sans;font-size:12.00pt"><tspan x="34.2" y="33.0">Register </tspan><tspan x="31.6" y="52.0">optimizer</tspan></text></g><g id="shape13" transform="translate(174.000000,54.000000)"><path fill="#ffffff" d="M128.0,74.0L128.0,.0L.0,.0L.0,74.0L128.0,74.0z" stroke-width="1" fill-rule="nonzero" stroke="#000000"/><text xml:space="preserve" style="fill:#191919;font-family:Liberation Sans;font-size:12.00pt"><tspan x="31.1" y="33.0">peephole </tspan><tspan x="31.6" y="52.0">optimizer</tspan></text></g><g id="shape14" transform="translate(174.000000,152.000000)"><path fill="#ffffff" d="M128.0,74.0L128.0,.0L.0,.0L.0,74.0L128.0,74.0z" stroke-width="1" fill-rule="nonzero" stroke="#000000"/><text xml:space="preserve" style="fill:#191919;font-family:Liberation Sans;font-size:12.00pt"><tspan x="23.6" y="33.0">type check </tspan><tspan x="31.6" y="52.0">optimizer</tspan></text></g><g id="shape15" transform="translate(174.000000,249.000000)"><path fill="#ffffff" d="M128.0,74.0L128.0,.0L.0,.0L.0,74.0L128.0,74.0z" stroke-width="1" fill-rule="nonzero" stroke="#000000"/><text xml:space="preserve" style="fill:#191919;font-family:Liberation Sans;font-size:12.00pt"><tspan x="16.5" y="42.5">invariant lifter</tspan></text></g><g id="shape16" transform="translate(174.000000,346.000000)"><path fill="#ffffff" d="M128.0,74.0L128.0,.0L.0,.0L.0,74.0L128.0,74.0z" stroke-width="1" fill-rule="nonzero" stroke="#000000"/><text xml:space="preserve" style="fill:#191919;font-family:Liberation Sans;font-size:12.00pt"><tspan x="20.0" y="42.5">loop unroller</tspan></text></g><g id="shape17" transform="translate(669.000000,304.000000)"><path fill="#ffffff" d="M128.0,74.0L128.0,.0L.0,.0L.0,74.0L128.0,74.0z" stroke-width="1" fill-rule="nonzero" stroke="#000000"/><text xml:space="preserve" style="fill:#191919;font-family:Liberation Sans;font-size:12.00pt"><tspan x="32.9" y="33.0">Garbage </tspan><tspan x="32.5" y="52.0">Collector</tspan></text></g><g id="shape18" transform="translate(870.000000,423.000000)"><path d="M.0,.0L-137.0,.0L-137.0,-39.0" fill="none" stroke-width="1" stroke="#191919"/><path stroke-linecap="round" fill="#191919" d="M-140.0,-39.0L-137.0,-45.0L-134.0,-39.0L-140.0,-39.0" stroke-width="1" stroke="#191919"/></g><g id="shape19" transform="translate(733.000000,304.000000)"><path d="M.0,.0L.0,-17.0L77.5,-17.0" fill="none" stroke-width="1" stroke="#191919"/><path stroke-linecap="round" fill="#191919" d="M77.5,-20.0L83.5,-17.0L77.5,-14.0L77.5,-20.0" stroke-width="1" stroke="#191919"/></g><g id="shape20" transform="translate(302.000000,91.000000)"><path d="M.0,.0L87.0,.0L87.0,158.0L109.0,158.0" fill="none" stroke-width="1" stroke="#191919"/><path stroke-linecap="round" fill="#191919" d="M109.0,155.0L115.0,158.0L109.0,161.0L109.0,155.0" stroke-width="1" stroke="#191919"/></g><g id="shape21" transform="translate(302.000000,286.000000)"><path d="M.0,.0L87.0,.0L87.0,-37.0L109.0,-37.0" fill="none" stroke-width="1" stroke="#191919"/><path stroke-linecap="round" fill="#191919" d="M109.0,-40.0L115.0,-37.0L109.0,-34.0L109.0,-40.0" stroke-width="1" stroke="#191919"/></g><g id="shape22" transform="translate(302.000000,189.000000)"><path d="M.0,.0L87.0,.0L87.0,60.0L109.0,60.0" fill="none" stroke-width="1" stroke="#191919"/><path stroke-linecap="round" fill="#191919" d="M109.0,57.0L115.0,60.0L109.0,63.0L109.0,57.0" stroke-width="1" stroke="#191919"/></g><g id="group23" transform="matrix(-1.000000,0.000000,0.000000,1.000000,1036.000000,544.000000)"><path id="shape24" fill="#000000" d="M84.0,84.0L95.6,71.5L95.6,-12.5L84.0,.0L84.0,84.0z" stroke-width="1" fill-rule="nonzero" stroke="#000000"/><path id="shape25" fill="#000000" d="M.0,.0L84.0,.0L95.6,-12.5L11.6,-12.5L.0,.0z" stroke-width="1" fill-rule="nonzero" stroke="#000000"/><g id="shape26" transform="translate(0.000000,-0.278040)"><path fill="#ffffff" d="M.0,.0L84.0,.0L84.0,84.6L.0,84.6L.0,.0z" stroke-width="1" fill-rule="nonzero" stroke="#000000"/><text xml:space="preserve" transform="matrix(-1.00,0.00,0.00,1.00,84.0,0.0)" style="fill:#191919;font-family:Liberation Sans;font-size:12.00pt"><tspan x="30.4" y="47.8">OS</tspan></text></g><g id="shape27" transform="translate(51.620436,6.718328)"><path stroke-dasharray="2,5" fill="#ffffff" d="M.0,.0L31.9,.0L31.9,16.8L.0,16.8L.0,.0z" stroke-width="1" fill-rule="nonzero" stroke="#000000"/><text xml:space="preserve" transform="matrix(-1.00,0.00,0.00,1.00,31.9,0.0)" style="fill:#191919;font-family:Liberation Sans;font-size:12.00pt"><tspan x="11.5" y="13.9">1</tspan></text></g></g><g id="shape28" transform="translate(954.000000,467.000000)"><path d="M.0,.0L.0,36.0L33.0,36.0L33.0,58.0" fill="none" stroke-width="1" stroke="#191919"/><path stroke-linecap="round" fill="#191919" d="M36.0,58.0L33.0,64.0L30.0,58.0L36.0,58.0" stroke-width="1" stroke="#191919"/></g><g id="shape29" transform="translate(605.000000,529.000000)"><text xml:space="preserve" style="fill:#191919;font-family:Liberation Sans;font-size:8.00pt"><tspan x="14.3" y="18.0">variables &amp; </tspan><tspan x="19.5" y="31.0">functions</tspan></text></g><g id="shape30" transform="translate(605.000000,445.000000)"><text xml:space="preserve" style="fill:#191919;font-family:Microsoft YaHei;font-size:8.00pt"><tspan x="12.0" y="20.0">variables &amp; </tspan><tspan x="17.1" y="35.0">functions</tspan></text></g><g id="shape31" transform="matrix(0.880111,0.474767,-0.474767,0.880111,522.000000,264.000000)"><path d="M5.1,6.2C105.8,123.8,323.7,121.7,446.5,.0" fill="none" stroke-width="1" stroke="#000000"/><path stroke-linecap="round" fill="#000000" d="M2.0,8.7L.0,.0L8.2,3.6L2.0,8.7" stroke-width="1" stroke="#000000"/></g><g id="shape32" transform="matrix(0.971221,-0.238179,0.238179,0.971221,522.000000,567.000000)"><path d="M6.5,4.7C69.9,45.5,263.1,44.0,404.6,.0" fill="none" stroke-width="1" stroke="#000000"/><path stroke-linecap="round" fill="#000000" d="M4.1,7.9L.0,.0L8.8,1.5L4.1,7.9" stroke-width="1" stroke="#000000"/></g><g id="shape33" transform="translate(216.000000,574.500000)"><path fill="#ffffff" d="M128.0,74.0L128.0,.0L.0,.0L.0,74.0L128.0,74.0z" stroke-width="1" fill-rule="nonzero" stroke="#000000"/><text xml:space="preserve" style="fill:#191919;font-family:Liberation Sans;font-size:12.00pt"><tspan x="27.1" y="28.0">Instruction</tspan><tspan x="40.0" y="47.0">Fusion</tspan><tspan x="36.3" y="59.0" style="font-size:6.00pt">SSE,AVX,Neon</tspan></text></g><g id="shape34" transform="translate(216.000000,680.000000)"><path fill="#ffffff" d="M128.0,74.0L128.0,.0L.0,.0L.0,74.0L128.0,74.0z" stroke-width="1" fill-rule="nonzero" stroke="#000000"/><text xml:space="preserve" style="fill:#191919;font-family:Liberation Sans;font-size:12.00pt"><tspan x="10.7" y="42.5">jmp elimination</tspan></text></g><g id="shape35" transform="translate(344.000000,506.000000)"><path d="M.0,.0L40.0,.0L40.0,60.0L62.0,60.0" fill="none" stroke-width="1" stroke="#191919"/><path stroke-linecap="round" fill="#191919" d="M62.0,57.0L68.0,60.0L62.0,63.0L62.0,57.0" stroke-width="1" stroke="#191919"/></g><g id="shape36" transform="translate(344.000000,611.500000)"><path d="M.0,.0L40.0,.0L40.0,-45.0L62.0,-45.0" fill="none" stroke-width="1" stroke="#191919"/><path stroke-linecap="round" fill="#191919" d="M62.0,-48.0L68.0,-45.0L62.0,-42.0L62.0,-48.0" stroke-width="1" stroke="#191919"/></g><g id="shape37" transform="translate(302.000000,383.000000)"><path d="M.0,.0L87.0,.0L87.0,-134.0L109.0,-134.0" fill="none" stroke-width="1" stroke="#191919"/><path stroke-linecap="round" fill="#191919" d="M109.0,-137.0L115.0,-134.0L109.0,-131.0L109.0,-137.0" stroke-width="1" stroke="#191919"/></g><g id="shape38" transform="translate(344.000000,717.000000)"><path d="M.0,.0L40.0,.0L40.0,-151.0L62.0,-151.0" fill="none" stroke-width="1" stroke="#191919"/><path stroke-linecap="round" fill="#191919" d="M62.0,-154.0L68.0,-151.0L62.0,-148.0L62.0,-154.0" stroke-width="1" stroke="#191919"/></g><g id="shape39" transform="translate(461.000000,294.000000)"><path d="M.0,.0L.0,144.0L-9.0,144.0" fill="none" stroke-width="1" stroke="#191919"/><path stroke-linecap="round" fill="#191919" d="M-9.0,147.0L-15.0,144.0L-9.0,141.0L-9.0,147.0" stroke-width="1" stroke="#191919"/></g><g id="shape40" transform="translate(461.000000,468.000000)"><path d="M.0,.0L.0,47.0" fill="none" stroke-width="1" stroke="#191919"/><path stroke-linecap="round" fill="#191919" d="M3.0,47.0L.0,53.0L-3.0,47.0L3.0,47.0" stroke-width="1" stroke="#191919"/></g><g id="shape41" transform="translate(461.000000,611.000000)"><path d="M.0,.0L.0,71.0" fill="none" stroke-width="1" stroke="#191919"/><path stroke-linecap="round" fill="#191919" d="M3.0,71.0L.0,77.0L-3.0,71.0L3.0,71.0" stroke-width="1" stroke="#191919"/></g></g></svg>