<svg width="1133" xmlns="http://www.w3.org/2000/svg" xmlns:xlink="http://www.w3.org/1999/xlink" height="804" viewBox="0 0 1133 804" xmlns:ev="http://www.w3.org/2001/xml-events"><defs/><g transform="translate(5.5,5.5)" id="page1"><rect width="1123" y="0" x="0" height="794" fill="#ffffff"/><g transform="translate(91.429000,68.000000)" id="shape1"><path d="M11.3,.0L86.0,.0C92.6,.0,98.0,5.1,98.0,11.3L98.0,124.0C98.0,130.6,92.6,136.0,86.0,136.0L11.3,136.0C5.1,136.0,.0,130.6,.0,124.0L.0,11.3C.0,5.1,5.1,.0,11.3,.0z" fill="#ffffff" fill-rule="nonzero"/><path d="M11.3,.0L86.0,.0C92.6,.0,98.0,5.1,98.0,11.3L98.0,124.0C98.0,130.6,92.6,136.0,86.0,136.0L11.3,136.0C5.1,136.0,.0,130.6,.0,124.0L.0,11.3C.0,5.1,5.1,.0,11.3,.0zM.0,44.9L98.0,44.9L.0,44.9zM.0,90.7L98.0,90.7L.0,90.7z" stroke-width="3" stroke="#323232" fill="none"/><text xml:space="preserve" style="fill:#191919;font-family:Arial;font-size:12.00pt"><tspan y="28.2" x="22.3">Symbol</tspan></text><text xml:space="preserve" style="fill:#191919;font-family:Arial;font-size:12.00pt"><tspan y="64.0" x="8.0">%name</tspan><tspan y="83.0" x="8.0">%package</tspan></text></g><g transform="translate(66.213900,257.000000)" id="shape2"><path d="M123.2,28.0L123.2,.0L.0,.0L.0,28.0L123.2,28.0z" stroke-width="3" stroke="#323232" fill="#ffffff" fill-rule="nonzero"/><text xml:space="preserve" style="fill:#191919;font-family:Arial;font-size:12.00pt"><tspan y="19.5" x="8.1">macro-function</tspan></text></g><g transform="translate(66.214100,315.000000)" id="shape3"><path d="M190.8,28.0L190.8,.0L.0,.0L.0,28.0L190.8,28.0z" stroke-width="3" stroke="#323232" fill="#ffffff" fill-rule="nonzero"/><text xml:space="preserve" style="fill:#191919;font-family:Arial;font-size:12.00pt"><tspan y="19.5" x="9.6">compiler-macro-function</tspan></text></g><g transform="translate(66.214000,373.000000)" id="shape4"><path d="M108.0,28.0L108.0,.0L.0,.0L.0,28.0L108.0,28.0z" stroke-width="3" stroke="#323232" fill="#ffffff" fill-rule="nonzero"/><text xml:space="preserve" style="fill:#191919;font-family:Arial;font-size:12.00pt"><tspan y="19.5" x="8.0">function-type</tspan></text></g><g transform="translate(66.213900,431.000000)" id="shape5"><path d="M123.2,28.0L123.2,.0L.0,.0L.0,28.0L123.2,28.0z" stroke-width="3" stroke="#323232" fill="#ffffff" fill-rule="nonzero"/><text xml:space="preserve" style="fill:#191919;font-family:Arial;font-size:12.00pt"><tspan y="19.5" x="12.3">function-inline</tspan></text></g><g transform="translate(66.214600,496.000000)" id="shape6"><path d="M115.4,26.0L115.4,.0L.0,.0L.0,26.0L115.4,26.0z" stroke-width="3" stroke="#323232" fill="#ffffff" fill-rule="nonzero"/><text xml:space="preserve" style="fill:#191919;font-family:Arial;font-size:12.00pt"><tspan y="18.5" x="15.0">function-cell</tspan></text></g><g transform="translate(66.214100,561.000000)" id="shape7"><path d="M160.8,26.0L160.8,.0L.0,.0L.0,26.0L160.8,26.0z" stroke-width="3" stroke="#323232" fill="#ffffff" fill-rule="nonzero"/><text xml:space="preserve" style="fill:#191919;font-family:Arial;font-size:12.00pt"><tspan y="18.5" x="11.1">function-description</tspan></text></g><g transform="translate(66.214100,626.000000)" id="shape8"><path d="M145.8,26.0L145.8,.0L.0,.0L.0,26.0L145.8,26.0z" stroke-width="3" stroke="#323232" fill="#ffffff" fill-rule="nonzero"/><text xml:space="preserve" style="fill:#191919;font-family:Arial;font-size:12.00pt"><tspan y="18.5" x="12.0">constant-variable</tspan></text></g><g transform="translate(66.214100,691.000000)" id="shape9"><path d="M137.8,26.0L137.8,.0L.0,.0L.0,26.0L137.8,26.0z" stroke-width="3" stroke="#323232" fill="#ffffff" fill-rule="nonzero"/><text xml:space="preserve" style="fill:#191919;font-family:Arial;font-size:12.00pt"><tspan y="18.5" x="11.6">special-operator</tspan></text></g><g transform="translate(307.785900,257.000000)" id="shape10"><path d="M123.2,28.0L123.2,.0L.0,.0L.0,28.0L123.2,28.0z" stroke-width="3" stroke="#323232" fill="#ffffff" fill-rule="nonzero"/><text xml:space="preserve" style="fill:#191919;font-family:Arial;font-size:12.00pt"><tspan y="19.5" x="11.8">variable-value</tspan></text></g><g transform="translate(307.785900,315.000000)" id="shape11"><path d="M123.2,28.0L123.2,.0L.0,.0L.0,28.0L123.2,28.0z" stroke-width="3" stroke="#323232" fill="#ffffff" fill-rule="nonzero"/><text xml:space="preserve" style="fill:#191919;font-family:Arial;font-size:12.00pt"><tspan y="19.5" x="11.4">symbol-macro</tspan></text></g><g transform="translate(307.786000,373.000000)" id="shape12"><path d="M108.0,28.0L108.0,.0L.0,.0L.0,28.0L108.0,28.0z" stroke-width="3" stroke="#323232" fill="#ffffff" fill-rule="nonzero"/><text xml:space="preserve" style="fill:#191919;font-family:Arial;font-size:12.00pt"><tspan y="19.5" x="8.2">variable-type</tspan></text></g><g transform="translate(307.786000,431.000000)" id="shape13"><path d="M108.0,26.0L108.0,.0L.0,.0L.0,26.0L108.0,26.0z" stroke-width="3" stroke="#323232" fill="#ffffff" fill-rule="nonzero"/><text xml:space="preserve" style="fill:#191919;font-family:Arial;font-size:12.00pt"><tspan y="18.5" x="11.3">variable-cell</tspan></text></g><g transform="translate(307.785900,496.000000)" id="shape14"><path d="M161.2,26.0L161.2,.0L.0,.0L.0,26.0L161.2,26.0z" stroke-width="3" stroke="#323232" fill="#ffffff" fill-rule="nonzero"/><text xml:space="preserve" style="fill:#191919;font-family:Arial;font-size:12.00pt"><tspan y="18.5" x="11.3">variable-description</tspan></text></g><g transform="translate(307.786000,561.000000)" id="shape15"><path d="M86.3,26.0L86.3,.0L.0,.0L.0,26.0L86.3,26.0z" stroke-width="3" stroke="#323232" fill="#ffffff" fill-rule="nonzero"/><text xml:space="preserve" style="fill:#191919;font-family:Arial;font-size:12.00pt"><tspan y="18.5" x="9.4">find-class</tspan></text></g><g transform="translate(307.786000,626.000000)" id="shape16"><path d="M138.0,26.0L138.0,.0L.0,.0L.0,26.0L138.0,26.0z" stroke-width="3" stroke="#323232" fill="#ffffff" fill-rule="nonzero"/><text xml:space="preserve" style="fill:#191919;font-family:Arial;font-size:12.00pt"><tspan y="18.5" x="9.5">class-description</tspan></text></g><g transform="translate(307.785900,691.000000)" id="shape17"><path d="M123.2,26.0L123.2,.0L.0,.0L.0,26.0L123.2,26.0z" stroke-width="3" stroke="#323232" fill="#ffffff" fill-rule="nonzero"/><text xml:space="preserve" style="fill:#191919;font-family:Arial;font-size:12.00pt"><tspan y="18.5" x="12.7">setf-expander</tspan></text></g><g transform="translate(526.785900,257.000000)" id="shape18"><path d="M123.2,28.0L123.2,.0L.0,.0L.0,28.0L123.2,28.0z" stroke-width="3" stroke="#323232" fill="#ffffff" fill-rule="nonzero"/><text xml:space="preserve" style="fill:#191919;font-family:Arial;font-size:12.00pt"><tspan y="19.5" x="10.5">type-expander</tspan></text></g><g transform="translate(526.785900,315.000000)" id="shape19"><path d="M108.2,28.0L108.2,.0L.0,.0L.0,28.0L108.2,28.0z" stroke-width="3" stroke="#323232" fill="#ffffff" fill-rule="nonzero"/><text xml:space="preserve" style="fill:#191919;font-family:Arial;font-size:12.00pt"><tspan y="19.5" x="8.3">proclamation</tspan></text></g><g transform="translate(293.393000,166.500000)" id="shape20"><circle cy="41.5" stroke="#191919" cx="16.8" r="3.0" fill="none"/><circle cy="60.5" stroke="#191919" cx="16.8" r="3.0" fill="none"/><text xml:space="preserve" style="fill:#191919;font-family:Arial;font-size:12.00pt"><tspan y="28.0" x="4.0">Protocol functions</tspan><tspan y="47.0" x="24.0">are generic</tspan><tspan y="66.0" x="24.0">have setf-expander</tspan></text></g><g transform="translate(552.000000,47.000000)" id="shape21"><path d="M11.3,.0L218.0,.0C224.6,.0,230.0,5.1,230.0,11.3L230.0,124.0C230.0,130.6,224.6,136.0,218.0,136.0L11.3,136.0C5.1,136.0,.0,130.6,.0,124.0L.0,11.3C.0,5.1,5.1,.0,11.3,.0z" fill="#ffffff" fill-rule="nonzero"/><path d="M11.3,.0L218.0,.0C224.6,.0,230.0,5.1,230.0,11.3L230.0,124.0C230.0,130.6,224.6,136.0,218.0,136.0L11.3,136.0C5.1,136.0,.0,130.6,.0,124.0L.0,11.3C.0,5.1,5.1,.0,11.3,.0zM.0,44.9L230.0,44.9L.0,44.9zM.0,90.7L230.0,90.7L.0,90.7z" stroke-width="3" stroke="#323232" fill="none"/><text xml:space="preserve" style="fill:#191919;font-family:Arial;font-size:12.00pt"><tspan y="28.2" x="10.6">evaluation-environment-mixin</tspan></text><text xml:space="preserve" style="fill:#191919;font-family:Arial;font-size:12.00pt"><tspan y="73.5" x="92.3">parent</tspan></text></g><g transform="translate(823.500000,47.000000)" id="shape22"><path d="M11.3,.0L245.0,.0C251.6,.0,257.0,5.1,257.0,11.3L257.0,124.0C257.0,130.6,251.6,136.0,245.0,136.0L11.3,136.0C5.1,136.0,.0,130.6,.0,124.0L.0,11.3C.0,5.1,5.1,.0,11.3,.0z" fill="#ffffff" fill-rule="nonzero"/><path d="M11.3,.0L245.0,.0C251.6,.0,257.0,5.1,257.0,11.3L257.0,124.0C257.0,130.6,251.6,136.0,245.0,136.0L11.3,136.0C5.1,136.0,.0,130.6,.0,124.0L.0,11.3C.0,5.1,5.1,.0,11.3,.0zM.0,44.9L257.0,44.9L.0,44.9zM.0,90.7L257.0,90.7L.0,90.7z" stroke-width="3" stroke="#323232" fill="none"/><text xml:space="preserve" style="fill:#191919;font-family:Arial;font-size:12.00pt"><tspan y="28.2" x="41.4">compilation-environment</tspan></text><text xml:space="preserve" style="fill:#191919;font-family:Arial;font-size:12.00pt"><tspan y="109.3" x="50.7">generic-function-class</tspan><tspan y="128.3" x="16.5">method-combination defgeneric</tspan></text><text xml:space="preserve" style="fill:#191919;font-family:Arial;font-size:12.00pt"><tspan y="73.5" x="105.8">parent</tspan></text></g><g transform="translate(849.107100,257.000000)" id="shape23"><path d="M160.8,26.0L160.8,.0L.0,.0L.0,26.0L160.8,26.0z" stroke-width="3" stroke="#323232" fill="#ffffff" fill-rule="nonzero"/><text xml:space="preserve" style="fill:#191919;font-family:Arial;font-size:12.00pt"><tspan y="18.5" x="11.1">function-description</tspan></text></g><g transform="translate(849.107000,317.000000)" id="shape24"><path d="M138.0,26.0L138.0,.0L.0,.0L.0,26.0L138.0,26.0z" stroke-width="3" stroke="#323232" fill="#ffffff" fill-rule="nonzero"/><text xml:space="preserve" style="fill:#191919;font-family:Arial;font-size:12.00pt"><tspan y="18.5" x="9.5">class-description</tspan></text></g><g transform="translate(849.107100,375.000000)" id="shape25"><path d="M160.8,26.0L160.8,.0L.0,.0L.0,26.0L160.8,26.0z" stroke-width="3" stroke="#323232" fill="#ffffff" fill-rule="nonzero"/><text xml:space="preserve" style="fill:#191919;font-family:Arial;font-size:12.00pt"><tspan y="18.5" x="11.1">function-description</tspan></text></g><g transform="translate(849.106900,433.000000)" id="shape26"><path d="M161.2,26.0L161.2,.0L.0,.0L.0,26.0L161.2,26.0z" stroke-width="3" stroke="#323232" fill="#ffffff" fill-rule="nonzero"/><text xml:space="preserve" style="fill:#191919;font-family:Arial;font-size:12.00pt"><tspan y="18.5" x="11.3">variable-description</tspan></text></g><g transform="translate(849.106900,496.000000)" id="shape27"><path d="M123.2,28.0L123.2,.0L.0,.0L.0,28.0L123.2,28.0z" stroke-width="3" stroke="#323232" fill="#ffffff" fill-rule="nonzero"/><text xml:space="preserve" style="fill:#191919;font-family:Arial;font-size:12.00pt"><tspan y="19.5" x="8.1">macro-function</tspan></text></g><g transform="translate(289.000000,47.000000)" id="group28"><path d="M11.3,.0L167.3,.0C173.9,.0,179.3,5.1,179.3,11.3L179.3,106.2C179.3,112.8,173.9,118.2,167.3,118.2L11.3,118.2C5.1,118.2,.0,112.8,.0,106.2L.0,11.3C.0,5.1,5.1,.0,11.3,.0z" stroke-width="3" transform="translate(0.317000,0.404300)" stroke="#323232" fill="#ffffff" fill-rule="nonzero" id="shape29"/><g transform="translate(15.724100,9.779200)" id="shape30"><path d="M11.3,.0L136.5,.0C143.1,.0,148.5,5.1,148.5,11.3L148.5,87.4C148.5,94.0,143.1,99.4,136.5,99.4L11.3,99.4C5.1,99.4,.0,94.0,.0,87.4L.0,11.3C.0,5.1,5.1,.0,11.3,.0z" fill="#ffffff" fill-rule="nonzero"/><path d="M11.3,.0L136.5,.0C143.1,.0,148.5,5.1,148.5,11.3L148.5,87.4C148.5,94.0,143.1,99.4,136.5,99.4L11.3,99.4C5.1,99.4,.0,94.0,.0,87.4L.0,11.3C.0,5.1,5.1,.0,11.3,.0zM.0,32.8L148.5,32.8L.0,32.8zM.0,66.3L148.5,66.3L.0,66.3z" stroke-width="3" stroke="#323232" fill="none"/><text xml:space="preserve" style="fill:#191919;font-family:Arial;font-size:12.00pt"><tspan y="12.6" x="51.1">Global </tspan><tspan y="31.6" x="29.3">Environment</tspan></text></g></g><g transform="translate(630.846700,428.000000)" id="shape31"><path d="M11.3,.0L162.4,.0C169.0,.0,174.4,5.1,174.4,11.3L174.4,124.0C174.4,130.6,169.0,136.0,162.4,136.0L11.3,136.0C5.1,136.0,.0,130.6,.0,124.0L.0,11.3C.0,5.1,5.1,.0,11.3,.0z" fill="#ffffff" fill-rule="nonzero"/><path d="M11.3,.0L162.4,.0C169.0,.0,174.4,5.1,174.4,11.3L174.4,124.0C174.4,130.6,169.0,136.0,162.4,136.0L11.3,136.0C5.1,136.0,.0,130.6,.0,124.0L.0,11.3C.0,5.1,5.1,.0,11.3,.0zM.0,44.9L174.4,44.9L.0,44.9zM.0,90.7L174.4,90.7L.0,90.7z" stroke-width="3" stroke="#323232" fill="none"/><text xml:space="preserve" style="fill:#191919;font-family:Arial;font-size:12.00pt"><tspan y="28.2" x="32.1">trucler-clostrum</tspan></text></g><g transform="translate(657.551000,378.000000)" id="shape32"><text xml:space="preserve" style="fill:#191919;font-family:Arial;font-size:16.00pt"><tspan y="26.5" x="32.5">ASDF</tspan></text></g><g transform="translate(630.846200,580.500000)" id="shape33"><path d="M152.3,29.0L152.3,.0L.0,.0L.0,29.0L152.3,29.0z" stroke-width="3" stroke="#323232" fill="#ffffff" fill-rule="nonzero"/><text xml:space="preserve" style="fill:#191919;font-family:Arial;font-size:12.00pt"><tspan y="20.0" x="15.3">describe-function</tspan></text></g><g transform="translate(630.845900,626.000000)" id="shape34"><path d="M133.6,29.0L133.6,.0L.0,.0L.0,29.0L133.6,29.0z" stroke-width="3" stroke="#323232" fill="#ffffff" fill-rule="nonzero"/><text xml:space="preserve" style="fill:#191919;font-family:Arial;font-size:12.00pt"><tspan y="20.0" x="15.2">describe-block</tspan></text></g><g transform="translate(630.845800,671.500000)" id="shape35"><path d="M117.0,26.0L117.0,.0L.0,.0L.0,26.0L117.0,26.0z" stroke-width="3" stroke="#323232" fill="#ffffff" fill-rule="nonzero"/><text xml:space="preserve" style="fill:#191919;font-family:Arial;font-size:12.00pt"><tspan y="18.5" x="14.5">describe-tag</tspan></text></g><g transform="translate(630.846100,714.000000)" id="shape36"><path d="M163.2,26.0L163.2,.0L.0,.0L.0,26.0L163.2,26.0z" stroke-width="3" stroke="#323232" fill="#ffffff" fill-rule="nonzero"/><text xml:space="preserve" style="fill:#191919;font-family:Arial;font-size:12.00pt"><tspan y="18.5" x="13.6">global-environment</tspan></text></g><g transform="translate(0.214300,0.000000)" id="shape37"><text xml:space="preserve" style="fill:#191919;font-family:Arial;font-size:24.00pt"><tspan y="38.0" x="23.0">Clostrum</tspan></text></g><g transform="translate(526.785900,378.000000)" id="shape38"><path d="M85.2,26.0L85.2,.0L.0,.0L.0,26.0L85.2,26.0z" stroke-width="3" stroke="#323232" fill="#ffffff" fill-rule="nonzero"/><text xml:space="preserve" style="fill:#191919;font-family:Arial;font-size:12.00pt"><tspan y="18.5" x="8.4">fdefinition</tspan></text></g></g></svg>